<mxfile host="app.diagrams.net" modified="2022-05-01T09:35:05.494Z" agent="5.0 (Windows NT 10.0; Win64; x64) AppleWebKit/537.36 (KHTML, like Gecko) Chrome/92.0.4515.159 Safari/537.36" etag="Eu6bpBZiehm9jfCrj4oP" version="17.4.5" type="github">
  <diagram id="_NVqnbQQ9h0dMKhQ7ydW" name="Page-1">
    <mxGraphModel dx="7654" dy="546" grid="1" gridSize="10" guides="1" tooltips="1" connect="1" arrows="1" fold="1" page="1" pageScale="1" pageWidth="827" pageHeight="1169" math="0" shadow="0">
      <root>
        <mxCell id="0" />
        <mxCell id="1" parent="0" />
        <mxCell id="TWLzpkab2mWhmV8aygny-3" style="edgeStyle=orthogonalEdgeStyle;rounded=0;orthogonalLoop=1;jettySize=auto;html=1;entryX=0.5;entryY=0;entryDx=0;entryDy=0;sketch=0;shadow=1;strokeWidth=2;labelBorderColor=none;fontSize=14;" parent="1" source="TWLzpkab2mWhmV8aygny-4" target="TWLzpkab2mWhmV8aygny-6" edge="1">
          <mxGeometry relative="1" as="geometry" />
        </mxCell>
        <mxCell id="TWLzpkab2mWhmV8aygny-4" value="敏感数据" style="shape=parallelogram;html=1;strokeWidth=2;perimeter=parallelogramPerimeter;whiteSpace=wrap;rounded=1;arcSize=12;size=0.23;fillColor=#d5e8d4;sketch=0;shadow=1;labelBorderColor=none;fontSize=14;" parent="1" vertex="1">
          <mxGeometry x="166.25" y="610" width="143.75" height="70" as="geometry" />
        </mxCell>
        <mxCell id="TWLzpkab2mWhmV8aygny-5" style="edgeStyle=orthogonalEdgeStyle;rounded=0;orthogonalLoop=1;jettySize=auto;html=1;entryX=0.5;entryY=0;entryDx=0;entryDy=0;sketch=0;shadow=1;strokeWidth=2;labelBorderColor=none;fontSize=14;" parent="1" source="TWLzpkab2mWhmV8aygny-6" target="TWLzpkab2mWhmV8aygny-9" edge="1">
          <mxGeometry relative="1" as="geometry" />
        </mxCell>
        <mxCell id="TWLzpkab2mWhmV8aygny-6" value="字段名和描述识别" style="rounded=1;whiteSpace=wrap;html=1;absoluteArcSize=1;arcSize=14;strokeWidth=2;fillColor=#1ba1e2;fontColor=#ffffff;sketch=0;shadow=1;labelBorderColor=none;fontSize=14;" parent="1" vertex="1">
          <mxGeometry x="175.31" y="730" width="125.62" height="80" as="geometry" />
        </mxCell>
        <mxCell id="TWLzpkab2mWhmV8aygny-7" value="&lt;br&gt;敏感识别结果" style="strokeWidth=2;html=1;shape=mxgraph.flowchart.database;whiteSpace=wrap;fillColor=#f8cecc;sketch=0;shadow=1;labelBorderColor=none;fontSize=14;" parent="1" vertex="1">
          <mxGeometry x="168.12" y="980" width="140" height="80" as="geometry" />
        </mxCell>
        <mxCell id="TWLzpkab2mWhmV8aygny-8" style="edgeStyle=orthogonalEdgeStyle;rounded=0;orthogonalLoop=1;jettySize=auto;html=1;entryX=0.5;entryY=0;entryDx=0;entryDy=0;entryPerimeter=0;sketch=0;shadow=1;strokeWidth=2;labelBorderColor=none;fontSize=14;" parent="1" source="TWLzpkab2mWhmV8aygny-9" target="TWLzpkab2mWhmV8aygny-7" edge="1">
          <mxGeometry relative="1" as="geometry" />
        </mxCell>
        <mxCell id="TWLzpkab2mWhmV8aygny-9" value="内容识别" style="rounded=1;whiteSpace=wrap;html=1;absoluteArcSize=1;arcSize=14;strokeWidth=2;fillColor=#ffe6cc;sketch=0;shadow=1;labelBorderColor=none;fontSize=14;" parent="1" vertex="1">
          <mxGeometry x="170.31" y="860" width="135.62" height="80" as="geometry" />
        </mxCell>
        <mxCell id="TWLzpkab2mWhmV8aygny-10" style="edgeStyle=orthogonalEdgeStyle;rounded=0;orthogonalLoop=1;jettySize=auto;html=1;entryX=0.5;entryY=0;entryDx=0;entryDy=0;sketch=0;shadow=1;strokeWidth=2;labelBorderColor=none;fontSize=14;" parent="1" source="TWLzpkab2mWhmV8aygny-11" target="TWLzpkab2mWhmV8aygny-13" edge="1">
          <mxGeometry relative="1" as="geometry" />
        </mxCell>
        <mxCell id="TWLzpkab2mWhmV8aygny-11" value="敏感数据" style="shape=parallelogram;html=1;strokeWidth=2;perimeter=parallelogramPerimeter;whiteSpace=wrap;rounded=1;arcSize=12;size=0.23;fillColor=#d5e8d4;sketch=0;shadow=1;labelBorderColor=none;fontSize=14;" parent="1" vertex="1">
          <mxGeometry x="1150.4099999999999" y="610" width="143.75" height="70" as="geometry" />
        </mxCell>
        <mxCell id="TWLzpkab2mWhmV8aygny-12" style="edgeStyle=orthogonalEdgeStyle;rounded=0;orthogonalLoop=1;jettySize=auto;html=1;entryX=0.5;entryY=0;entryDx=0;entryDy=0;entryPerimeter=0;sketch=0;shadow=1;strokeWidth=2;labelBorderColor=none;fontSize=14;" parent="1" source="TWLzpkab2mWhmV8aygny-13" target="TWLzpkab2mWhmV8aygny-16" edge="1">
          <mxGeometry relative="1" as="geometry" />
        </mxCell>
        <mxCell id="TWLzpkab2mWhmV8aygny-13" value="内容识别" style="rounded=1;whiteSpace=wrap;html=1;absoluteArcSize=1;arcSize=14;strokeWidth=2;fillColor=#ffe6cc;sketch=0;shadow=1;labelBorderColor=none;fontSize=14;" parent="1" vertex="1">
          <mxGeometry x="1154.4700000000003" y="730" width="135.62" height="80" as="geometry" />
        </mxCell>
        <mxCell id="TWLzpkab2mWhmV8aygny-14" value="" style="edgeStyle=orthogonalEdgeStyle;rounded=0;orthogonalLoop=1;jettySize=auto;html=1;sketch=0;shadow=1;strokeWidth=2;labelBorderColor=none;fontSize=14;" parent="1" source="TWLzpkab2mWhmV8aygny-16" target="TWLzpkab2mWhmV8aygny-18" edge="1">
          <mxGeometry relative="1" as="geometry" />
        </mxCell>
        <mxCell id="TWLzpkab2mWhmV8aygny-15" style="edgeStyle=orthogonalEdgeStyle;rounded=0;orthogonalLoop=1;jettySize=auto;html=1;exitX=0;exitY=0.5;exitDx=0;exitDy=0;exitPerimeter=0;entryX=0;entryY=0.5;entryDx=0;entryDy=0;entryPerimeter=0;sketch=0;shadow=1;strokeWidth=2;labelBorderColor=none;fontSize=14;" parent="1" source="TWLzpkab2mWhmV8aygny-16" target="TWLzpkab2mWhmV8aygny-22" edge="1">
          <mxGeometry relative="1" as="geometry">
            <Array as="points">
              <mxPoint x="1040" y="900" />
              <mxPoint x="1040" y="1150" />
            </Array>
          </mxGeometry>
        </mxCell>
        <mxCell id="TWLzpkab2mWhmV8aygny-16" value="是否有正则匹配" style="strokeWidth=2;html=1;shape=mxgraph.flowchart.decision;whiteSpace=wrap;sketch=0;shadow=1;labelBorderColor=none;fontSize=14;" parent="1" vertex="1">
          <mxGeometry x="1156.19" y="850" width="132.18" height="100" as="geometry" />
        </mxCell>
        <mxCell id="TWLzpkab2mWhmV8aygny-17" style="edgeStyle=orthogonalEdgeStyle;rounded=0;orthogonalLoop=1;jettySize=auto;html=1;entryX=0.5;entryY=0;entryDx=0;entryDy=0;entryPerimeter=0;sketch=0;shadow=1;strokeWidth=2;labelBorderColor=none;fontSize=14;" parent="1" source="TWLzpkab2mWhmV8aygny-18" target="TWLzpkab2mWhmV8aygny-22" edge="1">
          <mxGeometry relative="1" as="geometry" />
        </mxCell>
        <mxCell id="TWLzpkab2mWhmV8aygny-18" value="1.正则匹配&lt;br style=&quot;font-size: 14px;&quot;&gt;2.计算权重" style="rounded=1;whiteSpace=wrap;html=1;absoluteArcSize=1;arcSize=14;strokeWidth=2;sketch=0;shadow=1;labelBorderColor=none;fontSize=14;" parent="1" vertex="1">
          <mxGeometry x="1154.48" y="980" width="135.62" height="80" as="geometry" />
        </mxCell>
        <mxCell id="TWLzpkab2mWhmV8aygny-19" style="edgeStyle=orthogonalEdgeStyle;rounded=0;orthogonalLoop=1;jettySize=auto;html=1;entryX=0.5;entryY=0;entryDx=0;entryDy=0;entryPerimeter=0;strokeWidth=2;" parent="1" source="TWLzpkab2mWhmV8aygny-20" target="TWLzpkab2mWhmV8aygny-69" edge="1">
          <mxGeometry relative="1" as="geometry" />
        </mxCell>
        <mxCell id="TWLzpkab2mWhmV8aygny-20" value="1.算法匹配&lt;br style=&quot;font-size: 14px;&quot;&gt;2.计算权重" style="rounded=1;whiteSpace=wrap;html=1;absoluteArcSize=1;arcSize=14;strokeWidth=2;sketch=0;shadow=1;labelBorderColor=none;fontSize=14;" parent="1" vertex="1">
          <mxGeometry x="1154.4699999999998" y="1240" width="135.62" height="80" as="geometry" />
        </mxCell>
        <mxCell id="TWLzpkab2mWhmV8aygny-21" style="edgeStyle=orthogonalEdgeStyle;rounded=0;orthogonalLoop=1;jettySize=auto;html=1;entryX=0.5;entryY=0;entryDx=0;entryDy=0;sketch=0;shadow=1;strokeWidth=2;labelBorderColor=none;fontSize=14;" parent="1" source="TWLzpkab2mWhmV8aygny-22" target="TWLzpkab2mWhmV8aygny-20" edge="1">
          <mxGeometry relative="1" as="geometry" />
        </mxCell>
        <mxCell id="TWLzpkab2mWhmV8aygny-22" value="是否有算法匹配" style="strokeWidth=2;html=1;shape=mxgraph.flowchart.decision;whiteSpace=wrap;sketch=0;shadow=1;labelBorderColor=none;fontSize=14;" parent="1" vertex="1">
          <mxGeometry x="1156.19" y="1100" width="132.18" height="100" as="geometry" />
        </mxCell>
        <mxCell id="TWLzpkab2mWhmV8aygny-23" style="edgeStyle=orthogonalEdgeStyle;rounded=0;orthogonalLoop=1;jettySize=auto;html=1;entryX=0.5;entryY=0;entryDx=0;entryDy=0;entryPerimeter=0;strokeWidth=2;" parent="1" source="TWLzpkab2mWhmV8aygny-24" target="TWLzpkab2mWhmV8aygny-27" edge="1">
          <mxGeometry relative="1" as="geometry" />
        </mxCell>
        <mxCell id="TWLzpkab2mWhmV8aygny-24" value="累加权重" style="rounded=1;whiteSpace=wrap;html=1;absoluteArcSize=1;arcSize=14;strokeWidth=2;sketch=0;shadow=1;labelBorderColor=none;fontSize=14;" parent="1" vertex="1">
          <mxGeometry x="1152.75" y="1640" width="135.62" height="80" as="geometry" />
        </mxCell>
        <mxCell id="TWLzpkab2mWhmV8aygny-25" style="edgeStyle=orthogonalEdgeStyle;rounded=0;orthogonalLoop=1;jettySize=auto;html=1;entryX=0.5;entryY=0;entryDx=0;entryDy=0;entryPerimeter=0;sketch=0;shadow=1;strokeWidth=2;labelBorderColor=none;fontSize=14;" parent="1" source="TWLzpkab2mWhmV8aygny-27" target="TWLzpkab2mWhmV8aygny-29" edge="1">
          <mxGeometry relative="1" as="geometry" />
        </mxCell>
        <mxCell id="TWLzpkab2mWhmV8aygny-26" style="edgeStyle=orthogonalEdgeStyle;rounded=0;orthogonalLoop=1;jettySize=auto;html=1;entryX=0.5;entryY=0;entryDx=0;entryDy=0;sketch=0;shadow=1;strokeWidth=2;labelBorderColor=none;fontSize=14;" parent="1" source="TWLzpkab2mWhmV8aygny-27" target="TWLzpkab2mWhmV8aygny-64" edge="1">
          <mxGeometry relative="1" as="geometry" />
        </mxCell>
        <mxCell id="TWLzpkab2mWhmV8aygny-27" value="是否敏感字段" style="strokeWidth=2;html=1;shape=mxgraph.flowchart.decision;whiteSpace=wrap;sketch=0;shadow=1;labelBorderColor=none;fontSize=14;" parent="1" vertex="1">
          <mxGeometry x="1154.48" y="1780" width="132.18" height="100" as="geometry" />
        </mxCell>
        <mxCell id="TWLzpkab2mWhmV8aygny-28" style="edgeStyle=orthogonalEdgeStyle;rounded=0;orthogonalLoop=1;jettySize=auto;html=1;entryX=0.5;entryY=0;entryDx=0;entryDy=0;sketch=0;shadow=1;strokeWidth=2;labelBorderColor=none;fontSize=14;" parent="1" source="TWLzpkab2mWhmV8aygny-29" target="TWLzpkab2mWhmV8aygny-31" edge="1">
          <mxGeometry relative="1" as="geometry" />
        </mxCell>
        <mxCell id="TWLzpkab2mWhmV8aygny-29" value="是否数据库存有当前字段" style="strokeWidth=2;html=1;shape=mxgraph.flowchart.decision;whiteSpace=wrap;sketch=0;shadow=1;labelBorderColor=none;fontSize=14;" parent="1" vertex="1">
          <mxGeometry x="859.7" y="1940" width="132.18" height="100" as="geometry" />
        </mxCell>
        <mxCell id="TWLzpkab2mWhmV8aygny-30" style="edgeStyle=orthogonalEdgeStyle;rounded=0;orthogonalLoop=1;jettySize=auto;html=1;entryX=0.5;entryY=0;entryDx=0;entryDy=0;entryPerimeter=0;sketch=0;shadow=1;strokeWidth=2;labelBorderColor=none;fontSize=14;" parent="1" source="TWLzpkab2mWhmV8aygny-31" target="TWLzpkab2mWhmV8aygny-32" edge="1">
          <mxGeometry relative="1" as="geometry" />
        </mxCell>
        <mxCell id="TWLzpkab2mWhmV8aygny-31" value="标注字段已加密" style="rounded=1;whiteSpace=wrap;html=1;absoluteArcSize=1;arcSize=14;strokeWidth=2;sketch=0;shadow=1;labelBorderColor=none;fontSize=14;" parent="1" vertex="1">
          <mxGeometry x="857.9799999999999" y="2070" width="135.62" height="80" as="geometry" />
        </mxCell>
        <mxCell id="TWLzpkab2mWhmV8aygny-32" value="&lt;br&gt;敏感识别结果" style="strokeWidth=2;html=1;shape=mxgraph.flowchart.database;whiteSpace=wrap;fillColor=#f8cecc;sketch=0;shadow=1;labelBorderColor=none;fontSize=14;" parent="1" vertex="1">
          <mxGeometry x="855.79" y="2180" width="140" height="80" as="geometry" />
        </mxCell>
        <mxCell id="TWLzpkab2mWhmV8aygny-33" style="edgeStyle=orthogonalEdgeStyle;rounded=0;orthogonalLoop=1;jettySize=auto;html=1;entryX=0.5;entryY=0;entryDx=0;entryDy=0;sketch=0;shadow=1;strokeWidth=2;labelBorderColor=none;fontSize=14;" parent="1" source="TWLzpkab2mWhmV8aygny-34" target="TWLzpkab2mWhmV8aygny-36" edge="1">
          <mxGeometry relative="1" as="geometry" />
        </mxCell>
        <mxCell id="TWLzpkab2mWhmV8aygny-34" value="敏感数据" style="shape=parallelogram;html=1;strokeWidth=2;perimeter=parallelogramPerimeter;whiteSpace=wrap;rounded=1;arcSize=12;size=0.23;fillColor=#d5e8d4;sketch=0;shadow=1;labelBorderColor=none;fontSize=14;" parent="1" vertex="1">
          <mxGeometry x="490" y="610" width="143.75" height="70" as="geometry" />
        </mxCell>
        <mxCell id="TWLzpkab2mWhmV8aygny-35" style="edgeStyle=orthogonalEdgeStyle;rounded=0;orthogonalLoop=1;jettySize=auto;html=1;entryX=0.5;entryY=0;entryDx=0;entryDy=0;entryPerimeter=0;sketch=0;shadow=1;strokeWidth=2;labelBorderColor=none;fontSize=14;" parent="1" source="TWLzpkab2mWhmV8aygny-36" target="TWLzpkab2mWhmV8aygny-39" edge="1">
          <mxGeometry relative="1" as="geometry" />
        </mxCell>
        <mxCell id="TWLzpkab2mWhmV8aygny-36" value="字段名和描述识别" style="rounded=1;whiteSpace=wrap;html=1;absoluteArcSize=1;arcSize=14;strokeWidth=2;fillColor=#1ba1e2;fontColor=#ffffff;sketch=0;shadow=1;labelBorderColor=none;fontSize=14;" parent="1" vertex="1">
          <mxGeometry x="499.05999999999995" y="730" width="125.62" height="80" as="geometry" />
        </mxCell>
        <mxCell id="TWLzpkab2mWhmV8aygny-37" style="edgeStyle=orthogonalEdgeStyle;rounded=0;orthogonalLoop=1;jettySize=auto;html=1;entryX=0.5;entryY=0;entryDx=0;entryDy=0;sketch=0;shadow=1;strokeWidth=2;labelBorderColor=none;fontSize=14;" parent="1" source="TWLzpkab2mWhmV8aygny-39" target="TWLzpkab2mWhmV8aygny-41" edge="1">
          <mxGeometry relative="1" as="geometry" />
        </mxCell>
        <mxCell id="TWLzpkab2mWhmV8aygny-38" style="edgeStyle=orthogonalEdgeStyle;rounded=0;orthogonalLoop=1;jettySize=auto;html=1;entryX=1;entryY=0.5;entryDx=0;entryDy=0;entryPerimeter=0;sketch=0;shadow=1;strokeWidth=2;labelBorderColor=none;fontSize=14;" parent="1" source="TWLzpkab2mWhmV8aygny-39" target="TWLzpkab2mWhmV8aygny-44" edge="1">
          <mxGeometry relative="1" as="geometry">
            <Array as="points">
              <mxPoint x="720" y="900.0000000000002" />
              <mxPoint x="720" y="1160" />
            </Array>
          </mxGeometry>
        </mxCell>
        <mxCell id="TWLzpkab2mWhmV8aygny-39" value="是否有精确匹配" style="strokeWidth=2;html=1;shape=mxgraph.flowchart.decision;whiteSpace=wrap;sketch=0;shadow=1;labelBorderColor=none;fontSize=14;" parent="1" vertex="1">
          <mxGeometry x="495.7800000000001" y="850" width="132.18" height="100" as="geometry" />
        </mxCell>
        <mxCell id="TWLzpkab2mWhmV8aygny-40" style="edgeStyle=orthogonalEdgeStyle;rounded=0;orthogonalLoop=1;jettySize=auto;html=1;entryX=0.5;entryY=0;entryDx=0;entryDy=0;entryPerimeter=0;sketch=0;shadow=1;strokeWidth=2;labelBorderColor=none;fontSize=14;" parent="1" source="TWLzpkab2mWhmV8aygny-41" target="TWLzpkab2mWhmV8aygny-44" edge="1">
          <mxGeometry relative="1" as="geometry">
            <mxPoint x="561.8800000000003" y="1129.9999999999998" as="targetPoint" />
          </mxGeometry>
        </mxCell>
        <mxCell id="TWLzpkab2mWhmV8aygny-41" value="1.精确匹配&lt;br style=&quot;font-size: 14px;&quot;&gt;2.计算权重" style="rounded=1;whiteSpace=wrap;html=1;absoluteArcSize=1;arcSize=14;strokeWidth=2;sketch=0;shadow=1;labelBorderColor=none;fontSize=14;" parent="1" vertex="1">
          <mxGeometry x="494.07000000000005" y="990" width="135.62" height="80" as="geometry" />
        </mxCell>
        <mxCell id="TWLzpkab2mWhmV8aygny-42" style="edgeStyle=orthogonalEdgeStyle;rounded=0;orthogonalLoop=1;jettySize=auto;html=1;entryX=0.5;entryY=0;entryDx=0;entryDy=0;sketch=0;shadow=1;strokeWidth=2;labelBorderColor=none;fontSize=14;" parent="1" source="TWLzpkab2mWhmV8aygny-44" target="TWLzpkab2mWhmV8aygny-46" edge="1">
          <mxGeometry relative="1" as="geometry" />
        </mxCell>
        <mxCell id="TWLzpkab2mWhmV8aygny-43" style="edgeStyle=orthogonalEdgeStyle;rounded=0;orthogonalLoop=1;jettySize=auto;html=1;entryX=0;entryY=0.5;entryDx=0;entryDy=0;entryPerimeter=0;sketch=0;shadow=1;strokeWidth=2;labelBorderColor=none;fontSize=14;" parent="1" source="TWLzpkab2mWhmV8aygny-44" target="TWLzpkab2mWhmV8aygny-49" edge="1">
          <mxGeometry relative="1" as="geometry">
            <Array as="points">
              <mxPoint x="400" y="1160" />
              <mxPoint x="400" y="1540" />
            </Array>
          </mxGeometry>
        </mxCell>
        <mxCell id="TWLzpkab2mWhmV8aygny-44" value="是否有模糊匹配" style="strokeWidth=2;html=1;shape=mxgraph.flowchart.decision;whiteSpace=wrap;sketch=0;shadow=1;labelBorderColor=none;fontSize=14;" parent="1" vertex="1">
          <mxGeometry x="495.7900000000001" y="1110" width="132.18" height="100" as="geometry" />
        </mxCell>
        <mxCell id="TWLzpkab2mWhmV8aygny-45" style="edgeStyle=orthogonalEdgeStyle;rounded=0;orthogonalLoop=1;jettySize=auto;html=1;entryX=0.5;entryY=0;entryDx=0;entryDy=0;sketch=0;shadow=1;strokeWidth=2;labelBorderColor=none;fontSize=14;" parent="1" source="TWLzpkab2mWhmV8aygny-46" target="TWLzpkab2mWhmV8aygny-53" edge="1">
          <mxGeometry relative="1" as="geometry">
            <mxPoint x="561.8699999999999" y="1540" as="targetPoint" />
          </mxGeometry>
        </mxCell>
        <mxCell id="TWLzpkab2mWhmV8aygny-46" value="1.模糊匹配&lt;br style=&quot;font-size: 14px;&quot;&gt;2.计算权重" style="rounded=1;whiteSpace=wrap;html=1;absoluteArcSize=1;arcSize=14;strokeWidth=2;sketch=0;shadow=1;labelBorderColor=none;fontSize=14;" parent="1" vertex="1">
          <mxGeometry x="494.04999999999995" y="1250" width="135.62" height="80" as="geometry" />
        </mxCell>
        <mxCell id="TWLzpkab2mWhmV8aygny-47" style="edgeStyle=orthogonalEdgeStyle;rounded=0;orthogonalLoop=1;jettySize=auto;html=1;entryX=0.5;entryY=0;entryDx=0;entryDy=0;sketch=0;shadow=1;strokeWidth=2;labelBorderColor=none;fontSize=14;" parent="1" source="TWLzpkab2mWhmV8aygny-49" target="TWLzpkab2mWhmV8aygny-51" edge="1">
          <mxGeometry relative="1" as="geometry" />
        </mxCell>
        <mxCell id="TWLzpkab2mWhmV8aygny-48" style="edgeStyle=orthogonalEdgeStyle;rounded=0;orthogonalLoop=1;jettySize=auto;html=1;entryX=1;entryY=0.5;entryDx=0;entryDy=0;sketch=0;shadow=1;strokeWidth=2;labelBorderColor=none;fontSize=14;" parent="1" source="TWLzpkab2mWhmV8aygny-49" target="TWLzpkab2mWhmV8aygny-55" edge="1">
          <mxGeometry relative="1" as="geometry">
            <Array as="points">
              <mxPoint x="772" y="1540" />
              <mxPoint x="772" y="1790" />
            </Array>
          </mxGeometry>
        </mxCell>
        <mxCell id="TWLzpkab2mWhmV8aygny-49" value="1.是否权重大于零&lt;br style=&quot;font-size: 14px;&quot;&gt;2.是否有黑名单匹配" style="strokeWidth=2;html=1;shape=mxgraph.flowchart.decision;whiteSpace=wrap;sketch=0;shadow=1;labelBorderColor=none;fontSize=14;" parent="1" vertex="1">
          <mxGeometry x="495.78999999999996" y="1490" width="132.18" height="100" as="geometry" />
        </mxCell>
        <mxCell id="TWLzpkab2mWhmV8aygny-50" style="edgeStyle=orthogonalEdgeStyle;rounded=0;orthogonalLoop=1;jettySize=auto;html=1;entryX=0.5;entryY=0;entryDx=0;entryDy=0;sketch=0;shadow=1;strokeWidth=2;labelBorderColor=none;fontSize=14;" parent="1" source="TWLzpkab2mWhmV8aygny-51" target="TWLzpkab2mWhmV8aygny-55" edge="1">
          <mxGeometry relative="1" as="geometry">
            <mxPoint x="564.0700000000004" y="1770" as="targetPoint" />
          </mxGeometry>
        </mxCell>
        <mxCell id="TWLzpkab2mWhmV8aygny-51" value="1.黑名单匹配&lt;br style=&quot;font-size: 14px;&quot;&gt;2.计算权重" style="rounded=1;whiteSpace=wrap;html=1;absoluteArcSize=1;arcSize=14;strokeWidth=2;sketch=0;shadow=1;labelBorderColor=none;fontSize=14;" parent="1" vertex="1">
          <mxGeometry x="494.05000000000007" y="1630" width="135.62" height="80" as="geometry" />
        </mxCell>
        <mxCell id="TWLzpkab2mWhmV8aygny-52" style="edgeStyle=orthogonalEdgeStyle;rounded=0;orthogonalLoop=1;jettySize=auto;html=1;entryX=0.5;entryY=0;entryDx=0;entryDy=0;entryPerimeter=0;sketch=0;shadow=1;strokeWidth=2;labelBorderColor=none;fontSize=14;" parent="1" source="TWLzpkab2mWhmV8aygny-53" target="TWLzpkab2mWhmV8aygny-49" edge="1">
          <mxGeometry relative="1" as="geometry" />
        </mxCell>
        <mxCell id="TWLzpkab2mWhmV8aygny-53" value="累加权重" style="rounded=1;whiteSpace=wrap;html=1;absoluteArcSize=1;arcSize=14;strokeWidth=2;sketch=0;shadow=1;labelBorderColor=none;fontSize=14;" parent="1" vertex="1">
          <mxGeometry x="494.05000000000007" y="1370" width="135.62" height="80" as="geometry" />
        </mxCell>
        <mxCell id="TWLzpkab2mWhmV8aygny-54" style="edgeStyle=orthogonalEdgeStyle;rounded=0;orthogonalLoop=1;jettySize=auto;html=1;entryX=0.5;entryY=0;entryDx=0;entryDy=0;entryPerimeter=0;sketch=0;shadow=1;strokeWidth=2;labelBorderColor=none;fontSize=14;" parent="1" source="TWLzpkab2mWhmV8aygny-55" target="TWLzpkab2mWhmV8aygny-57" edge="1">
          <mxGeometry relative="1" as="geometry" />
        </mxCell>
        <mxCell id="TWLzpkab2mWhmV8aygny-55" value="累加权重" style="rounded=1;whiteSpace=wrap;html=1;absoluteArcSize=1;arcSize=14;strokeWidth=2;sketch=0;shadow=1;labelBorderColor=none;fontSize=14;" parent="1" vertex="1">
          <mxGeometry x="494.05000000000007" y="1750" width="135.62" height="80" as="geometry" />
        </mxCell>
        <mxCell id="TWLzpkab2mWhmV8aygny-56" style="edgeStyle=orthogonalEdgeStyle;rounded=0;orthogonalLoop=1;jettySize=auto;html=1;entryX=0.5;entryY=0;entryDx=0;entryDy=0;sketch=0;shadow=1;strokeWidth=2;labelBorderColor=none;fontSize=14;" parent="1" source="TWLzpkab2mWhmV8aygny-57" target="TWLzpkab2mWhmV8aygny-59" edge="1">
          <mxGeometry relative="1" as="geometry" />
        </mxCell>
        <mxCell id="TWLzpkab2mWhmV8aygny-57" value="是否敏感字段" style="strokeWidth=2;html=1;shape=mxgraph.flowchart.decision;whiteSpace=wrap;sketch=0;shadow=1;labelBorderColor=none;fontSize=14;" parent="1" vertex="1">
          <mxGeometry x="496.24999999999994" y="1860" width="132.18" height="100" as="geometry" />
        </mxCell>
        <mxCell id="TWLzpkab2mWhmV8aygny-58" style="edgeStyle=orthogonalEdgeStyle;rounded=0;orthogonalLoop=1;jettySize=auto;html=1;entryX=0.5;entryY=0;entryDx=0;entryDy=0;sketch=0;shadow=1;strokeWidth=2;labelBorderColor=none;fontSize=14;" parent="1" source="TWLzpkab2mWhmV8aygny-59" target="TWLzpkab2mWhmV8aygny-61" edge="1">
          <mxGeometry relative="1" as="geometry">
            <mxPoint x="564.05" y="2130" as="targetPoint" />
          </mxGeometry>
        </mxCell>
        <mxCell id="TWLzpkab2mWhmV8aygny-59" value="1.定义安全字段编码&lt;br style=&quot;font-size: 14px;&quot;&gt;2.定义安全字段等级" style="rounded=1;whiteSpace=wrap;html=1;absoluteArcSize=1;arcSize=14;strokeWidth=2;sketch=0;shadow=1;labelBorderColor=none;fontSize=14;" parent="1" vertex="1">
          <mxGeometry x="494.5299999999999" y="1990" width="135.62" height="80" as="geometry" />
        </mxCell>
        <mxCell id="TWLzpkab2mWhmV8aygny-60" style="edgeStyle=orthogonalEdgeStyle;rounded=0;orthogonalLoop=1;jettySize=auto;html=1;entryX=0.5;entryY=0;entryDx=0;entryDy=0;entryPerimeter=0;sketch=0;shadow=1;strokeWidth=2;labelBorderColor=none;fontSize=14;" parent="1" source="TWLzpkab2mWhmV8aygny-61" target="TWLzpkab2mWhmV8aygny-62" edge="1">
          <mxGeometry relative="1" as="geometry" />
        </mxCell>
        <mxCell id="TWLzpkab2mWhmV8aygny-61" value="标注字段加密未可知" style="rounded=1;whiteSpace=wrap;html=1;absoluteArcSize=1;arcSize=14;strokeWidth=2;sketch=0;shadow=1;labelBorderColor=none;fontSize=14;" parent="1" vertex="1">
          <mxGeometry x="494.0699999999997" y="2110" width="135.62" height="80" as="geometry" />
        </mxCell>
        <mxCell id="TWLzpkab2mWhmV8aygny-62" value="&lt;br&gt;敏感识别结果" style="strokeWidth=2;html=1;shape=mxgraph.flowchart.database;whiteSpace=wrap;fillColor=#f8cecc;sketch=0;shadow=1;labelBorderColor=none;fontSize=14;" parent="1" vertex="1">
          <mxGeometry x="491.8799999999999" y="2220" width="140" height="80" as="geometry" />
        </mxCell>
        <mxCell id="TWLzpkab2mWhmV8aygny-63" style="edgeStyle=orthogonalEdgeStyle;rounded=0;orthogonalLoop=1;jettySize=auto;html=1;entryX=0.5;entryY=0;entryDx=0;entryDy=0;sketch=0;shadow=1;strokeWidth=2;labelBorderColor=none;fontSize=14;" parent="1" source="TWLzpkab2mWhmV8aygny-64" target="TWLzpkab2mWhmV8aygny-66" edge="1">
          <mxGeometry relative="1" as="geometry">
            <mxPoint x="1226.33" y="2090" as="targetPoint" />
          </mxGeometry>
        </mxCell>
        <mxCell id="TWLzpkab2mWhmV8aygny-64" value="1.定义安全字段编码&lt;br style=&quot;font-size: 14px;&quot;&gt;2.定义安全字段等级&lt;br style=&quot;font-size: 14px;&quot;&gt;3.保存识别抽样数据" style="rounded=1;whiteSpace=wrap;html=1;absoluteArcSize=1;arcSize=14;strokeWidth=2;sketch=0;shadow=1;labelBorderColor=none;fontSize=14;" parent="1" vertex="1">
          <mxGeometry x="1152.91" y="1950" width="135.62" height="80" as="geometry" />
        </mxCell>
        <mxCell id="TWLzpkab2mWhmV8aygny-65" style="edgeStyle=orthogonalEdgeStyle;rounded=0;orthogonalLoop=1;jettySize=auto;html=1;entryX=0.5;entryY=0;entryDx=0;entryDy=0;entryPerimeter=0;sketch=0;shadow=1;strokeWidth=2;labelBorderColor=none;fontSize=14;" parent="1" source="TWLzpkab2mWhmV8aygny-66" target="TWLzpkab2mWhmV8aygny-67" edge="1">
          <mxGeometry relative="1" as="geometry" />
        </mxCell>
        <mxCell id="TWLzpkab2mWhmV8aygny-66" value="标注字段未加密" style="rounded=1;whiteSpace=wrap;html=1;absoluteArcSize=1;arcSize=14;strokeWidth=2;sketch=0;shadow=1;labelBorderColor=none;fontSize=14;" parent="1" vertex="1">
          <mxGeometry x="1152.7499999999998" y="2070" width="135.62" height="80" as="geometry" />
        </mxCell>
        <mxCell id="TWLzpkab2mWhmV8aygny-67" value="&lt;br&gt;敏感识别结果" style="strokeWidth=2;html=1;shape=mxgraph.flowchart.database;whiteSpace=wrap;fillColor=#f8cecc;sketch=0;shadow=1;labelBorderColor=none;fontSize=14;" parent="1" vertex="1">
          <mxGeometry x="1151.9699999999998" y="2180" width="140" height="80" as="geometry" />
        </mxCell>
        <mxCell id="TWLzpkab2mWhmV8aygny-68" value="" style="edgeStyle=orthogonalEdgeStyle;rounded=0;orthogonalLoop=1;jettySize=auto;html=1;strokeWidth=2;" parent="1" source="TWLzpkab2mWhmV8aygny-69" target="TWLzpkab2mWhmV8aygny-71" edge="1">
          <mxGeometry relative="1" as="geometry" />
        </mxCell>
        <mxCell id="TWLzpkab2mWhmV8aygny-69" value="是否有字段名描述识别结果" style="strokeWidth=2;html=1;shape=mxgraph.flowchart.decision;whiteSpace=wrap;sketch=0;shadow=1;labelBorderColor=none;fontSize=14;" parent="1" vertex="1">
          <mxGeometry x="1156.35" y="1370" width="132.18" height="100" as="geometry" />
        </mxCell>
        <mxCell id="TWLzpkab2mWhmV8aygny-70" value="" style="edgeStyle=orthogonalEdgeStyle;rounded=0;orthogonalLoop=1;jettySize=auto;html=1;strokeWidth=2;" parent="1" source="TWLzpkab2mWhmV8aygny-71" target="TWLzpkab2mWhmV8aygny-24" edge="1">
          <mxGeometry relative="1" as="geometry" />
        </mxCell>
        <mxCell id="TWLzpkab2mWhmV8aygny-71" value="获取字段名描述识别权重" style="rounded=1;whiteSpace=wrap;html=1;absoluteArcSize=1;arcSize=14;strokeWidth=2;sketch=0;shadow=1;labelBorderColor=none;fontSize=14;" parent="1" vertex="1">
          <mxGeometry x="1154.16" y="1510" width="135.62" height="80" as="geometry" />
        </mxCell>
        <mxCell id="TWLzpkab2mWhmV8aygny-72" style="edgeStyle=orthogonalEdgeStyle;rounded=0;orthogonalLoop=1;jettySize=auto;html=1;entryX=0.5;entryY=0;entryDx=0;entryDy=0;entryPerimeter=0;" parent="1" source="TWLzpkab2mWhmV8aygny-73" target="TWLzpkab2mWhmV8aygny-82" edge="1">
          <mxGeometry relative="1" as="geometry">
            <mxPoint x="-98.13000000000011" y="730" as="targetPoint" />
          </mxGeometry>
        </mxCell>
        <mxCell id="TWLzpkab2mWhmV8aygny-73" value="敏感数据" style="shape=parallelogram;html=1;strokeWidth=2;perimeter=parallelogramPerimeter;whiteSpace=wrap;rounded=1;arcSize=12;size=0.23;fillColor=#d5e8d4;sketch=0;shadow=1;labelBorderColor=none;fontSize=14;" parent="1" vertex="1">
          <mxGeometry x="-170" y="610" width="143.75" height="70" as="geometry" />
        </mxCell>
        <mxCell id="TWLzpkab2mWhmV8aygny-74" style="edgeStyle=orthogonalEdgeStyle;rounded=0;orthogonalLoop=1;jettySize=auto;html=1;entryX=0.5;entryY=0;entryDx=0;entryDy=0;entryPerimeter=0;" parent="1" source="TWLzpkab2mWhmV8aygny-75" target="TWLzpkab2mWhmV8aygny-77" edge="1">
          <mxGeometry relative="1" as="geometry" />
        </mxCell>
        <mxCell id="TWLzpkab2mWhmV8aygny-75" value="敏感识别" style="rounded=1;whiteSpace=wrap;html=1;absoluteArcSize=1;arcSize=14;strokeWidth=2;sketch=0;shadow=1;labelBorderColor=none;fontSize=14;" parent="1" vertex="1">
          <mxGeometry x="-165.94" y="860" width="135.62" height="80" as="geometry" />
        </mxCell>
        <mxCell id="TWLzpkab2mWhmV8aygny-76" style="edgeStyle=orthogonalEdgeStyle;rounded=0;orthogonalLoop=1;jettySize=auto;html=1;entryX=0.5;entryY=0;entryDx=0;entryDy=0;entryPerimeter=0;" parent="1" source="TWLzpkab2mWhmV8aygny-77" target="TWLzpkab2mWhmV8aygny-79" edge="1">
          <mxGeometry relative="1" as="geometry" />
        </mxCell>
        <mxCell id="TWLzpkab2mWhmV8aygny-77" value="是否敏感字段" style="strokeWidth=2;html=1;shape=mxgraph.flowchart.decision;whiteSpace=wrap;sketch=0;shadow=1;labelBorderColor=none;fontSize=14;" parent="1" vertex="1">
          <mxGeometry x="-164.22000000000008" y="980" width="132.18" height="100" as="geometry" />
        </mxCell>
        <mxCell id="TWLzpkab2mWhmV8aygny-78" style="edgeStyle=orthogonalEdgeStyle;rounded=0;orthogonalLoop=1;jettySize=auto;html=1;entryX=1;entryY=0.5;entryDx=0;entryDy=0;entryPerimeter=0;strokeWidth=2;" parent="1" source="TWLzpkab2mWhmV8aygny-79" target="TWLzpkab2mWhmV8aygny-82" edge="1">
          <mxGeometry relative="1" as="geometry">
            <Array as="points">
              <mxPoint x="40" y="1160" />
              <mxPoint x="40" y="770" />
            </Array>
          </mxGeometry>
        </mxCell>
        <mxCell id="TWLzpkab2mWhmV8aygny-79" value="&lt;br&gt;敏感识别结果" style="strokeWidth=2;html=1;shape=mxgraph.flowchart.database;whiteSpace=wrap;fillColor=#f8cecc;sketch=0;shadow=1;labelBorderColor=none;fontSize=14;" parent="1" vertex="1">
          <mxGeometry x="-168.12" y="1120" width="140" height="80" as="geometry" />
        </mxCell>
        <mxCell id="TWLzpkab2mWhmV8aygny-80" style="edgeStyle=orthogonalEdgeStyle;rounded=0;orthogonalLoop=1;jettySize=auto;html=1;entryX=0.5;entryY=0;entryDx=0;entryDy=0;" parent="1" source="TWLzpkab2mWhmV8aygny-82" target="TWLzpkab2mWhmV8aygny-75" edge="1">
          <mxGeometry relative="1" as="geometry" />
        </mxCell>
        <mxCell id="TWLzpkab2mWhmV8aygny-81" style="edgeStyle=orthogonalEdgeStyle;rounded=0;orthogonalLoop=1;jettySize=auto;html=1;entryX=0.5;entryY=0;entryDx=0;entryDy=0;strokeWidth=2;" parent="1" source="TWLzpkab2mWhmV8aygny-82" target="TWLzpkab2mWhmV8aygny-83" edge="1">
          <mxGeometry relative="1" as="geometry">
            <mxPoint x="-260" y="920" as="targetPoint" />
          </mxGeometry>
        </mxCell>
        <mxCell id="TWLzpkab2mWhmV8aygny-82" value="遍历敏感数据" style="strokeWidth=2;html=1;shape=mxgraph.flowchart.decision;whiteSpace=wrap;sketch=0;shadow=1;labelBorderColor=none;fontSize=14;" parent="1" vertex="1">
          <mxGeometry x="-164.22000000000008" y="720" width="132.18" height="100" as="geometry" />
        </mxCell>
        <mxCell id="TWLzpkab2mWhmV8aygny-83" value="结束循环" style="text;html=1;strokeColor=none;fillColor=none;align=center;verticalAlign=middle;whiteSpace=wrap;rounded=0;strokeWidth=8;fontSize=14;" parent="1" vertex="1">
          <mxGeometry x="-300" y="920" width="60" height="20" as="geometry" />
        </mxCell>
        <mxCell id="TWLzpkab2mWhmV8aygny-104" style="edgeStyle=orthogonalEdgeStyle;rounded=0;orthogonalLoop=1;jettySize=auto;html=1;entryX=0.5;entryY=0;entryDx=0;entryDy=0;shadow=1;strokeWidth=2;" parent="1" target="TWLzpkab2mWhmV8aygny-88" edge="1">
          <mxGeometry relative="1" as="geometry">
            <mxPoint x="-698.3999999999996" y="700" as="sourcePoint" />
          </mxGeometry>
        </mxCell>
        <mxCell id="TWLzpkab2mWhmV8aygny-105" style="edgeStyle=orthogonalEdgeStyle;rounded=0;orthogonalLoop=1;jettySize=auto;html=1;shadow=1;strokeWidth=2;" parent="1" source="TWLzpkab2mWhmV8aygny-88" target="TWLzpkab2mWhmV8aygny-91" edge="1">
          <mxGeometry relative="1" as="geometry" />
        </mxCell>
        <mxCell id="TWLzpkab2mWhmV8aygny-150" style="edgeStyle=orthogonalEdgeStyle;orthogonalLoop=1;jettySize=auto;html=1;exitX=1;exitY=0;exitDx=0;exitDy=0;entryX=0;entryY=1;entryDx=0;entryDy=0;fontSize=16;curved=1;shadow=1;strokeWidth=2;" parent="1" source="TWLzpkab2mWhmV8aygny-88" target="TWLzpkab2mWhmV8aygny-148" edge="1">
          <mxGeometry relative="1" as="geometry" />
        </mxCell>
        <mxCell id="TWLzpkab2mWhmV8aygny-88" value="&lt;font style=&quot;font-size: 13px&quot;&gt;确认跟进人&lt;/font&gt;" style="rounded=1;whiteSpace=wrap;html=1;absoluteArcSize=1;arcSize=14;strokeWidth=2;sketch=0;shadow=1;labelBorderColor=none;fontSize=14;" parent="1" vertex="1">
          <mxGeometry x="-765.62" y="740" width="135.62" height="80" as="geometry" />
        </mxCell>
        <mxCell id="TWLzpkab2mWhmV8aygny-107" style="edgeStyle=orthogonalEdgeStyle;rounded=0;orthogonalLoop=1;jettySize=auto;html=1;entryX=0.5;entryY=0;entryDx=0;entryDy=0;shadow=1;strokeWidth=2;" parent="1" source="TWLzpkab2mWhmV8aygny-89" target="TWLzpkab2mWhmV8aygny-90" edge="1">
          <mxGeometry relative="1" as="geometry" />
        </mxCell>
        <mxCell id="TWLzpkab2mWhmV8aygny-89" value="&lt;font style=&quot;font-size: 13px&quot;&gt;1.确认交付清单&lt;br&gt;2.确认截止时间&lt;/font&gt;" style="rounded=1;whiteSpace=wrap;html=1;absoluteArcSize=1;arcSize=14;strokeWidth=2;sketch=0;shadow=1;labelBorderColor=none;fontSize=14;" parent="1" vertex="1">
          <mxGeometry x="-765.62" y="980" width="135.62" height="80" as="geometry" />
        </mxCell>
        <mxCell id="TWLzpkab2mWhmV8aygny-108" style="edgeStyle=orthogonalEdgeStyle;rounded=0;orthogonalLoop=1;jettySize=auto;html=1;entryX=0.5;entryY=0;entryDx=0;entryDy=0;entryPerimeter=0;shadow=1;strokeWidth=2;" parent="1" source="TWLzpkab2mWhmV8aygny-90" target="TWLzpkab2mWhmV8aygny-92" edge="1">
          <mxGeometry relative="1" as="geometry" />
        </mxCell>
        <mxCell id="TWLzpkab2mWhmV8aygny-90" value="&lt;font style=&quot;font-size: 13px&quot;&gt;外部沟通&lt;/font&gt;" style="rounded=1;whiteSpace=wrap;html=1;absoluteArcSize=1;arcSize=14;strokeWidth=2;sketch=0;shadow=1;labelBorderColor=none;fontSize=14;" parent="1" vertex="1">
          <mxGeometry x="-765.62" y="1100" width="135.62" height="80" as="geometry" />
        </mxCell>
        <mxCell id="TWLzpkab2mWhmV8aygny-106" style="edgeStyle=orthogonalEdgeStyle;rounded=0;orthogonalLoop=1;jettySize=auto;html=1;entryX=0.5;entryY=0;entryDx=0;entryDy=0;shadow=1;strokeWidth=2;" parent="1" source="TWLzpkab2mWhmV8aygny-91" target="TWLzpkab2mWhmV8aygny-89" edge="1">
          <mxGeometry relative="1" as="geometry" />
        </mxCell>
        <mxCell id="TWLzpkab2mWhmV8aygny-91" value="&lt;font style=&quot;font-size: 13px&quot;&gt;内部沟通&lt;/font&gt;" style="rounded=1;whiteSpace=wrap;html=1;absoluteArcSize=1;arcSize=14;strokeWidth=2;sketch=0;shadow=1;labelBorderColor=none;fontSize=14;" parent="1" vertex="1">
          <mxGeometry x="-765.62" y="860" width="135.62" height="80" as="geometry" />
        </mxCell>
        <mxCell id="TWLzpkab2mWhmV8aygny-110" style="edgeStyle=orthogonalEdgeStyle;rounded=0;orthogonalLoop=1;jettySize=auto;html=1;shadow=1;strokeWidth=2;" parent="1" source="TWLzpkab2mWhmV8aygny-92" target="TWLzpkab2mWhmV8aygny-93" edge="1">
          <mxGeometry relative="1" as="geometry" />
        </mxCell>
        <mxCell id="TWLzpkab2mWhmV8aygny-143" style="edgeStyle=orthogonalEdgeStyle;rounded=0;orthogonalLoop=1;jettySize=auto;html=1;entryX=1;entryY=0.5;entryDx=0;entryDy=0;entryPerimeter=0;shadow=1;strokeWidth=2;" parent="1" source="TWLzpkab2mWhmV8aygny-92" target="TWLzpkab2mWhmV8aygny-142" edge="1">
          <mxGeometry relative="1" as="geometry" />
        </mxCell>
        <mxCell id="TWLzpkab2mWhmV8aygny-92" value="&lt;font style=&quot;font-size: 13px&quot;&gt;是否相互达成一致&lt;/font&gt;" style="strokeWidth=2;html=1;shape=mxgraph.flowchart.decision;whiteSpace=wrap;sketch=0;shadow=1;labelBorderColor=none;fontSize=14;" parent="1" vertex="1">
          <mxGeometry x="-764.37" y="1220" width="132.18" height="100" as="geometry" />
        </mxCell>
        <mxCell id="TWLzpkab2mWhmV8aygny-111" style="edgeStyle=orthogonalEdgeStyle;rounded=0;orthogonalLoop=1;jettySize=auto;html=1;entryX=0.5;entryY=0;entryDx=0;entryDy=0;shadow=1;strokeWidth=2;" parent="1" source="TWLzpkab2mWhmV8aygny-93" target="TWLzpkab2mWhmV8aygny-95" edge="1">
          <mxGeometry relative="1" as="geometry" />
        </mxCell>
        <mxCell id="TWLzpkab2mWhmV8aygny-121" style="edgeStyle=orthogonalEdgeStyle;rounded=0;orthogonalLoop=1;jettySize=auto;html=1;entryX=0;entryY=0.5;entryDx=0;entryDy=0;shadow=1;strokeWidth=2;" parent="1" source="TWLzpkab2mWhmV8aygny-93" target="TWLzpkab2mWhmV8aygny-96" edge="1">
          <mxGeometry relative="1" as="geometry">
            <Array as="points">
              <mxPoint x="-830" y="1400" />
              <mxPoint x="-830" y="1640" />
            </Array>
          </mxGeometry>
        </mxCell>
        <mxCell id="TWLzpkab2mWhmV8aygny-93" value="&lt;font style=&quot;font-size: 11px&quot;&gt;1是否重要合作事项&lt;br&gt;2.是否已存在延误&lt;/font&gt;" style="strokeWidth=2;html=1;shape=mxgraph.flowchart.decision;whiteSpace=wrap;sketch=0;shadow=1;labelBorderColor=none;fontSize=14;" parent="1" vertex="1">
          <mxGeometry x="-763.9000000000001" y="1350" width="132.18" height="100" as="geometry" />
        </mxCell>
        <mxCell id="TWLzpkab2mWhmV8aygny-112" style="edgeStyle=orthogonalEdgeStyle;rounded=0;orthogonalLoop=1;jettySize=auto;html=1;entryX=0.5;entryY=0;entryDx=0;entryDy=0;shadow=1;strokeWidth=2;" parent="1" source="TWLzpkab2mWhmV8aygny-95" target="TWLzpkab2mWhmV8aygny-96" edge="1">
          <mxGeometry relative="1" as="geometry" />
        </mxCell>
        <mxCell id="TWLzpkab2mWhmV8aygny-95" value="&lt;font style=&quot;font-size: 10px&quot;&gt;1.书写正式邮件，包含承诺交付清单和截止日期&lt;br&gt;2.发邮件给他，并抄送给他和我的领导&lt;br&gt;&lt;/font&gt;" style="rounded=1;whiteSpace=wrap;html=1;absoluteArcSize=1;arcSize=14;strokeWidth=2;sketch=0;shadow=1;labelBorderColor=none;fontSize=14;" parent="1" vertex="1">
          <mxGeometry x="-766.09" y="1480" width="135.62" height="80" as="geometry" />
        </mxCell>
        <mxCell id="TWLzpkab2mWhmV8aygny-113" style="edgeStyle=orthogonalEdgeStyle;rounded=0;orthogonalLoop=1;jettySize=auto;html=1;entryX=0.5;entryY=0;entryDx=0;entryDy=0;shadow=1;strokeWidth=2;" parent="1" source="TWLzpkab2mWhmV8aygny-96" target="TWLzpkab2mWhmV8aygny-97" edge="1">
          <mxGeometry relative="1" as="geometry" />
        </mxCell>
        <mxCell id="TWLzpkab2mWhmV8aygny-96" value="沟通群同步上述信息" style="rounded=1;whiteSpace=wrap;html=1;absoluteArcSize=1;arcSize=14;strokeWidth=2;sketch=0;shadow=1;labelBorderColor=none;fontSize=13;" parent="1" vertex="1">
          <mxGeometry x="-765.6199999999999" y="1600" width="135.62" height="80" as="geometry" />
        </mxCell>
        <mxCell id="TWLzpkab2mWhmV8aygny-114" style="edgeStyle=orthogonalEdgeStyle;rounded=0;orthogonalLoop=1;jettySize=auto;html=1;entryX=0.5;entryY=0;entryDx=0;entryDy=0;entryPerimeter=0;shadow=1;strokeWidth=2;" parent="1" source="TWLzpkab2mWhmV8aygny-97" target="TWLzpkab2mWhmV8aygny-98" edge="1">
          <mxGeometry relative="1" as="geometry" />
        </mxCell>
        <mxCell id="TWLzpkab2mWhmV8aygny-97" value="定时跟进" style="rounded=1;whiteSpace=wrap;html=1;absoluteArcSize=1;arcSize=14;strokeWidth=2;sketch=0;shadow=1;labelBorderColor=none;fontSize=13;" parent="1" vertex="1">
          <mxGeometry x="-766.09" y="1710" width="135.62" height="80" as="geometry" />
        </mxCell>
        <mxCell id="TWLzpkab2mWhmV8aygny-115" style="edgeStyle=orthogonalEdgeStyle;rounded=0;orthogonalLoop=1;jettySize=auto;html=1;entryX=0.5;entryY=0;entryDx=0;entryDy=0;entryPerimeter=0;shadow=1;strokeWidth=2;" parent="1" source="TWLzpkab2mWhmV8aygny-98" target="TWLzpkab2mWhmV8aygny-101" edge="1">
          <mxGeometry relative="1" as="geometry" />
        </mxCell>
        <mxCell id="TWLzpkab2mWhmV8aygny-164" style="edgeStyle=orthogonalEdgeStyle;rounded=0;orthogonalLoop=1;jettySize=auto;html=1;entryX=0.5;entryY=0;entryDx=0;entryDy=0;entryPerimeter=0;fontSize=16;shadow=1;strokeWidth=2;" parent="1" source="TWLzpkab2mWhmV8aygny-98" target="TWLzpkab2mWhmV8aygny-154" edge="1">
          <mxGeometry relative="1" as="geometry" />
        </mxCell>
        <mxCell id="TWLzpkab2mWhmV8aygny-98" value="是否存在风险" style="strokeWidth=2;html=1;shape=mxgraph.flowchart.decision;whiteSpace=wrap;sketch=0;shadow=1;labelBorderColor=none;fontSize=13;" parent="1" vertex="1">
          <mxGeometry x="-764.37" y="1820" width="132.18" height="100" as="geometry" />
        </mxCell>
        <mxCell id="TWLzpkab2mWhmV8aygny-116" style="edgeStyle=orthogonalEdgeStyle;rounded=0;orthogonalLoop=1;jettySize=auto;html=1;entryX=0.5;entryY=0;entryDx=0;entryDy=0;entryPerimeter=0;shadow=1;strokeWidth=2;" parent="1" source="TWLzpkab2mWhmV8aygny-101" target="TWLzpkab2mWhmV8aygny-102" edge="1">
          <mxGeometry relative="1" as="geometry" />
        </mxCell>
        <mxCell id="TWLzpkab2mWhmV8aygny-118" style="edgeStyle=orthogonalEdgeStyle;rounded=0;orthogonalLoop=1;jettySize=auto;html=1;shadow=1;strokeWidth=2;" parent="1" source="TWLzpkab2mWhmV8aygny-101" edge="1">
          <mxGeometry relative="1" as="geometry">
            <mxPoint x="-630" y="780" as="targetPoint" />
            <Array as="points">
              <mxPoint x="-430" y="2000" />
              <mxPoint x="-430" y="780" />
            </Array>
          </mxGeometry>
        </mxCell>
        <mxCell id="TWLzpkab2mWhmV8aygny-101" value="是否需要调整跟进人" style="strokeWidth=2;html=1;shape=mxgraph.flowchart.decision;whiteSpace=wrap;sketch=0;shadow=1;labelBorderColor=none;fontSize=13;" parent="1" vertex="1">
          <mxGeometry x="-765.47" y="1950" width="134.37" height="100" as="geometry" />
        </mxCell>
        <mxCell id="TWLzpkab2mWhmV8aygny-122" style="edgeStyle=orthogonalEdgeStyle;rounded=0;orthogonalLoop=1;jettySize=auto;html=1;entryX=1;entryY=0.5;entryDx=0;entryDy=0;shadow=1;strokeWidth=2;" parent="1" source="TWLzpkab2mWhmV8aygny-102" target="TWLzpkab2mWhmV8aygny-91" edge="1">
          <mxGeometry relative="1" as="geometry">
            <mxPoint x="-540" y="890" as="targetPoint" />
            <Array as="points">
              <mxPoint x="-560" y="2130" />
              <mxPoint x="-560" y="900" />
            </Array>
          </mxGeometry>
        </mxCell>
        <mxCell id="TWLzpkab2mWhmV8aygny-130" style="edgeStyle=orthogonalEdgeStyle;rounded=0;orthogonalLoop=1;jettySize=auto;html=1;entryX=0.5;entryY=0;entryDx=0;entryDy=0;entryPerimeter=0;shadow=1;strokeWidth=2;" parent="1" source="TWLzpkab2mWhmV8aygny-102" target="TWLzpkab2mWhmV8aygny-126" edge="1">
          <mxGeometry relative="1" as="geometry" />
        </mxCell>
        <mxCell id="TWLzpkab2mWhmV8aygny-102" value="是否可以重新协调" style="strokeWidth=2;html=1;shape=mxgraph.flowchart.decision;whiteSpace=wrap;sketch=0;shadow=1;labelBorderColor=none;fontSize=13;" parent="1" vertex="1">
          <mxGeometry x="-764.3699999999999" y="2080" width="132.18" height="100" as="geometry" />
        </mxCell>
        <mxCell id="TWLzpkab2mWhmV8aygny-133" style="edgeStyle=orthogonalEdgeStyle;rounded=0;orthogonalLoop=1;jettySize=auto;html=1;entryX=1;entryY=0.5;entryDx=0;entryDy=0;shadow=1;strokeWidth=2;" parent="1" source="TWLzpkab2mWhmV8aygny-126" target="TWLzpkab2mWhmV8aygny-132" edge="1">
          <mxGeometry relative="1" as="geometry">
            <Array as="points">
              <mxPoint x="-520" y="2270" />
              <mxPoint x="-520" y="2500" />
            </Array>
          </mxGeometry>
        </mxCell>
        <mxCell id="TWLzpkab2mWhmV8aygny-134" style="edgeStyle=orthogonalEdgeStyle;rounded=0;orthogonalLoop=1;jettySize=auto;html=1;entryX=0.5;entryY=0;entryDx=0;entryDy=0;shadow=1;strokeWidth=2;" parent="1" source="TWLzpkab2mWhmV8aygny-126" target="TWLzpkab2mWhmV8aygny-131" edge="1">
          <mxGeometry relative="1" as="geometry" />
        </mxCell>
        <mxCell id="TWLzpkab2mWhmV8aygny-126" value="&lt;font style=&quot;font-size: 12px;&quot;&gt;1是否重要合作事项&lt;br style=&quot;font-size: 12px;&quot;&gt;2.是否已存在延误&lt;/font&gt;" style="strokeWidth=2;html=1;shape=mxgraph.flowchart.decision;whiteSpace=wrap;sketch=0;shadow=1;labelBorderColor=none;fontSize=12;" parent="1" vertex="1">
          <mxGeometry x="-763.9000000000001" y="2220" width="132.18" height="100" as="geometry" />
        </mxCell>
        <mxCell id="TWLzpkab2mWhmV8aygny-136" style="edgeStyle=orthogonalEdgeStyle;rounded=0;orthogonalLoop=1;jettySize=auto;html=1;shadow=1;strokeWidth=2;" parent="1" source="TWLzpkab2mWhmV8aygny-131" target="TWLzpkab2mWhmV8aygny-132" edge="1">
          <mxGeometry relative="1" as="geometry" />
        </mxCell>
        <mxCell id="TWLzpkab2mWhmV8aygny-131" value="&lt;span style=&quot;font-size: 10px&quot;&gt;1.书写正式邮件，包含风险延误的具体原因&lt;/span&gt;&lt;br style=&quot;font-size: 10px&quot;&gt;&lt;span style=&quot;font-size: 10px&quot;&gt;2.发邮件给他，并抄送给他和我的领导&lt;/span&gt;" style="rounded=1;whiteSpace=wrap;html=1;absoluteArcSize=1;arcSize=14;strokeWidth=2;sketch=0;shadow=1;labelBorderColor=none;fontSize=14;fillColor=#f8cecc;strokeColor=#b85450;" parent="1" vertex="1">
          <mxGeometry x="-765.47" y="2350" width="135.62" height="80" as="geometry" />
        </mxCell>
        <mxCell id="TWLzpkab2mWhmV8aygny-132" value="沟通群同步上述信息系" style="rounded=1;whiteSpace=wrap;html=1;absoluteArcSize=1;arcSize=14;strokeWidth=2;sketch=0;shadow=1;labelBorderColor=none;fontSize=13;fillColor=#f8cecc;strokeColor=#b85450;" parent="1" vertex="1">
          <mxGeometry x="-765.4699999999999" y="2460" width="135.62" height="80" as="geometry" />
        </mxCell>
        <mxCell id="TWLzpkab2mWhmV8aygny-146" style="edgeStyle=orthogonalEdgeStyle;rounded=0;orthogonalLoop=1;jettySize=auto;html=1;entryX=0;entryY=0.5;entryDx=0;entryDy=0;entryPerimeter=0;shadow=1;strokeWidth=2;" parent="1" source="TWLzpkab2mWhmV8aygny-142" target="TWLzpkab2mWhmV8aygny-126" edge="1">
          <mxGeometry relative="1" as="geometry">
            <Array as="points">
              <mxPoint x="-904" y="2270" />
            </Array>
          </mxGeometry>
        </mxCell>
        <mxCell id="TWLzpkab2mWhmV8aygny-147" style="edgeStyle=orthogonalEdgeStyle;rounded=0;orthogonalLoop=1;jettySize=auto;html=1;entryX=0;entryY=0.5;entryDx=0;entryDy=0;shadow=1;strokeWidth=2;" parent="1" source="TWLzpkab2mWhmV8aygny-142" target="TWLzpkab2mWhmV8aygny-88" edge="1">
          <mxGeometry relative="1" as="geometry">
            <Array as="points">
              <mxPoint x="-904" y="780" />
            </Array>
          </mxGeometry>
        </mxCell>
        <mxCell id="TWLzpkab2mWhmV8aygny-142" value="&lt;font style=&quot;font-size: 13px&quot;&gt;是否可以重新协商&lt;/font&gt;" style="strokeWidth=2;html=1;shape=mxgraph.flowchart.decision;whiteSpace=wrap;sketch=0;shadow=1;labelBorderColor=none;fontSize=14;" parent="1" vertex="1">
          <mxGeometry x="-970" y="1220" width="132.18" height="100" as="geometry" />
        </mxCell>
        <mxCell id="TWLzpkab2mWhmV8aygny-148" value="&lt;font style=&quot;font-size: 13px&quot;&gt;跟进人确认原则上不变更&lt;/font&gt;" style="text;html=1;strokeColor=#b85450;fillColor=#f8cecc;align=center;verticalAlign=middle;whiteSpace=wrap;rounded=0;fontSize=14;fontStyle=1;shadow=1;strokeWidth=2;" parent="1" vertex="1">
          <mxGeometry x="-580" y="680" width="160" height="20" as="geometry" />
        </mxCell>
        <mxCell id="TWLzpkab2mWhmV8aygny-151" value="&lt;font style=&quot;font-size: 13px&quot;&gt;合作事项完成&lt;/font&gt;" style="rounded=1;whiteSpace=wrap;html=1;absoluteArcSize=1;arcSize=14;strokeWidth=2;sketch=0;shadow=1;labelBorderColor=none;fontSize=14;fillColor=#d5e8d4;strokeColor=#82b366;" parent="1" vertex="1">
          <mxGeometry x="-1121.7199999999998" y="2460" width="135.62" height="80" as="geometry" />
        </mxCell>
        <mxCell id="TWLzpkab2mWhmV8aygny-159" style="edgeStyle=orthogonalEdgeStyle;rounded=0;orthogonalLoop=1;jettySize=auto;html=1;entryX=0.5;entryY=0;entryDx=0;entryDy=0;fontSize=16;shadow=1;strokeWidth=2;" parent="1" source="TWLzpkab2mWhmV8aygny-154" target="TWLzpkab2mWhmV8aygny-156" edge="1">
          <mxGeometry relative="1" as="geometry" />
        </mxCell>
        <mxCell id="TWLzpkab2mWhmV8aygny-163" style="edgeStyle=orthogonalEdgeStyle;rounded=0;orthogonalLoop=1;jettySize=auto;html=1;entryX=0;entryY=0.75;entryDx=0;entryDy=0;fontSize=16;shadow=1;strokeWidth=2;" parent="1" source="TWLzpkab2mWhmV8aygny-154" target="TWLzpkab2mWhmV8aygny-151" edge="1">
          <mxGeometry relative="1" as="geometry">
            <Array as="points">
              <mxPoint x="-1190" y="2150" />
              <mxPoint x="-1190" y="2520" />
            </Array>
          </mxGeometry>
        </mxCell>
        <mxCell id="TWLzpkab2mWhmV8aygny-154" value="&lt;font style=&quot;font-size: 11px&quot;&gt;1是否重要合作事项&lt;br&gt;2.是否已存在延误&lt;/font&gt;" style="strokeWidth=2;html=1;shape=mxgraph.flowchart.decision;whiteSpace=wrap;sketch=0;shadow=1;labelBorderColor=none;fontSize=14;" parent="1" vertex="1">
          <mxGeometry x="-1120" y="2100" width="132.18" height="100" as="geometry" />
        </mxCell>
        <mxCell id="TWLzpkab2mWhmV8aygny-160" style="edgeStyle=orthogonalEdgeStyle;rounded=0;orthogonalLoop=1;jettySize=auto;html=1;entryX=0.5;entryY=0;entryDx=0;entryDy=0;fontSize=16;shadow=1;strokeWidth=2;" parent="1" source="TWLzpkab2mWhmV8aygny-156" target="TWLzpkab2mWhmV8aygny-157" edge="1">
          <mxGeometry relative="1" as="geometry" />
        </mxCell>
        <mxCell id="TWLzpkab2mWhmV8aygny-156" value="&lt;span style=&quot;font-size: 10px&quot;&gt;1.书写正式邮件，包含交付清单和完成时间&lt;/span&gt;&lt;br style=&quot;font-size: 10px&quot;&gt;&lt;span style=&quot;font-size: 10px&quot;&gt;2.发邮件给他，并抄送给他和我的领导&lt;/span&gt;" style="rounded=1;whiteSpace=wrap;html=1;absoluteArcSize=1;arcSize=14;strokeWidth=2;sketch=0;shadow=1;labelBorderColor=none;fontSize=14;fillColor=#d5e8d4;strokeColor=#82b366;" parent="1" vertex="1">
          <mxGeometry x="-1121.7199999999998" y="2230" width="135.62" height="80" as="geometry" />
        </mxCell>
        <mxCell id="TWLzpkab2mWhmV8aygny-162" style="edgeStyle=orthogonalEdgeStyle;rounded=0;orthogonalLoop=1;jettySize=auto;html=1;entryX=0.5;entryY=0;entryDx=0;entryDy=0;fontSize=16;shadow=1;strokeWidth=2;" parent="1" source="TWLzpkab2mWhmV8aygny-157" target="TWLzpkab2mWhmV8aygny-151" edge="1">
          <mxGeometry relative="1" as="geometry" />
        </mxCell>
        <mxCell id="TWLzpkab2mWhmV8aygny-157" value="&lt;font style=&quot;font-size: 13px&quot;&gt;沟通群同步上述信息&lt;/font&gt;" style="rounded=1;whiteSpace=wrap;html=1;absoluteArcSize=1;arcSize=14;strokeWidth=2;sketch=0;shadow=1;labelBorderColor=none;fontSize=14;fillColor=#d5e8d4;strokeColor=#82b366;" parent="1" vertex="1">
          <mxGeometry x="-1121.7199999999998" y="2340" width="135.62" height="80" as="geometry" />
        </mxCell>
        <mxCell id="TWLzpkab2mWhmV8aygny-165" value="&lt;p class=&quot;MsoNormal&quot; style=&quot;font-size: 21px&quot;&gt;&lt;font style=&quot;font-size: 21px&quot;&gt;交付清单模板参考&lt;span lang=&quot;EN-US&quot; style=&quot;font-family: &amp;#34;helvetica&amp;#34; , sans-serif&quot;&gt;&lt;br&gt;&lt;br&gt;&lt;/span&gt;事项&lt;span lang=&quot;EN-US&quot; style=&quot;font-family: &amp;#34;helvetica&amp;#34; , sans-serif&quot;&gt;1&lt;/span&gt;：&lt;span lang=&quot;EN-US&quot; style=&quot;font-family: &amp;#34;helvetica&amp;#34; , sans-serif&quot;&gt;&lt;/span&gt;&lt;/font&gt;&lt;/p&gt;&lt;p class=&quot;MsoListParagraph&quot; style=&quot;margin-left: 33pt ; text-indent: -18pt ; font-size: 21px&quot;&gt;&lt;font style=&quot;font-size: 21px&quot;&gt;&lt;span lang=&quot;EN-US&quot; style=&quot;font-family: &amp;#34;helvetica&amp;#34; , sans-serif&quot;&gt;1.&lt;span style=&quot;font-stretch: normal ; line-height: normal ; font-family: &amp;#34;times new roman&amp;#34;&quot;&gt;&amp;nbsp; 背景&lt;/span&gt;&lt;/span&gt;原因：&lt;span lang=&quot;EN-US&quot; style=&quot;font-family: &amp;#34;helvetica&amp;#34; , sans-serif&quot;&gt;xxx&lt;/span&gt;&lt;/font&gt;&lt;/p&gt;&lt;font style=&quot;font-size: 21px&quot;&gt;&lt;font style=&quot;font-size: 21px&quot;&gt;&lt;span lang=&quot;EN-US&quot; style=&quot;text-indent: -18pt ; font-family: &amp;#34;helvetica&amp;#34; , sans-serif&quot;&gt;&amp;nbsp; &amp;nbsp; 2.&lt;span style=&quot;font-stretch: normal ; line-height: normal ; font-family: &amp;#34;times new roman&amp;#34;&quot;&gt;&amp;nbsp; 处理&lt;/span&gt;&lt;/span&gt;&lt;span style=&quot;text-indent: -18pt&quot;&gt;方式：&lt;/span&gt;&lt;br&gt;&lt;/font&gt;&lt;font style=&quot;font-size: 21px&quot;&gt;&lt;span lang=&quot;EN-US&quot; style=&quot;text-indent: -18pt&quot;&gt;&amp;nbsp; &amp;nbsp; &amp;nbsp; &amp;nbsp; &amp;nbsp; &amp;nbsp; &amp;nbsp; &amp;nbsp; &lt;/span&gt;&lt;span lang=&quot;EN-US&quot; style=&quot;text-indent: -18pt ; font-family: &amp;#34;helvetica&amp;#34; , sans-serif&quot;&gt;1.&lt;/span&gt;&lt;span lang=&quot;EN-US&quot; style=&quot;text-indent: -18pt ; font-family: &amp;#34;helvetica&amp;#34; , sans-serif&quot;&gt;xxx&lt;/span&gt;&lt;br&gt;&lt;/font&gt;&lt;font style=&quot;font-size: 21px&quot;&gt;&lt;span lang=&quot;EN-US&quot; style=&quot;text-indent: -18pt ; font-family: &amp;#34;helvetica&amp;#34; , sans-serif&quot;&gt;&amp;nbsp; &amp;nbsp; &amp;nbsp; &amp;nbsp; &amp;nbsp; &amp;nbsp; &amp;nbsp; &amp;nbsp; 2.&lt;span style=&quot;font-stretch: normal ; line-height: normal ; font-family: &amp;#34;times new roman&amp;#34;&quot;&gt;&amp;nbsp;&lt;/span&gt;&lt;/span&gt;&lt;span lang=&quot;EN-US&quot; style=&quot;text-indent: -18pt ; font-family: &amp;#34;helvetica&amp;#34; , sans-serif&quot;&gt;…&lt;/span&gt;&lt;br&gt;&lt;/font&gt;&lt;/font&gt;&lt;p class=&quot;MsoListParagraph&quot; style=&quot;margin-left: 33pt ; text-indent: -18pt ; font-size: 21px&quot;&gt;&lt;font style=&quot;font-size: 21px&quot;&gt;&lt;span lang=&quot;EN-US&quot; style=&quot;font-family: &amp;#34;helvetica&amp;#34; , sans-serif&quot;&gt;3.&lt;span style=&quot;font-stretch: normal ; line-height: normal ; font-family: &amp;#34;times new roman&amp;#34;&quot;&gt;&amp;nbsp;&amp;nbsp;&lt;/span&gt;&lt;/span&gt;时间：&lt;/font&gt;&lt;/p&gt;&lt;p class=&quot;MsoListParagraph&quot; style=&quot;margin-left: 33pt ; text-indent: -18pt ; font-size: 21px&quot;&gt;&lt;font style=&quot;font-size: 21px&quot;&gt;&lt;span lang=&quot;EN-US&quot; style=&quot;text-indent: -18pt&quot;&gt;&amp;nbsp; &amp;nbsp; &amp;nbsp; &amp;nbsp; &amp;nbsp; &amp;nbsp;&lt;/span&gt;&lt;span lang=&quot;EN-US&quot; style=&quot;text-indent: -18pt ; font-family: &amp;#34;helvetica&amp;#34; , sans-serif&quot;&gt;1.&lt;/span&gt;&lt;span style=&quot;text-indent: -18pt&quot;&gt;时间&lt;/span&gt;&lt;span style=&quot;text-indent: -18pt ; font-family: &amp;#34;helvetica&amp;#34; , sans-serif&quot;&gt; &lt;span lang=&quot;EN-US&quot;&gt;xx&lt;/span&gt;&lt;/span&gt;&lt;span style=&quot;text-indent: -18pt&quot;&gt;年&lt;/span&gt;&lt;span lang=&quot;EN-US&quot; style=&quot;text-indent: -18pt ; font-family: &amp;#34;helvetica&amp;#34; , sans-serif&quot;&gt;xx&lt;/span&gt;&lt;span style=&quot;text-indent: -18pt&quot;&gt;月&lt;/span&gt;&lt;span lang=&quot;EN-US&quot; style=&quot;text-indent: -18pt ; font-family: &amp;#34;helvetica&amp;#34; , sans-serif&quot;&gt;xx&lt;/span&gt;&lt;span style=&quot;text-indent: -18pt&quot;&gt;日&lt;/span&gt;&lt;span style=&quot;text-indent: -18pt ; font-family: &amp;#34;helvetica&amp;#34; , sans-serif&quot;&gt; &lt;span lang=&quot;EN-US&quot;&gt;xx&lt;/span&gt;&lt;/span&gt;&lt;span style=&quot;text-indent: -18pt&quot;&gt;时间&lt;/span&gt;&lt;span style=&quot;text-indent: -18pt ; font-family: &amp;#34;helvetica&amp;#34; , sans-serif&quot;&gt; &lt;/span&gt;&lt;span style=&quot;text-indent: -18pt&quot;&gt;需要完成（达到）&lt;/span&gt;&lt;span lang=&quot;EN-US&quot; style=&quot;text-indent: -18pt ; font-family: &amp;#34;helvetica&amp;#34; , sans-serif&quot;&gt;xxx&lt;/span&gt;&lt;/font&gt;&lt;/p&gt;&lt;p class=&quot;MsoListParagraph&quot; style=&quot;margin-left: 33pt ; text-indent: -18pt ; font-size: 21px&quot;&gt;&lt;font style=&quot;font-size: 21px&quot;&gt;&lt;span lang=&quot;EN-US&quot; style=&quot;text-indent: -18pt ; font-family: &amp;#34;helvetica&amp;#34; , sans-serif&quot;&gt;&amp;nbsp; &amp;nbsp; &amp;nbsp; &amp;nbsp; &amp;nbsp; &amp;nbsp;2.&lt;/span&gt;&lt;span style=&quot;text-indent: -18pt&quot;&gt;时间&lt;/span&gt;&lt;span style=&quot;text-indent: -18pt ; font-family: &amp;#34;helvetica&amp;#34; , sans-serif&quot;&gt; &lt;span lang=&quot;EN-US&quot;&gt;xx&lt;/span&gt;&lt;/span&gt;&lt;span style=&quot;text-indent: -18pt&quot;&gt;年&lt;/span&gt;&lt;span lang=&quot;EN-US&quot; style=&quot;text-indent: -18pt ; font-family: &amp;#34;helvetica&amp;#34; , sans-serif&quot;&gt;xx&lt;/span&gt;&lt;span style=&quot;text-indent: -18pt&quot;&gt;月&lt;/span&gt;&lt;span lang=&quot;EN-US&quot; style=&quot;text-indent: -18pt ; font-family: &amp;#34;helvetica&amp;#34; , sans-serif&quot;&gt;xx&lt;/span&gt;&lt;span style=&quot;text-indent: -18pt&quot;&gt;日&lt;/span&gt;&lt;span style=&quot;text-indent: -18pt ; font-family: &amp;#34;helvetica&amp;#34; , sans-serif&quot;&gt; &lt;span lang=&quot;EN-US&quot;&gt;xx&lt;/span&gt;&lt;/span&gt;&lt;span style=&quot;text-indent: -18pt&quot;&gt;时间&lt;/span&gt;&lt;span style=&quot;text-indent: -18pt ; font-family: &amp;#34;helvetica&amp;#34; , sans-serif&quot;&gt; &lt;/span&gt;&lt;span style=&quot;text-indent: -18pt&quot;&gt;需要完成（达到）&lt;/span&gt;&lt;span lang=&quot;EN-US&quot; style=&quot;text-indent: -18pt ; font-family: &amp;#34;helvetica&amp;#34; , sans-serif&quot;&gt;xxx&lt;/span&gt;&lt;/font&gt;&lt;/p&gt;&lt;p class=&quot;MsoListParagraph&quot; style=&quot;margin-left: 33pt ; text-indent: -18pt ; font-size: 21px&quot;&gt;&lt;font style=&quot;font-size: 21px&quot;&gt;&lt;span lang=&quot;EN-US&quot; style=&quot;text-indent: -18pt ; font-family: &amp;#34;helvetica&amp;#34; , sans-serif&quot;&gt;4.当前状况：&lt;/span&gt;&lt;/font&gt;&lt;/p&gt;&lt;p class=&quot;MsoListParagraph&quot; style=&quot;margin-left: 33pt ; text-indent: -18pt ; font-size: 21px&quot;&gt;&lt;font style=&quot;font-size: 21px&quot;&gt;&lt;span lang=&quot;EN-US&quot; style=&quot;text-indent: -18pt ; font-family: &amp;#34;helvetica&amp;#34; , sans-serif&quot;&gt;&amp;nbsp; &amp;nbsp; &amp;nbsp; &amp;nbsp; &amp;nbsp; &amp;nbsp;1.xxx&lt;/span&gt;&lt;/font&gt;&lt;/p&gt;&lt;p class=&quot;MsoListParagraph&quot; style=&quot;margin-left: 33pt ; text-indent: -18pt ; font-size: 21px&quot;&gt;&lt;font style=&quot;font-size: 21px&quot;&gt;&lt;span lang=&quot;EN-US&quot; style=&quot;text-indent: -18pt ; font-family: &amp;#34;helvetica&amp;#34; , sans-serif&quot;&gt;&amp;nbsp; &amp;nbsp; &amp;nbsp; &amp;nbsp; &amp;nbsp; &amp;nbsp;2.xxx&lt;/span&gt;&lt;/font&gt;&lt;/p&gt;&lt;font style=&quot;font-size: 21px&quot;&gt;&lt;font style=&quot;font-size: 21px&quot;&gt;&lt;span lang=&quot;EN-US&quot; style=&quot;text-indent: -18pt ; font-family: &amp;#34;helvetica&amp;#34; , sans-serif&quot;&gt;&amp;nbsp; &amp;nbsp; 5.&lt;span style=&quot;font-stretch: normal ; line-height: normal ; font-family: &amp;#34;times new roman&amp;#34;&quot;&gt;&amp;nbsp;&lt;/span&gt;&lt;/span&gt;&lt;span style=&quot;text-indent: -18pt&quot;&gt;延误原因：&lt;/span&gt;&lt;br&gt;&lt;/font&gt;&lt;font style=&quot;font-size: 21px&quot;&gt;&lt;span lang=&quot;EN-US&quot; style=&quot;text-indent: -18pt ; font-family: &amp;#34;helvetica&amp;#34; , sans-serif&quot;&gt;&lt;font style=&quot;font-size: 21px&quot;&gt;&amp;nbsp; &amp;nbsp; &amp;nbsp; &amp;nbsp; &amp;nbsp; &amp;nbsp; &amp;nbsp; &amp;nbsp; 1.&lt;span style=&quot;font-stretch: normal ; line-height: normal ; font-family: &amp;#34;times new roman&amp;#34;&quot;&gt;&amp;nbsp;&lt;/span&gt;&lt;/font&gt;&lt;/span&gt;&lt;span lang=&quot;EN-US&quot; style=&quot;text-indent: -18pt ; font-family: &amp;#34;helvetica&amp;#34; , sans-serif&quot;&gt;&lt;font style=&quot;font-size: 21px&quot;&gt;xxx&lt;br&gt;&lt;span lang=&quot;EN-US&quot; style=&quot;text-indent: -18pt&quot;&gt;&amp;nbsp; &amp;nbsp; &amp;nbsp; &amp;nbsp; &amp;nbsp; &amp;nbsp; &amp;nbsp; &amp;nbsp; 2.&lt;span style=&quot;font-stretch: normal ; line-height: normal ; font-family: &amp;#34;times new roman&amp;#34;&quot;&gt;&amp;nbsp;&lt;/span&gt;&lt;/span&gt;&lt;span lang=&quot;EN-US&quot; style=&quot;text-indent: -18pt&quot;&gt;xxx&lt;/span&gt;&lt;/font&gt;&lt;br&gt;&lt;/span&gt;&lt;/font&gt;&lt;/font&gt;" style="text;html=1;strokeColor=none;fillColor=none;align=left;verticalAlign=middle;whiteSpace=wrap;rounded=0;shadow=1;fontSize=13;" parent="1" vertex="1">
          <mxGeometry x="-1680" y="1050" width="640" height="660" as="geometry" />
        </mxCell>
        <mxCell id="TWLzpkab2mWhmV8aygny-167" value="" style="verticalLabelPosition=bottom;verticalAlign=top;html=1;strokeWidth=2;shape=mxgraph.arrows2.arrow;dy=0.6;dx=40;notch=0;shadow=1;fontSize=13;" parent="1" vertex="1">
          <mxGeometry x="-6100" y="775" width="2320" height="70" as="geometry" />
        </mxCell>
        <mxCell id="TWLzpkab2mWhmV8aygny-209" style="edgeStyle=orthogonalEdgeStyle;rounded=0;orthogonalLoop=1;jettySize=auto;html=1;entryX=0;entryY=0.5;entryDx=0;entryDy=0;shadow=1;fontSize=13;strokeWidth=2;" parent="1" source="TWLzpkab2mWhmV8aygny-171" target="TWLzpkab2mWhmV8aygny-172" edge="1">
          <mxGeometry relative="1" as="geometry" />
        </mxCell>
        <mxCell id="TWLzpkab2mWhmV8aygny-171" value="需求初审" style="rounded=1;whiteSpace=wrap;html=1;absoluteArcSize=1;arcSize=14;strokeWidth=2;sketch=0;shadow=1;labelBorderColor=none;fontSize=13;fillColor=#f8cecc;strokeColor=#b85450;" parent="1" vertex="1">
          <mxGeometry x="-6100" y="895" width="135.62" height="80" as="geometry" />
        </mxCell>
        <mxCell id="TWLzpkab2mWhmV8aygny-207" value="" style="edgeStyle=orthogonalEdgeStyle;rounded=0;orthogonalLoop=1;jettySize=auto;html=1;shadow=1;fontSize=13;strokeWidth=2;" parent="1" source="TWLzpkab2mWhmV8aygny-172" target="TWLzpkab2mWhmV8aygny-174" edge="1">
          <mxGeometry relative="1" as="geometry" />
        </mxCell>
        <mxCell id="TWLzpkab2mWhmV8aygny-208" value="反馈实现难点" style="edgeLabel;html=1;align=center;verticalAlign=middle;resizable=0;points=[];fontSize=13;" parent="TWLzpkab2mWhmV8aygny-207" vertex="1" connectable="0">
          <mxGeometry x="-0.1429" y="3" relative="1" as="geometry">
            <mxPoint as="offset" />
          </mxGeometry>
        </mxCell>
        <mxCell id="TWLzpkab2mWhmV8aygny-210" value="" style="edgeStyle=orthogonalEdgeStyle;rounded=0;orthogonalLoop=1;jettySize=auto;html=1;shadow=1;fontSize=13;strokeWidth=2;" parent="1" source="TWLzpkab2mWhmV8aygny-172" target="TWLzpkab2mWhmV8aygny-173" edge="1">
          <mxGeometry relative="1" as="geometry" />
        </mxCell>
        <mxCell id="TWLzpkab2mWhmV8aygny-172" value="需求整理" style="rounded=1;whiteSpace=wrap;html=1;absoluteArcSize=1;arcSize=14;strokeWidth=2;sketch=0;shadow=1;labelBorderColor=none;fontSize=13;fillColor=#f8cecc;strokeColor=#b85450;" parent="1" vertex="1">
          <mxGeometry x="-5885.62" y="895" width="135.62" height="80" as="geometry" />
        </mxCell>
        <mxCell id="TWLzpkab2mWhmV8aygny-173" value="需求终审" style="rounded=1;whiteSpace=wrap;html=1;absoluteArcSize=1;arcSize=14;strokeWidth=2;sketch=0;shadow=1;labelBorderColor=none;fontSize=13;fillColor=#f8cecc;strokeColor=#b85450;" parent="1" vertex="1">
          <mxGeometry x="-5665.62" y="895" width="135.62" height="80" as="geometry" />
        </mxCell>
        <mxCell id="TWLzpkab2mWhmV8aygny-211" style="edgeStyle=orthogonalEdgeStyle;rounded=0;orthogonalLoop=1;jettySize=auto;html=1;entryX=0;entryY=0.5;entryDx=0;entryDy=0;shadow=1;fontSize=13;strokeWidth=2;" parent="1" source="TWLzpkab2mWhmV8aygny-174" target="TWLzpkab2mWhmV8aygny-178" edge="1">
          <mxGeometry relative="1" as="geometry" />
        </mxCell>
        <mxCell id="TWLzpkab2mWhmV8aygny-174" value="技术方案整理" style="rounded=1;whiteSpace=wrap;html=1;absoluteArcSize=1;arcSize=14;strokeWidth=2;sketch=0;shadow=1;labelBorderColor=none;fontSize=13;fillColor=#dae8fc;strokeColor=#6c8ebf;" parent="1" vertex="1">
          <mxGeometry x="-5964.38" y="1045" width="438.76" height="80" as="geometry" />
        </mxCell>
        <mxCell id="TWLzpkab2mWhmV8aygny-212" value="" style="edgeStyle=orthogonalEdgeStyle;rounded=0;orthogonalLoop=1;jettySize=auto;html=1;shadow=1;fontSize=13;strokeWidth=2;" parent="1" source="TWLzpkab2mWhmV8aygny-178" target="TWLzpkab2mWhmV8aygny-179" edge="1">
          <mxGeometry relative="1" as="geometry" />
        </mxCell>
        <mxCell id="TWLzpkab2mWhmV8aygny-178" value="技术方案评审" style="rounded=1;whiteSpace=wrap;html=1;absoluteArcSize=1;arcSize=14;strokeWidth=2;sketch=0;shadow=1;labelBorderColor=none;fontSize=13;fillColor=#dae8fc;strokeColor=#6c8ebf;" parent="1" vertex="1">
          <mxGeometry x="-5445.62" y="1045" width="135.62" height="80" as="geometry" />
        </mxCell>
        <mxCell id="TWLzpkab2mWhmV8aygny-213" value="" style="edgeStyle=orthogonalEdgeStyle;rounded=0;orthogonalLoop=1;jettySize=auto;html=1;shadow=1;fontSize=13;strokeWidth=2;" parent="1" source="TWLzpkab2mWhmV8aygny-179" target="TWLzpkab2mWhmV8aygny-180" edge="1">
          <mxGeometry relative="1" as="geometry" />
        </mxCell>
        <mxCell id="TWLzpkab2mWhmV8aygny-179" value="约定交付时间" style="rounded=1;whiteSpace=wrap;html=1;absoluteArcSize=1;arcSize=14;strokeWidth=2;sketch=0;shadow=1;labelBorderColor=none;fontSize=13;fillColor=#dae8fc;strokeColor=#6c8ebf;" parent="1" vertex="1">
          <mxGeometry x="-5265.62" y="1045" width="135.62" height="80" as="geometry" />
        </mxCell>
        <mxCell id="TWLzpkab2mWhmV8aygny-214" value="" style="edgeStyle=orthogonalEdgeStyle;rounded=0;orthogonalLoop=1;jettySize=auto;html=1;shadow=1;fontSize=13;strokeWidth=2;" parent="1" source="TWLzpkab2mWhmV8aygny-180" target="TWLzpkab2mWhmV8aygny-181" edge="1">
          <mxGeometry relative="1" as="geometry" />
        </mxCell>
        <mxCell id="TWLzpkab2mWhmV8aygny-180" value="1.拆分功能子模块&lt;br&gt;2.约定完成时间&lt;br&gt;3.约定负责人" style="rounded=1;whiteSpace=wrap;html=1;absoluteArcSize=1;arcSize=14;strokeWidth=2;sketch=0;shadow=1;labelBorderColor=none;fontSize=13;fillColor=#dae8fc;strokeColor=#6c8ebf;" parent="1" vertex="1">
          <mxGeometry x="-5075.62" y="1045" width="135.62" height="80" as="geometry" />
        </mxCell>
        <mxCell id="TWLzpkab2mWhmV8aygny-215" value="" style="edgeStyle=orthogonalEdgeStyle;rounded=0;orthogonalLoop=1;jettySize=auto;html=1;shadow=1;fontSize=13;strokeWidth=2;" parent="1" source="TWLzpkab2mWhmV8aygny-181" target="TWLzpkab2mWhmV8aygny-182" edge="1">
          <mxGeometry relative="1" as="geometry" />
        </mxCell>
        <mxCell id="TWLzpkab2mWhmV8aygny-181" value="进入研发阶段" style="rounded=1;whiteSpace=wrap;html=1;absoluteArcSize=1;arcSize=14;strokeWidth=2;sketch=0;shadow=1;labelBorderColor=none;fontSize=13;fillColor=#dae8fc;strokeColor=#6c8ebf;" parent="1" vertex="1">
          <mxGeometry x="-4885.62" y="1045" width="275.62" height="80" as="geometry" />
        </mxCell>
        <mxCell id="TWLzpkab2mWhmV8aygny-216" value="" style="edgeStyle=orthogonalEdgeStyle;rounded=0;orthogonalLoop=1;jettySize=auto;html=1;shadow=1;fontSize=13;strokeWidth=2;" parent="1" source="TWLzpkab2mWhmV8aygny-182" target="TWLzpkab2mWhmV8aygny-183" edge="1">
          <mxGeometry relative="1" as="geometry" />
        </mxCell>
        <mxCell id="TWLzpkab2mWhmV8aygny-182" value="测试验收" style="rounded=1;whiteSpace=wrap;html=1;absoluteArcSize=1;arcSize=14;strokeWidth=2;sketch=0;shadow=1;labelBorderColor=none;fontSize=13;fillColor=#dae8fc;strokeColor=#6c8ebf;" parent="1" vertex="1">
          <mxGeometry x="-4510" y="1045" width="140" height="80" as="geometry" />
        </mxCell>
        <mxCell id="TWLzpkab2mWhmV8aygny-218" style="edgeStyle=orthogonalEdgeStyle;rounded=0;orthogonalLoop=1;jettySize=auto;html=1;entryX=0;entryY=0.5;entryDx=0;entryDy=0;shadow=1;fontSize=13;strokeWidth=2;" parent="1" source="TWLzpkab2mWhmV8aygny-183" target="TWLzpkab2mWhmV8aygny-184" edge="1">
          <mxGeometry relative="1" as="geometry" />
        </mxCell>
        <mxCell id="TWLzpkab2mWhmV8aygny-183" value="上线" style="rounded=1;whiteSpace=wrap;html=1;absoluteArcSize=1;arcSize=14;strokeWidth=2;sketch=0;shadow=1;labelBorderColor=none;fontSize=13;fillColor=#dae8fc;strokeColor=#6c8ebf;" parent="1" vertex="1">
          <mxGeometry x="-4305.62" y="1045" width="135.62" height="80" as="geometry" />
        </mxCell>
        <mxCell id="TWLzpkab2mWhmV8aygny-219" value="" style="edgeStyle=orthogonalEdgeStyle;rounded=0;orthogonalLoop=1;jettySize=auto;html=1;shadow=1;fontSize=13;strokeWidth=2;" parent="1" source="TWLzpkab2mWhmV8aygny-184" target="TWLzpkab2mWhmV8aygny-185" edge="1">
          <mxGeometry relative="1" as="geometry" />
        </mxCell>
        <mxCell id="TWLzpkab2mWhmV8aygny-184" value="运营推广" style="rounded=1;whiteSpace=wrap;html=1;absoluteArcSize=1;arcSize=14;strokeWidth=2;sketch=0;shadow=1;labelBorderColor=none;fontSize=13;fillColor=#fff2cc;strokeColor=#d6b656;" parent="1" vertex="1">
          <mxGeometry x="-4105.62" y="1165" width="135.62" height="80" as="geometry" />
        </mxCell>
        <mxCell id="TWLzpkab2mWhmV8aygny-185" value="反馈收集" style="rounded=1;whiteSpace=wrap;html=1;absoluteArcSize=1;arcSize=14;strokeWidth=2;sketch=0;shadow=1;labelBorderColor=none;fontSize=13;fillColor=#fff2cc;strokeColor=#d6b656;" parent="1" vertex="1">
          <mxGeometry x="-3915.62" y="1165" width="135.62" height="80" as="geometry" />
        </mxCell>
        <mxCell id="TWLzpkab2mWhmV8aygny-186" value="" style="rounded=0;whiteSpace=wrap;html=1;shadow=1;fontSize=13;strokeWidth=2;" parent="1" vertex="1">
          <mxGeometry x="-6100" y="1255" width="610" height="405" as="geometry" />
        </mxCell>
        <mxCell id="TWLzpkab2mWhmV8aygny-187" value="项目背景说明" style="rounded=1;whiteSpace=wrap;html=1;absoluteArcSize=1;arcSize=14;strokeWidth=2;sketch=0;shadow=1;labelBorderColor=none;fontSize=13;fillColor=#f8cecc;strokeColor=#b85450;" parent="1" vertex="1">
          <mxGeometry x="-6060" y="1280" width="135.62" height="80" as="geometry" />
        </mxCell>
        <mxCell id="TWLzpkab2mWhmV8aygny-188" value="长短期收益和规划" style="rounded=1;whiteSpace=wrap;html=1;absoluteArcSize=1;arcSize=14;strokeWidth=2;sketch=0;shadow=1;labelBorderColor=none;fontSize=13;fillColor=#f8cecc;strokeColor=#b85450;" parent="1" vertex="1">
          <mxGeometry x="-5690" y="1280" width="135.62" height="80" as="geometry" />
        </mxCell>
        <mxCell id="TWLzpkab2mWhmV8aygny-189" value="为什么要这么做" style="rounded=1;whiteSpace=wrap;html=1;absoluteArcSize=1;arcSize=14;strokeWidth=2;sketch=0;shadow=1;labelBorderColor=none;fontSize=13;fillColor=#f8cecc;strokeColor=#b85450;" parent="1" vertex="1">
          <mxGeometry x="-5880" y="1280" width="135.62" height="80" as="geometry" />
        </mxCell>
        <mxCell id="TWLzpkab2mWhmV8aygny-190" value="原型图" style="rounded=1;whiteSpace=wrap;html=1;absoluteArcSize=1;arcSize=14;strokeWidth=2;sketch=0;shadow=1;labelBorderColor=none;fontSize=13;" parent="1" vertex="1">
          <mxGeometry x="-6060" y="1530" width="135.62" height="80" as="geometry" />
        </mxCell>
        <mxCell id="TWLzpkab2mWhmV8aygny-191" value="流程图" style="rounded=1;whiteSpace=wrap;html=1;absoluteArcSize=1;arcSize=14;strokeWidth=2;sketch=0;shadow=1;labelBorderColor=none;fontSize=13;" parent="1" vertex="1">
          <mxGeometry x="-5690" y="1530" width="135.62" height="80" as="geometry" />
        </mxCell>
        <mxCell id="TWLzpkab2mWhmV8aygny-192" value="遇到难点&lt;br&gt;包括不限于技术和非技术难点" style="rounded=1;whiteSpace=wrap;html=1;absoluteArcSize=1;arcSize=14;strokeWidth=2;sketch=0;shadow=1;labelBorderColor=none;fontSize=13;fillColor=#d5e8d4;strokeColor=#82b366;" parent="1" vertex="1">
          <mxGeometry x="-6060" y="1410" width="135.62" height="80" as="geometry" />
        </mxCell>
        <mxCell id="TWLzpkab2mWhmV8aygny-193" value="交互图" style="rounded=1;whiteSpace=wrap;html=1;absoluteArcSize=1;arcSize=14;strokeWidth=2;sketch=0;shadow=1;labelBorderColor=none;fontSize=13;" parent="1" vertex="1">
          <mxGeometry x="-5880" y="1530" width="135.62" height="80" as="geometry" />
        </mxCell>
        <mxCell id="TWLzpkab2mWhmV8aygny-196" value="具体的数据格式" style="rounded=1;whiteSpace=wrap;html=1;absoluteArcSize=1;arcSize=14;strokeWidth=2;sketch=0;shadow=1;labelBorderColor=none;fontSize=13;fillColor=#d5e8d4;strokeColor=#82b366;" parent="1" vertex="1">
          <mxGeometry x="-5880" y="1410" width="135.62" height="80" as="geometry" />
        </mxCell>
        <mxCell id="TWLzpkab2mWhmV8aygny-197" value="数据量和流量有多大" style="rounded=1;whiteSpace=wrap;html=1;absoluteArcSize=1;arcSize=14;strokeWidth=2;sketch=0;shadow=1;labelBorderColor=none;fontSize=13;fillColor=#d5e8d4;strokeColor=#82b366;" parent="1" vertex="1">
          <mxGeometry x="-5690" y="1410" width="135.62" height="80" as="geometry" />
        </mxCell>
        <mxCell id="TWLzpkab2mWhmV8aygny-198" value="" style="rounded=0;whiteSpace=wrap;html=1;shadow=1;fontSize=13;strokeWidth=2;" parent="1" vertex="1">
          <mxGeometry x="-5365.62" y="1255" width="610" height="405" as="geometry" />
        </mxCell>
        <mxCell id="TWLzpkab2mWhmV8aygny-201" value="技术方案说明" style="rounded=1;whiteSpace=wrap;html=1;absoluteArcSize=1;arcSize=14;strokeWidth=2;sketch=0;shadow=1;labelBorderColor=none;fontSize=13;fillColor=#dae8fc;strokeColor=#6c8ebf;" parent="1" vertex="1">
          <mxGeometry x="-5315.62" y="1280" width="135.62" height="80" as="geometry" />
        </mxCell>
        <mxCell id="TWLzpkab2mWhmV8aygny-203" value="架构图" style="rounded=1;whiteSpace=wrap;html=1;absoluteArcSize=1;arcSize=14;strokeWidth=2;sketch=0;shadow=1;labelBorderColor=none;fontSize=13;fillColor=#dae8fc;strokeColor=#6c8ebf;" parent="1" vertex="1">
          <mxGeometry x="-5128.43" y="1280" width="135.62" height="80" as="geometry" />
        </mxCell>
        <mxCell id="TWLzpkab2mWhmV8aygny-204" value="流程图" style="rounded=1;whiteSpace=wrap;html=1;absoluteArcSize=1;arcSize=14;strokeWidth=2;sketch=0;shadow=1;labelBorderColor=none;fontSize=13;fillColor=#dae8fc;strokeColor=#6c8ebf;" parent="1" vertex="1">
          <mxGeometry x="-4940" y="1280" width="135.62" height="80" as="geometry" />
        </mxCell>
        <mxCell id="TWLzpkab2mWhmV8aygny-205" value="demo演示" style="rounded=1;whiteSpace=wrap;html=1;absoluteArcSize=1;arcSize=14;strokeWidth=2;sketch=0;shadow=1;labelBorderColor=none;fontSize=13;fillColor=#d5e8d4;strokeColor=#82b366;" parent="1" vertex="1">
          <mxGeometry x="-5315.62" y="1417.5" width="135.62" height="80" as="geometry" />
        </mxCell>
        <mxCell id="aJYbTye1nBKDN_QsSNJZ-3" value="&lt;font style=&quot;font-size: 13px&quot;&gt;外部合作事项&lt;/font&gt;" style="ellipse;whiteSpace=wrap;html=1;fillColor=#fff2cc;strokeColor=#d6b656;" parent="1" vertex="1">
          <mxGeometry x="-757.6600000000001" y="620" width="120" height="80" as="geometry" />
        </mxCell>
        <mxCell id="7L4xcxNV9Kzc51e2U8hK-22" style="edgeStyle=orthogonalEdgeStyle;rounded=0;orthogonalLoop=1;jettySize=auto;html=1;entryX=0.5;entryY=0;entryDx=0;entryDy=0;entryPerimeter=0;" parent="1" source="7L4xcxNV9Kzc51e2U8hK-1" target="7L4xcxNV9Kzc51e2U8hK-2" edge="1">
          <mxGeometry relative="1" as="geometry" />
        </mxCell>
        <mxCell id="7L4xcxNV9Kzc51e2U8hK-1" value="&lt;font style=&quot;font-size: 13px&quot;&gt;TAPD&lt;/font&gt;" style="ellipse;whiteSpace=wrap;html=1;fillColor=#fff2cc;strokeColor=#d6b656;" parent="1" vertex="1">
          <mxGeometry x="-2640" y="580" width="120" height="80" as="geometry" />
        </mxCell>
        <mxCell id="7L4xcxNV9Kzc51e2U8hK-23" value="" style="edgeStyle=orthogonalEdgeStyle;rounded=0;orthogonalLoop=1;jettySize=auto;html=1;" parent="1" source="7L4xcxNV9Kzc51e2U8hK-2" target="7L4xcxNV9Kzc51e2U8hK-3" edge="1">
          <mxGeometry relative="1" as="geometry" />
        </mxCell>
        <mxCell id="7L4xcxNV9Kzc51e2U8hK-32" style="edgeStyle=orthogonalEdgeStyle;rounded=0;orthogonalLoop=1;jettySize=auto;html=1;entryX=0;entryY=0.5;entryDx=0;entryDy=0;entryPerimeter=0;" parent="1" source="7L4xcxNV9Kzc51e2U8hK-2" target="7L4xcxNV9Kzc51e2U8hK-12" edge="1">
          <mxGeometry relative="1" as="geometry" />
        </mxCell>
        <mxCell id="7L4xcxNV9Kzc51e2U8hK-38" style="edgeStyle=orthogonalEdgeStyle;rounded=0;orthogonalLoop=1;jettySize=auto;html=1;entryX=1;entryY=0.5;entryDx=0;entryDy=0;entryPerimeter=0;" parent="1" source="7L4xcxNV9Kzc51e2U8hK-2" target="7L4xcxNV9Kzc51e2U8hK-11" edge="1">
          <mxGeometry relative="1" as="geometry" />
        </mxCell>
        <mxCell id="7L4xcxNV9Kzc51e2U8hK-2" value="&lt;font style=&quot;font-size: 11px&quot;&gt;1.是否新项目&lt;br&gt;2.是否大版本迭代&lt;/font&gt;" style="strokeWidth=2;html=1;shape=mxgraph.flowchart.decision;whiteSpace=wrap;sketch=0;shadow=1;labelBorderColor=none;fontSize=14;" parent="1" vertex="1">
          <mxGeometry x="-2646.09" y="720" width="132.18" height="100" as="geometry" />
        </mxCell>
        <mxCell id="7L4xcxNV9Kzc51e2U8hK-24" style="edgeStyle=orthogonalEdgeStyle;rounded=0;orthogonalLoop=1;jettySize=auto;html=1;entryX=0.5;entryY=0;entryDx=0;entryDy=0;" parent="1" source="7L4xcxNV9Kzc51e2U8hK-3" target="7L4xcxNV9Kzc51e2U8hK-4" edge="1">
          <mxGeometry relative="1" as="geometry" />
        </mxCell>
        <mxCell id="7L4xcxNV9Kzc51e2U8hK-3" value="&lt;span style=&quot;font-size: 13px&quot;&gt;创建迭代&lt;/span&gt;" style="rounded=1;whiteSpace=wrap;html=1;absoluteArcSize=1;arcSize=14;strokeWidth=2;sketch=0;shadow=1;labelBorderColor=none;fontSize=14;" parent="1" vertex="1">
          <mxGeometry x="-2647.8100000000004" y="880" width="135.62" height="80" as="geometry" />
        </mxCell>
        <mxCell id="7L4xcxNV9Kzc51e2U8hK-25" style="edgeStyle=orthogonalEdgeStyle;rounded=0;orthogonalLoop=1;jettySize=auto;html=1;entryX=0.5;entryY=0;entryDx=0;entryDy=0;" parent="1" source="7L4xcxNV9Kzc51e2U8hK-4" target="7L4xcxNV9Kzc51e2U8hK-14" edge="1">
          <mxGeometry relative="1" as="geometry" />
        </mxCell>
        <mxCell id="7L4xcxNV9Kzc51e2U8hK-4" value="&lt;span style=&quot;font-size: 12px&quot;&gt;创建需求&lt;br&gt;&lt;/span&gt;" style="rounded=1;whiteSpace=wrap;html=1;absoluteArcSize=1;arcSize=14;strokeWidth=2;sketch=0;shadow=1;labelBorderColor=none;fontSize=14;" parent="1" vertex="1">
          <mxGeometry x="-2647.8099999999995" y="1010" width="135.62" height="80" as="geometry" />
        </mxCell>
        <mxCell id="7L4xcxNV9Kzc51e2U8hK-29" style="edgeStyle=orthogonalEdgeStyle;rounded=0;orthogonalLoop=1;jettySize=auto;html=1;entryX=0.5;entryY=0;entryDx=0;entryDy=0;" parent="1" source="7L4xcxNV9Kzc51e2U8hK-6" target="7L4xcxNV9Kzc51e2U8hK-7" edge="1">
          <mxGeometry relative="1" as="geometry" />
        </mxCell>
        <mxCell id="7L4xcxNV9Kzc51e2U8hK-6" value="&lt;span style=&quot;font-size: 13px&quot;&gt;创建开发分支&lt;/span&gt;" style="rounded=1;whiteSpace=wrap;html=1;absoluteArcSize=1;arcSize=14;strokeWidth=2;sketch=0;shadow=1;labelBorderColor=none;fontSize=14;" parent="1" vertex="1">
          <mxGeometry x="-2647.8100000000004" y="1265" width="135.62" height="80" as="geometry" />
        </mxCell>
        <mxCell id="7L4xcxNV9Kzc51e2U8hK-30" style="edgeStyle=orthogonalEdgeStyle;rounded=0;orthogonalLoop=1;jettySize=auto;html=1;entryX=0.5;entryY=0;entryDx=0;entryDy=0;" parent="1" source="7L4xcxNV9Kzc51e2U8hK-7" target="7L4xcxNV9Kzc51e2U8hK-8" edge="1">
          <mxGeometry relative="1" as="geometry" />
        </mxCell>
        <mxCell id="7L4xcxNV9Kzc51e2U8hK-7" value="&lt;span style=&quot;font-size: 13px&quot;&gt;开发测试验收&lt;/span&gt;" style="rounded=1;whiteSpace=wrap;html=1;absoluteArcSize=1;arcSize=14;strokeWidth=2;sketch=0;shadow=1;labelBorderColor=none;fontSize=14;" parent="1" vertex="1">
          <mxGeometry x="-2647.8100000000004" y="1390" width="135.62" height="80" as="geometry" />
        </mxCell>
        <mxCell id="7L4xcxNV9Kzc51e2U8hK-31" style="edgeStyle=orthogonalEdgeStyle;rounded=0;orthogonalLoop=1;jettySize=auto;html=1;entryX=0.5;entryY=0;entryDx=0;entryDy=0;" parent="1" source="7L4xcxNV9Kzc51e2U8hK-8" target="7L4xcxNV9Kzc51e2U8hK-10" edge="1">
          <mxGeometry relative="1" as="geometry" />
        </mxCell>
        <mxCell id="7L4xcxNV9Kzc51e2U8hK-8" value="&lt;span style=&quot;font-size: 13px&quot;&gt;1.CR&lt;br&gt;2.MR&lt;br&gt;&lt;/span&gt;" style="rounded=1;whiteSpace=wrap;html=1;absoluteArcSize=1;arcSize=14;strokeWidth=2;sketch=0;shadow=1;labelBorderColor=none;fontSize=14;" parent="1" vertex="1">
          <mxGeometry x="-2647.8100000000004" y="1517.5" width="135.62" height="80" as="geometry" />
        </mxCell>
        <mxCell id="7L4xcxNV9Kzc51e2U8hK-10" value="&lt;span style=&quot;font-size: 13px&quot;&gt;打包部署上线&lt;br&gt;&lt;/span&gt;" style="rounded=1;whiteSpace=wrap;html=1;absoluteArcSize=1;arcSize=14;strokeWidth=2;sketch=0;shadow=1;labelBorderColor=none;fontSize=14;fillColor=#d5e8d4;strokeColor=#82b366;" parent="1" vertex="1">
          <mxGeometry x="-2647.8100000000004" y="1640" width="135.62" height="80" as="geometry" />
        </mxCell>
        <mxCell id="7L4xcxNV9Kzc51e2U8hK-39" style="edgeStyle=orthogonalEdgeStyle;rounded=0;orthogonalLoop=1;jettySize=auto;html=1;" parent="1" source="7L4xcxNV9Kzc51e2U8hK-11" target="7L4xcxNV9Kzc51e2U8hK-16" edge="1">
          <mxGeometry relative="1" as="geometry" />
        </mxCell>
        <mxCell id="7L4xcxNV9Kzc51e2U8hK-11" value="&lt;span style=&quot;font-size: 11px&quot;&gt;是否需求&lt;/span&gt;" style="strokeWidth=2;html=1;shape=mxgraph.flowchart.decision;whiteSpace=wrap;sketch=0;shadow=1;labelBorderColor=none;fontSize=14;" parent="1" vertex="1">
          <mxGeometry x="-2892.28" y="720" width="132.18" height="100" as="geometry" />
        </mxCell>
        <mxCell id="7L4xcxNV9Kzc51e2U8hK-33" style="edgeStyle=orthogonalEdgeStyle;rounded=0;orthogonalLoop=1;jettySize=auto;html=1;entryX=0.5;entryY=0;entryDx=0;entryDy=0;" parent="1" source="7L4xcxNV9Kzc51e2U8hK-12" target="7L4xcxNV9Kzc51e2U8hK-15" edge="1">
          <mxGeometry relative="1" as="geometry" />
        </mxCell>
        <mxCell id="7L4xcxNV9Kzc51e2U8hK-12" value="&lt;span style=&quot;font-size: 11px&quot;&gt;是否bug&lt;/span&gt;" style="strokeWidth=2;html=1;shape=mxgraph.flowchart.decision;whiteSpace=wrap;sketch=0;shadow=1;labelBorderColor=none;fontSize=14;" parent="1" vertex="1">
          <mxGeometry x="-2390" y="720" width="132.18" height="100" as="geometry" />
        </mxCell>
        <mxCell id="7L4xcxNV9Kzc51e2U8hK-27" style="edgeStyle=orthogonalEdgeStyle;rounded=0;orthogonalLoop=1;jettySize=auto;html=1;entryX=0.5;entryY=0;entryDx=0;entryDy=0;" parent="1" source="7L4xcxNV9Kzc51e2U8hK-14" target="7L4xcxNV9Kzc51e2U8hK-6" edge="1">
          <mxGeometry relative="1" as="geometry" />
        </mxCell>
        <mxCell id="7L4xcxNV9Kzc51e2U8hK-48" style="edgeStyle=orthogonalEdgeStyle;orthogonalLoop=1;jettySize=auto;html=1;exitX=1;exitY=0;exitDx=0;exitDy=0;entryX=0;entryY=0.75;entryDx=0;entryDy=0;curved=1;" parent="1" source="7L4xcxNV9Kzc51e2U8hK-14" target="7L4xcxNV9Kzc51e2U8hK-47" edge="1">
          <mxGeometry relative="1" as="geometry" />
        </mxCell>
        <mxCell id="7L4xcxNV9Kzc51e2U8hK-14" value="&lt;span style=&quot;font-size: 13px&quot;&gt;1.确认开始完成时间&lt;br&gt;2.确认开发人员&lt;br&gt;&lt;/span&gt;" style="rounded=1;whiteSpace=wrap;html=1;absoluteArcSize=1;arcSize=14;strokeWidth=2;sketch=0;shadow=1;labelBorderColor=none;fontSize=14;" parent="1" vertex="1">
          <mxGeometry x="-2647.8100000000004" y="1140" width="135.62" height="80" as="geometry" />
        </mxCell>
        <mxCell id="7L4xcxNV9Kzc51e2U8hK-35" style="edgeStyle=orthogonalEdgeStyle;rounded=0;orthogonalLoop=1;jettySize=auto;html=1;entryX=1;entryY=0.5;entryDx=0;entryDy=0;" parent="1" source="7L4xcxNV9Kzc51e2U8hK-15" target="7L4xcxNV9Kzc51e2U8hK-14" edge="1">
          <mxGeometry relative="1" as="geometry">
            <Array as="points">
              <mxPoint x="-2180" y="920" />
              <mxPoint x="-2180" y="1180" />
            </Array>
          </mxGeometry>
        </mxCell>
        <mxCell id="7L4xcxNV9Kzc51e2U8hK-15" value="&lt;span style=&quot;font-size: 12px&quot;&gt;创建缺陷&lt;br&gt;&lt;/span&gt;" style="rounded=1;whiteSpace=wrap;html=1;absoluteArcSize=1;arcSize=14;strokeWidth=2;sketch=0;shadow=1;labelBorderColor=none;fontSize=14;" parent="1" vertex="1">
          <mxGeometry x="-2391.7200000000003" y="880" width="135.62" height="80" as="geometry" />
        </mxCell>
        <mxCell id="7L4xcxNV9Kzc51e2U8hK-40" value="" style="edgeStyle=orthogonalEdgeStyle;rounded=0;orthogonalLoop=1;jettySize=auto;html=1;" parent="1" source="7L4xcxNV9Kzc51e2U8hK-16" target="7L4xcxNV9Kzc51e2U8hK-17" edge="1">
          <mxGeometry relative="1" as="geometry" />
        </mxCell>
        <mxCell id="7L4xcxNV9Kzc51e2U8hK-42" style="edgeStyle=orthogonalEdgeStyle;rounded=0;orthogonalLoop=1;jettySize=auto;html=1;entryX=1;entryY=0.5;entryDx=0;entryDy=0;entryPerimeter=0;" parent="1" source="7L4xcxNV9Kzc51e2U8hK-16" target="7L4xcxNV9Kzc51e2U8hK-18" edge="1">
          <mxGeometry relative="1" as="geometry" />
        </mxCell>
        <mxCell id="7L4xcxNV9Kzc51e2U8hK-16" value="&lt;span style=&quot;font-size: 11px&quot;&gt;是否小需求&lt;/span&gt;" style="strokeWidth=2;html=1;shape=mxgraph.flowchart.decision;whiteSpace=wrap;sketch=0;shadow=1;labelBorderColor=none;fontSize=14;" parent="1" vertex="1">
          <mxGeometry x="-2892.28" y="870" width="132.18" height="100" as="geometry" />
        </mxCell>
        <mxCell id="7L4xcxNV9Kzc51e2U8hK-41" style="edgeStyle=orthogonalEdgeStyle;rounded=0;orthogonalLoop=1;jettySize=auto;html=1;entryX=0;entryY=0.5;entryDx=0;entryDy=0;" parent="1" source="7L4xcxNV9Kzc51e2U8hK-17" target="7L4xcxNV9Kzc51e2U8hK-14" edge="1">
          <mxGeometry relative="1" as="geometry">
            <Array as="points">
              <mxPoint x="-2826" y="1180" />
            </Array>
          </mxGeometry>
        </mxCell>
        <mxCell id="7L4xcxNV9Kzc51e2U8hK-17" value="&lt;span style=&quot;font-size: 12px&quot;&gt;创建需求&lt;br&gt;&lt;/span&gt;" style="rounded=1;whiteSpace=wrap;html=1;absoluteArcSize=1;arcSize=14;strokeWidth=2;sketch=0;shadow=1;labelBorderColor=none;fontSize=14;" parent="1" vertex="1">
          <mxGeometry x="-2894" y="1020" width="135.62" height="80" as="geometry" />
        </mxCell>
        <mxCell id="7L4xcxNV9Kzc51e2U8hK-43" style="edgeStyle=orthogonalEdgeStyle;rounded=0;orthogonalLoop=1;jettySize=auto;html=1;" parent="1" source="7L4xcxNV9Kzc51e2U8hK-18" target="7L4xcxNV9Kzc51e2U8hK-19" edge="1">
          <mxGeometry relative="1" as="geometry" />
        </mxCell>
        <mxCell id="7L4xcxNV9Kzc51e2U8hK-45" style="edgeStyle=orthogonalEdgeStyle;rounded=0;orthogonalLoop=1;jettySize=auto;html=1;entryX=0.5;entryY=0;entryDx=0;entryDy=0;" parent="1" source="7L4xcxNV9Kzc51e2U8hK-18" target="7L4xcxNV9Kzc51e2U8hK-21" edge="1">
          <mxGeometry relative="1" as="geometry" />
        </mxCell>
        <mxCell id="7L4xcxNV9Kzc51e2U8hK-18" value="&lt;span style=&quot;font-size: 11px&quot;&gt;需求是否可以再拆&lt;/span&gt;" style="strokeWidth=2;html=1;shape=mxgraph.flowchart.decision;whiteSpace=wrap;sketch=0;shadow=1;labelBorderColor=none;fontSize=14;" parent="1" vertex="1">
          <mxGeometry x="-3126.56" y="870" width="132.18" height="100" as="geometry" />
        </mxCell>
        <mxCell id="7L4xcxNV9Kzc51e2U8hK-44" style="edgeStyle=orthogonalEdgeStyle;rounded=0;orthogonalLoop=1;jettySize=auto;html=1;entryX=0;entryY=0.5;entryDx=0;entryDy=0;" parent="1" source="7L4xcxNV9Kzc51e2U8hK-19" target="7L4xcxNV9Kzc51e2U8hK-14" edge="1">
          <mxGeometry relative="1" as="geometry">
            <Array as="points">
              <mxPoint x="-3061" y="1180" />
            </Array>
          </mxGeometry>
        </mxCell>
        <mxCell id="7L4xcxNV9Kzc51e2U8hK-19" value="&lt;span style=&quot;font-size: 12px&quot;&gt;创建子需求&lt;br&gt;&lt;/span&gt;" style="rounded=1;whiteSpace=wrap;html=1;absoluteArcSize=1;arcSize=14;strokeWidth=2;sketch=0;shadow=1;labelBorderColor=none;fontSize=14;" parent="1" vertex="1">
          <mxGeometry x="-3128.2800000000007" y="1020" width="135.62" height="80" as="geometry" />
        </mxCell>
        <mxCell id="7L4xcxNV9Kzc51e2U8hK-46" style="edgeStyle=orthogonalEdgeStyle;rounded=0;orthogonalLoop=1;jettySize=auto;html=1;entryX=0;entryY=0.5;entryDx=0;entryDy=0;" parent="1" source="7L4xcxNV9Kzc51e2U8hK-21" target="7L4xcxNV9Kzc51e2U8hK-14" edge="1">
          <mxGeometry relative="1" as="geometry">
            <Array as="points">
              <mxPoint x="-3292" y="1180" />
            </Array>
          </mxGeometry>
        </mxCell>
        <mxCell id="7L4xcxNV9Kzc51e2U8hK-21" value="&lt;span style=&quot;font-size: 12px&quot;&gt;1.创建多个任务&lt;br&gt;2.任务与需求关联&lt;br&gt;&lt;/span&gt;" style="rounded=1;whiteSpace=wrap;html=1;absoluteArcSize=1;arcSize=14;strokeWidth=2;sketch=0;shadow=1;labelBorderColor=none;fontSize=14;" parent="1" vertex="1">
          <mxGeometry x="-3360" y="1020" width="135.62" height="80" as="geometry" />
        </mxCell>
        <mxCell id="7L4xcxNV9Kzc51e2U8hK-47" value="&lt;font style=&quot;font-size: 13px&quot;&gt;开发周期七天以内完成&lt;/font&gt;" style="text;html=1;strokeColor=#b85450;fillColor=#f8cecc;align=center;verticalAlign=middle;whiteSpace=wrap;rounded=0;fontSize=14;fontStyle=1;shadow=1;strokeWidth=2;" parent="1" vertex="1">
          <mxGeometry x="-2481" y="1090" width="150" height="30" as="geometry" />
        </mxCell>
        <mxCell id="uLTzXGGMs_2aWuKUiLu6-2" style="edgeStyle=orthogonalEdgeStyle;rounded=0;orthogonalLoop=1;jettySize=auto;html=1;entryX=0.5;entryY=0;entryDx=0;entryDy=0;strokeWidth=2;" parent="1" source="uLTzXGGMs_2aWuKUiLu6-1" target="TWLzpkab2mWhmV8aygny-182" edge="1">
          <mxGeometry relative="1" as="geometry" />
        </mxCell>
        <mxCell id="uLTzXGGMs_2aWuKUiLu6-1" value="1.定义测试用例 输入样本，输出期望&lt;br&gt;2.定义验收标准" style="rounded=1;whiteSpace=wrap;html=1;absoluteArcSize=1;arcSize=14;strokeWidth=2;sketch=0;shadow=1;labelBorderColor=none;fontSize=13;fillColor=#d5e8d4;strokeColor=#82b366;" parent="1" vertex="1">
          <mxGeometry x="-4510" y="880" width="140" height="80" as="geometry" />
        </mxCell>
        <mxCell id="uLTzXGGMs_2aWuKUiLu6-3" value="&lt;font style=&quot;font-size: 13px&quot;&gt;合理的验收标准有利于避免返工&lt;/font&gt;" style="text;html=1;strokeColor=#b85450;fillColor=#f8cecc;align=center;verticalAlign=middle;whiteSpace=wrap;rounded=0;fontSize=14;fontStyle=1;shadow=1;strokeWidth=2;" parent="1" vertex="1">
          <mxGeometry x="-4340" y="850" width="200" height="30" as="geometry" />
        </mxCell>
        <mxCell id="SaaYFpHfDAOrUPcQciJd-3" value="具体的数据格式" style="rounded=1;whiteSpace=wrap;html=1;absoluteArcSize=1;arcSize=14;strokeWidth=2;sketch=0;shadow=1;labelBorderColor=none;fontSize=13;fillColor=#d5e8d4;strokeColor=#82b366;" parent="1" vertex="1">
          <mxGeometry x="-5130" y="1410" width="135.62" height="80" as="geometry" />
        </mxCell>
        <mxCell id="SaaYFpHfDAOrUPcQciJd-4" value="数据量和流量有多大" style="rounded=1;whiteSpace=wrap;html=1;absoluteArcSize=1;arcSize=14;strokeWidth=2;sketch=0;shadow=1;labelBorderColor=none;fontSize=13;fillColor=#d5e8d4;strokeColor=#82b366;" parent="1" vertex="1">
          <mxGeometry x="-4940" y="1417.5" width="135.62" height="80" as="geometry" />
        </mxCell>
        <mxCell id="qlMdOJETvP7GqDq4btxb-1" value="" style="verticalLabelPosition=bottom;verticalAlign=top;html=1;strokeWidth=2;shape=mxgraph.arrows2.arrow;dy=0.6;dx=40;notch=0;shadow=1;fontSize=13;fillColor=#DAE8FC;fontColor=#ffffff;strokeColor=#006EAF;" parent="1" vertex="1">
          <mxGeometry x="-6110" y="490" width="150" height="70" as="geometry" />
        </mxCell>
        <mxCell id="qlMdOJETvP7GqDq4btxb-2" value="" style="verticalLabelPosition=bottom;verticalAlign=top;html=1;strokeWidth=2;shape=mxgraph.arrows2.arrow;dy=0.6;dx=40;notch=0;shadow=1;fontSize=13;fillColor=#DAE8FC;fontColor=#ffffff;strokeColor=#006EAF;" parent="1" vertex="1">
          <mxGeometry x="-5960" y="490" width="150" height="70" as="geometry" />
        </mxCell>
        <mxCell id="qlMdOJETvP7GqDq4btxb-3" value="" style="verticalLabelPosition=bottom;verticalAlign=top;html=1;strokeWidth=2;shape=mxgraph.arrows2.arrow;dy=0.6;dx=40;notch=0;shadow=1;fontSize=13;fillColor=#DAE8FC;fontColor=#ffffff;strokeColor=#006EAF;" parent="1" vertex="1">
          <mxGeometry x="-5810" y="490" width="150" height="70" as="geometry" />
        </mxCell>
        <mxCell id="qlMdOJETvP7GqDq4btxb-4" value="" style="verticalLabelPosition=bottom;verticalAlign=top;html=1;strokeWidth=2;shape=mxgraph.arrows2.arrow;dy=0.6;dx=40;notch=0;shadow=1;fontSize=13;fillColor=#ffe6cc;strokeColor=#d79b00;" parent="1" vertex="1">
          <mxGeometry x="-5510" y="490" width="150" height="70" as="geometry" />
        </mxCell>
        <mxCell id="qlMdOJETvP7GqDq4btxb-5" value="应用管理" style="text;html=1;strokeColor=none;fillColor=none;align=center;verticalAlign=middle;whiteSpace=wrap;rounded=0;fontSize=20;" parent="1" vertex="1">
          <mxGeometry x="-6110" y="570" width="100" height="30" as="geometry" />
        </mxCell>
        <mxCell id="qlMdOJETvP7GqDq4btxb-7" value="密钥管理" style="text;html=1;strokeColor=none;fillColor=none;align=center;verticalAlign=middle;whiteSpace=wrap;rounded=0;fontSize=20;" parent="1" vertex="1">
          <mxGeometry x="-5945" y="570" width="90" height="30" as="geometry" />
        </mxCell>
        <mxCell id="qlMdOJETvP7GqDq4btxb-8" value="服务管理" style="text;html=1;strokeColor=none;fillColor=none;align=center;verticalAlign=middle;whiteSpace=wrap;rounded=0;fontSize=20;" parent="1" vertex="1">
          <mxGeometry x="-5790" y="570" width="90" height="30" as="geometry" />
        </mxCell>
        <mxCell id="qlMdOJETvP7GqDq4btxb-9" value="开放接口" style="text;html=1;strokeColor=none;fillColor=none;align=center;verticalAlign=middle;whiteSpace=wrap;rounded=0;fontSize=20;" parent="1" vertex="1">
          <mxGeometry x="-5502.5" y="570" width="90" height="30" as="geometry" />
        </mxCell>
        <mxCell id="qlMdOJETvP7GqDq4btxb-10" value="" style="verticalLabelPosition=bottom;verticalAlign=top;html=1;strokeWidth=2;shape=mxgraph.arrows2.arrow;dy=0.6;dx=40;notch=0;shadow=1;fontSize=13;fillColor=#a20025;fontColor=#ffffff;strokeColor=#6F0000;" parent="1" vertex="1">
          <mxGeometry x="-5360" y="490" width="150" height="70" as="geometry" />
        </mxCell>
        <mxCell id="qlMdOJETvP7GqDq4btxb-11" value="风险审计" style="text;html=1;strokeColor=none;fillColor=none;align=center;verticalAlign=middle;whiteSpace=wrap;rounded=0;fontSize=20;" parent="1" vertex="1">
          <mxGeometry x="-5330" y="570" width="90" height="30" as="geometry" />
        </mxCell>
        <mxCell id="qlMdOJETvP7GqDq4btxb-12" value="应用管理员" style="text;html=1;strokeColor=none;fillColor=none;align=center;verticalAlign=middle;whiteSpace=wrap;rounded=0;" parent="1" vertex="1">
          <mxGeometry x="-6095" y="600" width="70" height="30" as="geometry" />
        </mxCell>
        <mxCell id="qlMdOJETvP7GqDq4btxb-14" value="应用管理员" style="text;html=1;strokeColor=none;fillColor=none;align=center;verticalAlign=middle;whiteSpace=wrap;rounded=0;" parent="1" vertex="1">
          <mxGeometry x="-5935" y="600" width="70" height="30" as="geometry" />
        </mxCell>
        <mxCell id="qlMdOJETvP7GqDq4btxb-15" value="服务管理员" style="text;html=1;strokeColor=none;fillColor=none;align=center;verticalAlign=middle;whiteSpace=wrap;rounded=0;" parent="1" vertex="1">
          <mxGeometry x="-5785" y="600" width="70" height="30" as="geometry" />
        </mxCell>
        <mxCell id="qlMdOJETvP7GqDq4btxb-16" value="开发人员" style="text;html=1;strokeColor=none;fillColor=none;align=center;verticalAlign=middle;whiteSpace=wrap;rounded=0;" parent="1" vertex="1">
          <mxGeometry x="-5495" y="600" width="75" height="30" as="geometry" />
        </mxCell>
        <mxCell id="qlMdOJETvP7GqDq4btxb-18" value="内控" style="text;html=1;strokeColor=none;fillColor=none;align=center;verticalAlign=middle;whiteSpace=wrap;rounded=0;" parent="1" vertex="1">
          <mxGeometry x="-5337.5" y="600" width="75" height="30" as="geometry" />
        </mxCell>
        <mxCell id="qlMdOJETvP7GqDq4btxb-19" value="" style="verticalLabelPosition=bottom;verticalAlign=top;html=1;strokeWidth=2;shape=mxgraph.arrows2.arrow;dy=0.6;dx=40;notch=0;shadow=1;fontSize=13;fillColor=#D5E8D4;fontColor=#ffffff;strokeColor=#2D7600;" parent="1" vertex="1">
          <mxGeometry x="-5660" y="490" width="150" height="70" as="geometry" />
        </mxCell>
        <mxCell id="qlMdOJETvP7GqDq4btxb-20" value="审批管理" style="text;html=1;strokeColor=none;fillColor=none;align=center;verticalAlign=middle;whiteSpace=wrap;rounded=0;fontSize=20;" parent="1" vertex="1">
          <mxGeometry x="-5640" y="570" width="90" height="30" as="geometry" />
        </mxCell>
        <mxCell id="qlMdOJETvP7GqDq4btxb-21" value="审批人员" style="text;html=1;strokeColor=none;fillColor=none;align=center;verticalAlign=middle;whiteSpace=wrap;rounded=0;" parent="1" vertex="1">
          <mxGeometry x="-5635" y="600" width="70" height="30" as="geometry" />
        </mxCell>
        <mxCell id="qlMdOJETvP7GqDq4btxb-22" value="" style="rounded=0;whiteSpace=wrap;html=1;shadow=1;fontSize=13;strokeWidth=1;dashed=1;glass=0;sketch=0;fillColor=#D5E8D4;" parent="1" vertex="1">
          <mxGeometry x="-6205" y="1775" width="455" height="205" as="geometry" />
        </mxCell>
        <mxCell id="qlMdOJETvP7GqDq4btxb-24" value="" style="shape=actor;whiteSpace=wrap;html=1;fontSize=20;fontColor=#3399FF;" parent="1" vertex="1">
          <mxGeometry x="-6140" y="1810" width="30" height="30" as="geometry" />
        </mxCell>
        <mxCell id="qlMdOJETvP7GqDq4btxb-26" value="&lt;font color=&quot;#000000&quot;&gt;开发人员&lt;/font&gt;" style="text;html=1;strokeColor=none;fillColor=none;align=center;verticalAlign=middle;whiteSpace=wrap;rounded=0;shadow=1;glass=0;dashed=1;sketch=0;fontSize=20;fontColor=#3399FF;" parent="1" vertex="1">
          <mxGeometry x="-6110" y="1810" width="105" height="30" as="geometry" />
        </mxCell>
        <mxCell id="qlMdOJETvP7GqDq4btxb-108" value="" style="edgeStyle=orthogonalEdgeStyle;rounded=0;orthogonalLoop=1;jettySize=auto;html=1;fontSize=15;fontColor=#000000;" parent="1" source="qlMdOJETvP7GqDq4btxb-27" target="qlMdOJETvP7GqDq4btxb-28" edge="1">
          <mxGeometry relative="1" as="geometry" />
        </mxCell>
        <mxCell id="qlMdOJETvP7GqDq4btxb-27" value="开发接口SDK" style="rounded=1;whiteSpace=wrap;html=1;absoluteArcSize=1;arcSize=14;strokeWidth=0;sketch=0;shadow=1;labelBorderColor=none;fontSize=13;dashed=1;" parent="1" vertex="1">
          <mxGeometry x="-6145.62" y="1870" width="135.62" height="70" as="geometry" />
        </mxCell>
        <mxCell id="qlMdOJETvP7GqDq4btxb-28" value="认证鉴权" style="rounded=1;whiteSpace=wrap;html=1;absoluteArcSize=1;arcSize=14;strokeWidth=0;sketch=0;shadow=1;labelBorderColor=none;fontSize=13;dashed=1;" parent="1" vertex="1">
          <mxGeometry x="-5945.62" y="1870" width="135.62" height="70" as="geometry" />
        </mxCell>
        <mxCell id="qlMdOJETvP7GqDq4btxb-83" style="edgeStyle=orthogonalEdgeStyle;rounded=0;orthogonalLoop=1;jettySize=auto;html=1;fontSize=20;fontColor=#3399FF;" parent="1" source="qlMdOJETvP7GqDq4btxb-29" target="qlMdOJETvP7GqDq4btxb-65" edge="1">
          <mxGeometry relative="1" as="geometry" />
        </mxCell>
        <mxCell id="qlMdOJETvP7GqDq4btxb-85" value="&lt;font color=&quot;#000000&quot; style=&quot;font-size: 15px;&quot;&gt;申请审批&lt;/font&gt;" style="edgeLabel;html=1;align=center;verticalAlign=middle;resizable=0;points=[];fontSize=15;fontColor=#3399FF;" parent="qlMdOJETvP7GqDq4btxb-83" vertex="1" connectable="0">
          <mxGeometry x="0.1156" y="-2" relative="1" as="geometry">
            <mxPoint y="1" as="offset" />
          </mxGeometry>
        </mxCell>
        <mxCell id="qlMdOJETvP7GqDq4btxb-29" value="" style="rounded=0;whiteSpace=wrap;html=1;shadow=1;fontSize=13;strokeWidth=1;dashed=1;glass=0;sketch=0;fillColor=#DAE8FC;" parent="1" vertex="1">
          <mxGeometry x="-5680" y="1775" width="420" height="205" as="geometry" />
        </mxCell>
        <mxCell id="qlMdOJETvP7GqDq4btxb-109" value="" style="edgeStyle=orthogonalEdgeStyle;rounded=0;orthogonalLoop=1;jettySize=auto;html=1;fontSize=15;fontColor=#000000;" parent="1" source="qlMdOJETvP7GqDq4btxb-30" target="qlMdOJETvP7GqDq4btxb-31" edge="1">
          <mxGeometry relative="1" as="geometry" />
        </mxCell>
        <mxCell id="qlMdOJETvP7GqDq4btxb-30" value="创建应用" style="rounded=1;whiteSpace=wrap;html=1;absoluteArcSize=1;arcSize=14;strokeWidth=0;sketch=0;shadow=1;labelBorderColor=none;fontSize=13;dashed=1;" parent="1" vertex="1">
          <mxGeometry x="-5625.62" y="1870" width="135.62" height="70" as="geometry" />
        </mxCell>
        <mxCell id="qlMdOJETvP7GqDq4btxb-31" value="创建密钥" style="rounded=1;whiteSpace=wrap;html=1;absoluteArcSize=1;arcSize=14;strokeWidth=0;sketch=0;shadow=1;labelBorderColor=none;fontSize=13;dashed=1;" parent="1" vertex="1">
          <mxGeometry x="-5443" y="1870" width="135.62" height="70" as="geometry" />
        </mxCell>
        <mxCell id="qlMdOJETvP7GqDq4btxb-34" value="" style="shape=actor;whiteSpace=wrap;html=1;fontSize=20;fontColor=#3399FF;" parent="1" vertex="1">
          <mxGeometry x="-5625.62" y="1810" width="30" height="30" as="geometry" />
        </mxCell>
        <mxCell id="qlMdOJETvP7GqDq4btxb-35" value="&lt;font color=&quot;#000000&quot;&gt;系统Leader&lt;/font&gt;" style="text;html=1;strokeColor=none;fillColor=none;align=center;verticalAlign=middle;whiteSpace=wrap;rounded=0;shadow=1;glass=0;dashed=1;sketch=0;fontSize=20;fontColor=#3399FF;" parent="1" vertex="1">
          <mxGeometry x="-5595.62" y="1810" width="130" height="30" as="geometry" />
        </mxCell>
        <mxCell id="qlMdOJETvP7GqDq4btxb-84" style="edgeStyle=orthogonalEdgeStyle;rounded=0;orthogonalLoop=1;jettySize=auto;html=1;entryX=0.5;entryY=0;entryDx=0;entryDy=0;fontSize=20;fontColor=#3399FF;" parent="1" source="qlMdOJETvP7GqDq4btxb-36" target="qlMdOJETvP7GqDq4btxb-65" edge="1">
          <mxGeometry relative="1" as="geometry" />
        </mxCell>
        <mxCell id="qlMdOJETvP7GqDq4btxb-86" value="&lt;font style=&quot;font-size: 15px&quot;&gt;申请审批&lt;/font&gt;" style="edgeLabel;html=1;align=center;verticalAlign=middle;resizable=0;points=[];fontSize=20;fontColor=#000000;" parent="qlMdOJETvP7GqDq4btxb-84" vertex="1" connectable="0">
          <mxGeometry x="-0.176" y="-1" relative="1" as="geometry">
            <mxPoint as="offset" />
          </mxGeometry>
        </mxCell>
        <mxCell id="qlMdOJETvP7GqDq4btxb-36" value="" style="rounded=0;whiteSpace=wrap;html=1;shadow=1;fontSize=13;strokeWidth=1;dashed=1;glass=0;sketch=0;fillColor=#DAE8FC;" parent="1" vertex="1">
          <mxGeometry x="-5190" y="1775.5" width="420" height="205" as="geometry" />
        </mxCell>
        <mxCell id="qlMdOJETvP7GqDq4btxb-110" value="" style="edgeStyle=orthogonalEdgeStyle;rounded=0;orthogonalLoop=1;jettySize=auto;html=1;fontSize=15;fontColor=#000000;" parent="1" source="qlMdOJETvP7GqDq4btxb-37" target="qlMdOJETvP7GqDq4btxb-38" edge="1">
          <mxGeometry relative="1" as="geometry" />
        </mxCell>
        <mxCell id="qlMdOJETvP7GqDq4btxb-37" value="创建服务" style="rounded=1;whiteSpace=wrap;html=1;absoluteArcSize=1;arcSize=14;strokeWidth=0;sketch=0;shadow=1;labelBorderColor=none;fontSize=13;dashed=1;" parent="1" vertex="1">
          <mxGeometry x="-5135" y="1870" width="135.62" height="70" as="geometry" />
        </mxCell>
        <mxCell id="qlMdOJETvP7GqDq4btxb-38" value="申请访问密钥" style="rounded=1;whiteSpace=wrap;html=1;absoluteArcSize=1;arcSize=14;strokeWidth=0;sketch=0;shadow=1;labelBorderColor=none;fontSize=13;dashed=1;" parent="1" vertex="1">
          <mxGeometry x="-4950" y="1870" width="135.62" height="70" as="geometry" />
        </mxCell>
        <mxCell id="qlMdOJETvP7GqDq4btxb-39" value="" style="shape=actor;whiteSpace=wrap;html=1;fontSize=20;fontColor=#3399FF;" parent="1" vertex="1">
          <mxGeometry x="-5135" y="1810" width="30" height="30" as="geometry" />
        </mxCell>
        <mxCell id="qlMdOJETvP7GqDq4btxb-40" value="&lt;span style=&quot;color: rgb(0 , 0 , 0)&quot;&gt;开发人员&lt;/span&gt;" style="text;html=1;strokeColor=none;fillColor=none;align=center;verticalAlign=middle;whiteSpace=wrap;rounded=0;shadow=1;glass=0;dashed=1;sketch=0;fontSize=20;fontColor=#3399FF;" parent="1" vertex="1">
          <mxGeometry x="-5100" y="1810" width="111.57" height="30" as="geometry" />
        </mxCell>
        <mxCell id="qlMdOJETvP7GqDq4btxb-41" value="&lt;b&gt;&lt;font color=&quot;#3399ff&quot;&gt;业&lt;br&gt;务&lt;br&gt;系&lt;br&gt;统&lt;/font&gt;&lt;/b&gt;" style="text;html=1;strokeColor=none;fillColor=none;align=center;verticalAlign=middle;whiteSpace=wrap;rounded=0;shadow=1;glass=0;dashed=1;sketch=0;fontSize=20;fontColor=#000000;" parent="1" vertex="1">
          <mxGeometry x="-6205" y="1850" width="60" height="30" as="geometry" />
        </mxCell>
        <mxCell id="qlMdOJETvP7GqDq4btxb-58" value="&lt;font color=&quot;#3399ff&quot;&gt;&lt;b&gt;密&lt;br&gt;钥&lt;br&gt;管&lt;br&gt;理&lt;br&gt;系&lt;br&gt;统&lt;/b&gt;&lt;/font&gt;" style="text;html=1;strokeColor=none;fillColor=none;align=center;verticalAlign=middle;whiteSpace=wrap;rounded=0;shadow=1;glass=0;dashed=1;sketch=0;fontSize=20;fontColor=#000000;" parent="1" vertex="1">
          <mxGeometry x="-5680" y="1855" width="60" height="30" as="geometry" />
        </mxCell>
        <mxCell id="qlMdOJETvP7GqDq4btxb-59" value="&lt;font color=&quot;#3399ff&quot;&gt;&lt;b&gt;密&lt;br&gt;钥&lt;br&gt;管&lt;br&gt;理&lt;br&gt;系&lt;br&gt;统&lt;/b&gt;&lt;/font&gt;" style="text;html=1;strokeColor=none;fillColor=none;align=center;verticalAlign=middle;whiteSpace=wrap;rounded=0;shadow=1;glass=0;dashed=1;sketch=0;fontSize=20;fontColor=#000000;" parent="1" vertex="1">
          <mxGeometry x="-5188.43" y="1855" width="60" height="30" as="geometry" />
        </mxCell>
        <mxCell id="qlMdOJETvP7GqDq4btxb-106" style="edgeStyle=orthogonalEdgeStyle;rounded=0;orthogonalLoop=1;jettySize=auto;html=1;fontSize=15;fontColor=#000000;" parent="1" source="qlMdOJETvP7GqDq4btxb-65" target="qlMdOJETvP7GqDq4btxb-94" edge="1">
          <mxGeometry relative="1" as="geometry" />
        </mxCell>
        <mxCell id="qlMdOJETvP7GqDq4btxb-107" value="审批通过" style="edgeLabel;html=1;align=center;verticalAlign=middle;resizable=0;points=[];fontSize=15;fontColor=#000000;" parent="qlMdOJETvP7GqDq4btxb-106" vertex="1" connectable="0">
          <mxGeometry x="0.2642" y="3" relative="1" as="geometry">
            <mxPoint as="offset" />
          </mxGeometry>
        </mxCell>
        <mxCell id="qlMdOJETvP7GqDq4btxb-65" value="" style="rounded=0;whiteSpace=wrap;html=1;shadow=1;fontSize=13;strokeWidth=1;dashed=1;glass=0;sketch=0;fillColor=#DAE8FC;" parent="1" vertex="1">
          <mxGeometry x="-5400" y="2110" width="330" height="205" as="geometry" />
        </mxCell>
        <mxCell id="qlMdOJETvP7GqDq4btxb-66" value="处理审批" style="rounded=1;whiteSpace=wrap;html=1;absoluteArcSize=1;arcSize=14;strokeWidth=0;sketch=0;shadow=1;labelBorderColor=none;fontSize=13;dashed=1;" parent="1" vertex="1">
          <mxGeometry x="-5340" y="2195" width="135.62" height="70" as="geometry" />
        </mxCell>
        <mxCell id="qlMdOJETvP7GqDq4btxb-68" value="" style="shape=actor;whiteSpace=wrap;html=1;fontSize=20;fontColor=#3399FF;" parent="1" vertex="1">
          <mxGeometry x="-5346.57" y="2145" width="30" height="30" as="geometry" />
        </mxCell>
        <mxCell id="qlMdOJETvP7GqDq4btxb-69" value="&lt;span style=&quot;color: rgb(0 , 0 , 0)&quot;&gt;相关审批人员&lt;/span&gt;" style="text;html=1;strokeColor=none;fillColor=none;align=center;verticalAlign=middle;whiteSpace=wrap;rounded=0;shadow=1;glass=0;dashed=1;sketch=0;fontSize=20;fontColor=#3399FF;" parent="1" vertex="1">
          <mxGeometry x="-5311.57" y="2145" width="124.57" height="30" as="geometry" />
        </mxCell>
        <mxCell id="qlMdOJETvP7GqDq4btxb-70" value="&lt;font color=&quot;#3399ff&quot;&gt;&lt;b&gt;密&lt;br&gt;钥&lt;br&gt;管&lt;br&gt;理&lt;br&gt;系&lt;br&gt;统&lt;/b&gt;&lt;/font&gt;" style="text;html=1;strokeColor=none;fillColor=none;align=center;verticalAlign=middle;whiteSpace=wrap;rounded=0;shadow=1;glass=0;dashed=1;sketch=0;fontSize=20;fontColor=#000000;" parent="1" vertex="1">
          <mxGeometry x="-5400" y="2190" width="60" height="30" as="geometry" />
        </mxCell>
        <mxCell id="qlMdOJETvP7GqDq4btxb-81" value="" style="endArrow=classic;html=1;rounded=0;fontSize=20;fontColor=#3399FF;" parent="1" edge="1">
          <mxGeometry width="50" height="50" relative="1" as="geometry">
            <mxPoint x="-5770" y="1904.5" as="sourcePoint" />
            <mxPoint x="-5690" y="1904.5" as="targetPoint" />
          </mxGeometry>
        </mxCell>
        <mxCell id="qlMdOJETvP7GqDq4btxb-82" value="" style="endArrow=classic;html=1;rounded=0;fontSize=20;fontColor=#3399FF;" parent="1" edge="1">
          <mxGeometry width="50" height="50" relative="1" as="geometry">
            <mxPoint x="-5284.57" y="1909.5" as="sourcePoint" />
            <mxPoint x="-5204.57" y="1909.5" as="targetPoint" />
          </mxGeometry>
        </mxCell>
        <mxCell id="qlMdOJETvP7GqDq4btxb-92" value="鉴权失败" style="text;html=1;strokeColor=none;fillColor=none;align=center;verticalAlign=middle;whiteSpace=wrap;rounded=0;shadow=1;glass=0;dashed=1;sketch=0;fontSize=15;fontColor=#000000;" parent="1" vertex="1">
          <mxGeometry x="-5760" y="1863" width="70" height="30" as="geometry" />
        </mxCell>
        <mxCell id="qlMdOJETvP7GqDq4btxb-93" value="申请密钥" style="text;html=1;align=center;verticalAlign=middle;resizable=0;points=[];autosize=1;strokeColor=none;fillColor=none;fontSize=15;fontColor=#000000;" parent="1" vertex="1">
          <mxGeometry x="-5270" y="1880" width="80" height="20" as="geometry" />
        </mxCell>
        <mxCell id="qlMdOJETvP7GqDq4btxb-94" value="" style="rounded=0;whiteSpace=wrap;html=1;shadow=1;fontSize=13;strokeWidth=1;dashed=1;glass=0;sketch=0;fillColor=#DAE8FC;" parent="1" vertex="1">
          <mxGeometry x="-6060" y="2070" width="310" height="205" as="geometry" />
        </mxCell>
        <mxCell id="qlMdOJETvP7GqDq4btxb-95" value="开发接口服务" style="rounded=1;whiteSpace=wrap;html=1;absoluteArcSize=1;arcSize=14;strokeWidth=0;sketch=0;shadow=1;labelBorderColor=none;fontSize=13;dashed=1;" parent="1" vertex="1">
          <mxGeometry x="-5970.000000000001" y="2150" width="135.62" height="70" as="geometry" />
        </mxCell>
        <mxCell id="qlMdOJETvP7GqDq4btxb-98" value="&lt;font color=&quot;#3399ff&quot;&gt;&lt;b&gt;密&lt;br&gt;钥&lt;br&gt;管&lt;br&gt;理&lt;br&gt;系&lt;br&gt;统&lt;/b&gt;&lt;/font&gt;" style="text;html=1;strokeColor=none;fillColor=none;align=center;verticalAlign=middle;whiteSpace=wrap;rounded=0;shadow=1;glass=0;dashed=1;sketch=0;fontSize=20;fontColor=#000000;" parent="1" vertex="1">
          <mxGeometry x="-6047.1900000000005" y="2170" width="60" height="30" as="geometry" />
        </mxCell>
        <mxCell id="qlMdOJETvP7GqDq4btxb-104" value="" style="endArrow=classic;startArrow=classic;html=1;rounded=0;fontSize=15;fontColor=#000000;" parent="1" edge="1">
          <mxGeometry width="50" height="50" relative="1" as="geometry">
            <mxPoint x="-5878.31" y="2080" as="sourcePoint" />
            <mxPoint x="-5878.31" y="1970" as="targetPoint" />
          </mxGeometry>
        </mxCell>
        <mxCell id="7Gnt_7ZSYylHXQSi0mEM-5" value="" style="rounded=0;whiteSpace=wrap;html=1;shadow=1;fontSize=13;strokeWidth=1;dashed=1;" parent="1" vertex="1">
          <mxGeometry x="-6400" y="2390" width="1080" height="690" as="geometry" />
        </mxCell>
        <mxCell id="7Gnt_7ZSYylHXQSi0mEM-6" value="&lt;font style=&quot;font-size: 19px&quot; color=&quot;#007fff&quot;&gt;&lt;b&gt;业务层&lt;/b&gt;&lt;/font&gt;" style="rounded=0;whiteSpace=wrap;html=1;shadow=1;strokeWidth=1;fillColor=#DAE8FC;" parent="1" vertex="1">
          <mxGeometry x="-6322" y="2430" width="120" height="60" as="geometry" />
        </mxCell>
        <mxCell id="7Gnt_7ZSYylHXQSi0mEM-7" value="&lt;font style=&quot;font-size: 19px&quot; color=&quot;#007fff&quot;&gt;&lt;b&gt;平台层&lt;/b&gt;&lt;/font&gt;" style="rounded=0;whiteSpace=wrap;html=1;shadow=1;strokeWidth=1;fillColor=#DAE8FC;" parent="1" vertex="1">
          <mxGeometry x="-6322" y="2510" width="120" height="380" as="geometry" />
        </mxCell>
        <mxCell id="7Gnt_7ZSYylHXQSi0mEM-8" value="&lt;font style=&quot;font-size: 19px&quot; color=&quot;#007fff&quot;&gt;&lt;b&gt;组件层&lt;/b&gt;&lt;/font&gt;" style="rounded=0;whiteSpace=wrap;html=1;shadow=1;strokeWidth=1;fillColor=#DAE8FC;" parent="1" vertex="1">
          <mxGeometry x="-6322" y="2923" width="120" height="60" as="geometry" />
        </mxCell>
        <mxCell id="7Gnt_7ZSYylHXQSi0mEM-9" value="&lt;font style=&quot;font-size: 19px&quot; color=&quot;#007fff&quot;&gt;&lt;b&gt;数据层&lt;/b&gt;&lt;/font&gt;" style="rounded=0;whiteSpace=wrap;html=1;shadow=1;strokeWidth=1;fillColor=#DAE8FC;" parent="1" vertex="1">
          <mxGeometry x="-6322" y="3000" width="120" height="60" as="geometry" />
        </mxCell>
        <mxCell id="7Gnt_7ZSYylHXQSi0mEM-10" value="" style="rounded=0;whiteSpace=wrap;html=1;shadow=1;fontSize=13;strokeWidth=1;glass=0;sketch=0;fillColor=#D5E8D4;" parent="1" vertex="1">
          <mxGeometry x="-6170" y="2510" width="290" height="160" as="geometry" />
        </mxCell>
        <mxCell id="7Gnt_7ZSYylHXQSi0mEM-12" value="&lt;font color=&quot;#000000&quot;&gt;应用管理&lt;/font&gt;" style="text;html=1;strokeColor=none;fillColor=none;align=center;verticalAlign=middle;whiteSpace=wrap;rounded=0;shadow=1;glass=0;dashed=1;sketch=0;fontSize=20;fontColor=#3399FF;" parent="1" vertex="1">
          <mxGeometry x="-6150" y="2520" width="105" height="30" as="geometry" />
        </mxCell>
        <mxCell id="7Gnt_7ZSYylHXQSi0mEM-14" value="创建应用" style="rounded=0;whiteSpace=wrap;html=1;absoluteArcSize=1;arcSize=14;strokeWidth=0;sketch=0;shadow=1;labelBorderColor=none;fontSize=13;dashed=1;fillColor=#fff2cc;strokeColor=#d6b656;" parent="1" vertex="1">
          <mxGeometry x="-6145.62" y="2560" width="105.62" height="30" as="geometry" />
        </mxCell>
        <mxCell id="7Gnt_7ZSYylHXQSi0mEM-17" value="openapi" style="rounded=0;whiteSpace=wrap;html=1;absoluteArcSize=1;arcSize=14;strokeWidth=0;sketch=0;shadow=1;labelBorderColor=none;fontSize=13;dashed=1;fillColor=#fff2cc;strokeColor=#d6b656;" parent="1" vertex="1">
          <mxGeometry x="-6020" y="2560" width="105.62" height="30" as="geometry" />
        </mxCell>
        <mxCell id="7Gnt_7ZSYylHXQSi0mEM-20" value="&lt;font size=&quot;1&quot;&gt;&lt;b style=&quot;font-size: 15px&quot;&gt;审批服务&lt;/b&gt;&lt;/font&gt;" style="rounded=0;whiteSpace=wrap;html=1;shadow=1;strokeWidth=1;fillColor=#f5f5f5;fontColor=#333333;strokeColor=#666666;" parent="1" vertex="1">
          <mxGeometry x="-6180" y="2933" width="200" height="40" as="geometry" />
        </mxCell>
        <mxCell id="7Gnt_7ZSYylHXQSi0mEM-21" value="&lt;font size=&quot;1&quot;&gt;&lt;b style=&quot;font-size: 15px&quot;&gt;推送服务&lt;/b&gt;&lt;/font&gt;" style="rounded=0;whiteSpace=wrap;html=1;shadow=1;strokeWidth=1;fillColor=#f5f5f5;fontColor=#333333;strokeColor=#666666;" parent="1" vertex="1">
          <mxGeometry x="-5961.57" y="2933" width="201.57" height="40" as="geometry" />
        </mxCell>
        <mxCell id="7Gnt_7ZSYylHXQSi0mEM-22" value="&lt;font size=&quot;1&quot;&gt;&lt;b style=&quot;font-size: 15px&quot;&gt;鉴权服务&lt;/b&gt;&lt;/font&gt;" style="rounded=0;whiteSpace=wrap;html=1;shadow=1;strokeWidth=1;fillColor=#f5f5f5;fontColor=#333333;strokeColor=#666666;" parent="1" vertex="1">
          <mxGeometry x="-5742.5" y="2933" width="192.5" height="40" as="geometry" />
        </mxCell>
        <mxCell id="7Gnt_7ZSYylHXQSi0mEM-23" value="&lt;font size=&quot;1&quot;&gt;&lt;b style=&quot;font-size: 15px&quot;&gt;DB&lt;/b&gt;&lt;/font&gt;" style="rounded=0;whiteSpace=wrap;html=1;shadow=1;strokeWidth=1;fillColor=#ffe6cc;strokeColor=#d79b00;" parent="1" vertex="1">
          <mxGeometry x="-6180" y="3010" width="170" height="40" as="geometry" />
        </mxCell>
        <mxCell id="7Gnt_7ZSYylHXQSi0mEM-24" value="&lt;font size=&quot;1&quot;&gt;&lt;b style=&quot;font-size: 15px&quot;&gt;cache&lt;/b&gt;&lt;/font&gt;" style="rounded=0;whiteSpace=wrap;html=1;shadow=1;strokeWidth=1;fillColor=#ffe6cc;strokeColor=#d79b00;" parent="1" vertex="1">
          <mxGeometry x="-5980" y="3010" width="170" height="40" as="geometry" />
        </mxCell>
        <mxCell id="7Gnt_7ZSYylHXQSi0mEM-25" value="&lt;span style=&quot;font-size: 15px&quot;&gt;&lt;b&gt;鹰眼&lt;/b&gt;&lt;/span&gt;" style="rounded=0;whiteSpace=wrap;html=1;shadow=1;strokeWidth=1;fillColor=#ffe6cc;strokeColor=#d79b00;" parent="1" vertex="1">
          <mxGeometry x="-5780" y="3010" width="170" height="40" as="geometry" />
        </mxCell>
        <mxCell id="7Gnt_7ZSYylHXQSi0mEM-26" value="&lt;font size=&quot;1&quot;&gt;&lt;b style=&quot;font-size: 15px&quot;&gt;监控服务&lt;/b&gt;&lt;/font&gt;" style="rounded=0;whiteSpace=wrap;html=1;shadow=1;strokeWidth=1;fillColor=#f5f5f5;fontColor=#333333;strokeColor=#666666;" parent="1" vertex="1">
          <mxGeometry x="-5530" y="2933" width="190" height="40" as="geometry" />
        </mxCell>
        <mxCell id="7Gnt_7ZSYylHXQSi0mEM-27" value="应用管理员" style="rounded=0;whiteSpace=wrap;html=1;absoluteArcSize=1;arcSize=14;strokeWidth=0;sketch=0;shadow=1;labelBorderColor=none;fontSize=13;dashed=1;fillColor=#fff2cc;strokeColor=#d6b656;" parent="1" vertex="1">
          <mxGeometry x="-6145" y="2610" width="105.62" height="30" as="geometry" />
        </mxCell>
        <mxCell id="7Gnt_7ZSYylHXQSi0mEM-28" value="禁用应用" style="rounded=0;whiteSpace=wrap;html=1;absoluteArcSize=1;arcSize=14;strokeWidth=0;sketch=0;shadow=1;labelBorderColor=none;fontSize=13;dashed=1;fillColor=#fff2cc;strokeColor=#d6b656;" parent="1" vertex="1">
          <mxGeometry x="-6020" y="2610" width="105.62" height="30" as="geometry" />
        </mxCell>
        <mxCell id="7Gnt_7ZSYylHXQSi0mEM-30" value="" style="rounded=0;whiteSpace=wrap;html=1;shadow=1;fontSize=13;strokeWidth=1;glass=0;sketch=0;fillColor=#D5E8D4;" parent="1" vertex="1">
          <mxGeometry x="-6170" y="2720" width="290" height="160" as="geometry" />
        </mxCell>
        <mxCell id="7Gnt_7ZSYylHXQSi0mEM-31" value="&lt;font color=&quot;#000000&quot;&gt;密钥管理&lt;/font&gt;" style="text;html=1;strokeColor=none;fillColor=none;align=center;verticalAlign=middle;whiteSpace=wrap;rounded=0;shadow=1;glass=0;dashed=1;sketch=0;fontSize=20;fontColor=#3399FF;" parent="1" vertex="1">
          <mxGeometry x="-6150" y="2730" width="105" height="30" as="geometry" />
        </mxCell>
        <mxCell id="7Gnt_7ZSYylHXQSi0mEM-32" value="创建密钥" style="rounded=0;whiteSpace=wrap;html=1;absoluteArcSize=1;arcSize=14;strokeWidth=0;sketch=0;shadow=1;labelBorderColor=none;fontSize=13;dashed=1;fillColor=#fff2cc;strokeColor=#d6b656;" parent="1" vertex="1">
          <mxGeometry x="-6145.62" y="2770" width="105.62" height="30" as="geometry" />
        </mxCell>
        <mxCell id="7Gnt_7ZSYylHXQSi0mEM-33" value="密钥导入" style="rounded=0;whiteSpace=wrap;html=1;absoluteArcSize=1;arcSize=14;strokeWidth=0;sketch=0;shadow=1;labelBorderColor=none;fontSize=13;dashed=1;fillColor=#fff2cc;strokeColor=#d6b656;" parent="1" vertex="1">
          <mxGeometry x="-6020" y="2770" width="105.62" height="30" as="geometry" />
        </mxCell>
        <mxCell id="7Gnt_7ZSYylHXQSi0mEM-34" value="密钥轮换" style="rounded=0;whiteSpace=wrap;html=1;absoluteArcSize=1;arcSize=14;strokeWidth=0;sketch=0;shadow=1;labelBorderColor=none;fontSize=13;dashed=1;fillColor=#fff2cc;strokeColor=#d6b656;" parent="1" vertex="1">
          <mxGeometry x="-6145" y="2820" width="105.62" height="30" as="geometry" />
        </mxCell>
        <mxCell id="7Gnt_7ZSYylHXQSi0mEM-35" value="密钥备份" style="rounded=0;whiteSpace=wrap;html=1;absoluteArcSize=1;arcSize=14;strokeWidth=0;sketch=0;shadow=1;labelBorderColor=none;fontSize=13;dashed=1;fillColor=#fff2cc;strokeColor=#d6b656;" parent="1" vertex="1">
          <mxGeometry x="-6020" y="2820" width="105.62" height="30" as="geometry" />
        </mxCell>
        <mxCell id="7Gnt_7ZSYylHXQSi0mEM-43" value="" style="rounded=0;whiteSpace=wrap;html=1;shadow=1;fontSize=13;strokeWidth=1;glass=0;sketch=0;fillColor=#D5E8D4;" parent="1" vertex="1">
          <mxGeometry x="-5854.05" y="2510" width="415.62" height="160" as="geometry" />
        </mxCell>
        <mxCell id="7Gnt_7ZSYylHXQSi0mEM-44" value="&lt;font color=&quot;#000000&quot;&gt;服务管理&lt;/font&gt;" style="text;html=1;strokeColor=none;fillColor=none;align=center;verticalAlign=middle;whiteSpace=wrap;rounded=0;shadow=1;glass=0;dashed=1;sketch=0;fontSize=20;fontColor=#3399FF;" parent="1" vertex="1">
          <mxGeometry x="-5834.05" y="2520" width="105" height="30" as="geometry" />
        </mxCell>
        <mxCell id="7Gnt_7ZSYylHXQSi0mEM-45" value="创建服务" style="rounded=0;whiteSpace=wrap;html=1;absoluteArcSize=1;arcSize=14;strokeWidth=0;sketch=0;shadow=1;labelBorderColor=none;fontSize=13;dashed=1;fillColor=#fff2cc;strokeColor=#d6b656;" parent="1" vertex="1">
          <mxGeometry x="-5829.67" y="2560" width="105.62" height="30" as="geometry" />
        </mxCell>
        <mxCell id="7Gnt_7ZSYylHXQSi0mEM-46" value="openapi" style="rounded=0;whiteSpace=wrap;html=1;absoluteArcSize=1;arcSize=14;strokeWidth=0;sketch=0;shadow=1;labelBorderColor=none;fontSize=13;dashed=1;fillColor=#fff2cc;strokeColor=#d6b656;" parent="1" vertex="1">
          <mxGeometry x="-5704.05" y="2560" width="105.62" height="30" as="geometry" />
        </mxCell>
        <mxCell id="7Gnt_7ZSYylHXQSi0mEM-47" value="禁用服务" style="rounded=0;whiteSpace=wrap;html=1;absoluteArcSize=1;arcSize=14;strokeWidth=0;sketch=0;shadow=1;labelBorderColor=none;fontSize=13;dashed=1;fillColor=#fff2cc;strokeColor=#d6b656;" parent="1" vertex="1">
          <mxGeometry x="-5829.05" y="2610" width="105.62" height="30" as="geometry" />
        </mxCell>
        <mxCell id="7Gnt_7ZSYylHXQSi0mEM-48" value="申请应用密钥" style="rounded=0;whiteSpace=wrap;html=1;absoluteArcSize=1;arcSize=14;strokeWidth=0;sketch=0;shadow=1;labelBorderColor=none;fontSize=13;dashed=1;fillColor=#fff2cc;strokeColor=#d6b656;" parent="1" vertex="1">
          <mxGeometry x="-5704.05" y="2610" width="105.62" height="30" as="geometry" />
        </mxCell>
        <mxCell id="7Gnt_7ZSYylHXQSi0mEM-56" value="服务管理员" style="rounded=0;whiteSpace=wrap;html=1;absoluteArcSize=1;arcSize=14;strokeWidth=0;sketch=0;shadow=1;labelBorderColor=none;fontSize=13;dashed=1;fillColor=#fff2cc;strokeColor=#d6b656;" parent="1" vertex="1">
          <mxGeometry x="-5577.81" y="2560" width="105.62" height="30" as="geometry" />
        </mxCell>
        <mxCell id="7Gnt_7ZSYylHXQSi0mEM-57" value="查询申请单据" style="rounded=0;whiteSpace=wrap;html=1;absoluteArcSize=1;arcSize=14;strokeWidth=0;sketch=0;shadow=1;labelBorderColor=none;fontSize=13;dashed=1;fillColor=#fff2cc;strokeColor=#d6b656;" parent="1" vertex="1">
          <mxGeometry x="-5577.81" y="2610" width="105.62" height="30" as="geometry" />
        </mxCell>
        <mxCell id="7Gnt_7ZSYylHXQSi0mEM-59" value="" style="rounded=0;whiteSpace=wrap;html=1;shadow=1;fontSize=13;strokeWidth=1;glass=0;sketch=0;fillColor=#D5E8D4;" parent="1" vertex="1">
          <mxGeometry x="-5849.38" y="2720" width="290" height="160" as="geometry" />
        </mxCell>
        <mxCell id="7Gnt_7ZSYylHXQSi0mEM-60" value="&lt;font color=&quot;#000000&quot;&gt;审批管理&lt;/font&gt;" style="text;html=1;strokeColor=none;fillColor=none;align=center;verticalAlign=middle;whiteSpace=wrap;rounded=0;shadow=1;glass=0;dashed=1;sketch=0;fontSize=20;fontColor=#3399FF;" parent="1" vertex="1">
          <mxGeometry x="-5829.38" y="2730" width="105" height="30" as="geometry" />
        </mxCell>
        <mxCell id="7Gnt_7ZSYylHXQSi0mEM-61" value="我的申请" style="rounded=0;whiteSpace=wrap;html=1;absoluteArcSize=1;arcSize=14;strokeWidth=0;sketch=0;shadow=1;labelBorderColor=none;fontSize=13;dashed=1;fillColor=#fff2cc;strokeColor=#d6b656;" parent="1" vertex="1">
          <mxGeometry x="-5825" y="2770" width="105.62" height="30" as="geometry" />
        </mxCell>
        <mxCell id="7Gnt_7ZSYylHXQSi0mEM-62" value="审批通知" style="rounded=0;whiteSpace=wrap;html=1;absoluteArcSize=1;arcSize=14;strokeWidth=0;sketch=0;shadow=1;labelBorderColor=none;fontSize=13;dashed=1;fillColor=#fff2cc;strokeColor=#d6b656;" parent="1" vertex="1">
          <mxGeometry x="-5699.38" y="2770" width="105.62" height="30" as="geometry" />
        </mxCell>
        <mxCell id="7Gnt_7ZSYylHXQSi0mEM-63" value="单据查询" style="rounded=0;whiteSpace=wrap;html=1;absoluteArcSize=1;arcSize=14;strokeWidth=0;sketch=0;shadow=1;labelBorderColor=none;fontSize=13;dashed=1;fillColor=#fff2cc;strokeColor=#d6b656;" parent="1" vertex="1">
          <mxGeometry x="-5824.38" y="2820" width="105.62" height="30" as="geometry" />
        </mxCell>
        <mxCell id="7Gnt_7ZSYylHXQSi0mEM-64" value="进度查询" style="rounded=0;whiteSpace=wrap;html=1;absoluteArcSize=1;arcSize=14;strokeWidth=0;sketch=0;shadow=1;labelBorderColor=none;fontSize=13;dashed=1;fillColor=#fff2cc;strokeColor=#d6b656;" parent="1" vertex="1">
          <mxGeometry x="-5699.38" y="2820" width="105.62" height="30" as="geometry" />
        </mxCell>
        <mxCell id="7Gnt_7ZSYylHXQSi0mEM-67" value="" style="rounded=0;whiteSpace=wrap;html=1;shadow=1;fontSize=13;strokeWidth=1;glass=0;sketch=0;fillColor=#D5E8D4;" parent="1" vertex="1">
          <mxGeometry x="-5525.62" y="2720" width="155.62" height="160" as="geometry" />
        </mxCell>
        <mxCell id="7Gnt_7ZSYylHXQSi0mEM-68" value="&lt;font color=&quot;#000000&quot;&gt;审计管理&lt;/font&gt;" style="text;html=1;strokeColor=none;fillColor=none;align=center;verticalAlign=middle;whiteSpace=wrap;rounded=0;shadow=1;glass=0;dashed=1;sketch=0;fontSize=20;fontColor=#3399FF;" parent="1" vertex="1">
          <mxGeometry x="-5505.62" y="2730" width="105" height="30" as="geometry" />
        </mxCell>
        <mxCell id="7Gnt_7ZSYylHXQSi0mEM-69" value="日志审计" style="rounded=0;whiteSpace=wrap;html=1;absoluteArcSize=1;arcSize=14;strokeWidth=0;sketch=0;shadow=1;labelBorderColor=none;fontSize=13;dashed=1;fillColor=#fff2cc;strokeColor=#d6b656;" parent="1" vertex="1">
          <mxGeometry x="-5501.24" y="2770" width="105.62" height="30" as="geometry" />
        </mxCell>
        <mxCell id="7Gnt_7ZSYylHXQSi0mEM-71" value="转岗清理" style="rounded=0;whiteSpace=wrap;html=1;absoluteArcSize=1;arcSize=14;strokeWidth=0;sketch=0;shadow=1;labelBorderColor=none;fontSize=13;dashed=1;fillColor=#fff2cc;strokeColor=#d6b656;" parent="1" vertex="1">
          <mxGeometry x="-5500.62" y="2820" width="105.62" height="30" as="geometry" />
        </mxCell>
        <mxCell id="7Gnt_7ZSYylHXQSi0mEM-73" value="业务方团队" style="rounded=0;whiteSpace=wrap;html=1;shadow=1;fontSize=15;fontColor=#000000;strokeWidth=1;fillColor=#DAE8FC;" parent="1" vertex="1">
          <mxGeometry x="-6170" y="2430" width="210" height="60" as="geometry" />
        </mxCell>
        <mxCell id="7Gnt_7ZSYylHXQSi0mEM-74" value="产品运营团队" style="rounded=0;whiteSpace=wrap;html=1;shadow=1;fontSize=15;fontColor=#000000;strokeWidth=1;fillColor=#DAE8FC;" parent="1" vertex="1">
          <mxGeometry x="-5935" y="2430" width="198.76" height="60" as="geometry" />
        </mxCell>
        <mxCell id="NkZDsJRTy9tggjs-Luiu-1" value="" style="rounded=0;whiteSpace=wrap;html=1;shadow=1;fontSize=13;strokeWidth=1;dashed=1;" parent="1" vertex="1">
          <mxGeometry x="-5280" y="2390" width="970" height="700" as="geometry" />
        </mxCell>
        <mxCell id="NkZDsJRTy9tggjs-Luiu-2" value="" style="rounded=0;whiteSpace=wrap;html=1;shadow=1;fontSize=13;strokeWidth=1;dashed=1;" parent="1" vertex="1">
          <mxGeometry x="-4200" y="2395" width="1010" height="690" as="geometry" />
        </mxCell>
        <mxCell id="NkZDsJRTy9tggjs-Luiu-3" value="&lt;span style=&quot;color: rgb(51, 51, 51); font-family: arial, sans-serif; font-size: 22px; background-color: rgb(255, 255, 255);&quot;&gt;Ecommerce&lt;/span&gt;" style="text;html=1;strokeColor=none;fillColor=none;align=center;verticalAlign=middle;whiteSpace=wrap;rounded=0;fontSize=22;" parent="1" vertex="1">
          <mxGeometry x="-5228.43" y="2445" width="138.43" height="30" as="geometry" />
        </mxCell>
        <mxCell id="NkZDsJRTy9tggjs-Luiu-7" value="&lt;font color=&quot;#333333&quot; face=&quot;arial, sans-serif&quot; style=&quot;font-size: 22px;&quot;&gt;&lt;span style=&quot;font-size: 22px; background-color: rgb(255, 255, 255);&quot;&gt;密钥管理系统&lt;/span&gt;&lt;/font&gt;" style="text;html=1;strokeColor=none;fillColor=none;align=center;verticalAlign=middle;whiteSpace=wrap;rounded=0;fontStyle=1;fontSize=22;" parent="1" vertex="1">
          <mxGeometry x="-4160" y="2455" width="150" height="25" as="geometry" />
        </mxCell>
        <mxCell id="NkZDsJRTy9tggjs-Luiu-8" value="" style="rounded=0;whiteSpace=wrap;html=1;shadow=1;fontSize=13;strokeWidth=1;dashed=1;glass=0;sketch=0;fillColor=#fa6800;fontColor=#000000;strokeColor=#C73500;" parent="1" vertex="1">
          <mxGeometry x="-3940" y="2475" width="470" height="220" as="geometry" />
        </mxCell>
        <mxCell id="NkZDsJRTy9tggjs-Luiu-11" value="" style="shape=actor;whiteSpace=wrap;html=1;fontSize=20;fontColor=#3399FF;" parent="1" vertex="1">
          <mxGeometry x="-3910" y="2505" width="30" height="30" as="geometry" />
        </mxCell>
        <mxCell id="NkZDsJRTy9tggjs-Luiu-12" value="&lt;span style=&quot;color: rgb(0 , 0 , 0)&quot;&gt;应用管理&lt;/span&gt;" style="text;html=1;strokeColor=none;fillColor=none;align=center;verticalAlign=middle;whiteSpace=wrap;rounded=0;shadow=1;glass=0;dashed=1;sketch=0;fontSize=20;fontColor=#3399FF;" parent="1" vertex="1">
          <mxGeometry x="-3875" y="2505" width="111.57" height="30" as="geometry" />
        </mxCell>
        <mxCell id="NkZDsJRTy9tggjs-Luiu-13" value="ECommerce" style="rounded=1;whiteSpace=wrap;html=1;absoluteArcSize=1;arcSize=14;strokeWidth=0;sketch=0;shadow=1;labelBorderColor=none;fontSize=13;dashed=1;" parent="1" vertex="1">
          <mxGeometry x="-3763.43" y="2525" width="130" height="50" as="geometry" />
        </mxCell>
        <mxCell id="NkZDsJRTy9tggjs-Luiu-47" style="edgeStyle=orthogonalEdgeStyle;rounded=0;orthogonalLoop=1;jettySize=auto;html=1;entryX=0.5;entryY=1;entryDx=0;entryDy=0;fontSize=22;exitX=0.5;exitY=0;exitDx=0;exitDy=0;" parent="1" source="NkZDsJRTy9tggjs-Luiu-15" target="NkZDsJRTy9tggjs-Luiu-13" edge="1">
          <mxGeometry relative="1" as="geometry" />
        </mxCell>
        <mxCell id="NkZDsJRTy9tggjs-Luiu-15" value="Key1" style="rounded=1;whiteSpace=wrap;html=1;absoluteArcSize=1;arcSize=14;strokeWidth=0;sketch=0;shadow=1;labelBorderColor=none;fontSize=13;dashed=1;" parent="1" vertex="1">
          <mxGeometry x="-3911" y="2615" width="130" height="50" as="geometry" />
        </mxCell>
        <mxCell id="NkZDsJRTy9tggjs-Luiu-48" value="" style="edgeStyle=orthogonalEdgeStyle;rounded=0;orthogonalLoop=1;jettySize=auto;html=1;fontSize=22;" parent="1" source="NkZDsJRTy9tggjs-Luiu-16" target="NkZDsJRTy9tggjs-Luiu-13" edge="1">
          <mxGeometry relative="1" as="geometry" />
        </mxCell>
        <mxCell id="NkZDsJRTy9tggjs-Luiu-16" value="Key2" style="rounded=1;whiteSpace=wrap;html=1;absoluteArcSize=1;arcSize=14;strokeWidth=0;sketch=0;shadow=1;labelBorderColor=none;fontSize=13;dashed=1;" parent="1" vertex="1">
          <mxGeometry x="-3763.43" y="2615" width="130" height="50" as="geometry" />
        </mxCell>
        <mxCell id="NkZDsJRTy9tggjs-Luiu-49" style="edgeStyle=orthogonalEdgeStyle;rounded=0;orthogonalLoop=1;jettySize=auto;html=1;entryX=0.5;entryY=1;entryDx=0;entryDy=0;fontSize=22;" parent="1" source="NkZDsJRTy9tggjs-Luiu-17" target="NkZDsJRTy9tggjs-Luiu-13" edge="1">
          <mxGeometry relative="1" as="geometry">
            <Array as="points">
              <mxPoint x="-3555" y="2595" />
              <mxPoint x="-3698" y="2595" />
            </Array>
          </mxGeometry>
        </mxCell>
        <mxCell id="NkZDsJRTy9tggjs-Luiu-17" value="Key3" style="rounded=1;whiteSpace=wrap;html=1;absoluteArcSize=1;arcSize=14;strokeWidth=0;sketch=0;shadow=1;labelBorderColor=none;fontSize=13;dashed=1;" parent="1" vertex="1">
          <mxGeometry x="-3620" y="2615" width="130" height="50" as="geometry" />
        </mxCell>
        <mxCell id="NkZDsJRTy9tggjs-Luiu-40" style="edgeStyle=orthogonalEdgeStyle;rounded=0;orthogonalLoop=1;jettySize=auto;html=1;" parent="1" source="NkZDsJRTy9tggjs-Luiu-19" target="NkZDsJRTy9tggjs-Luiu-15" edge="1">
          <mxGeometry relative="1" as="geometry" />
        </mxCell>
        <mxCell id="NkZDsJRTy9tggjs-Luiu-19" value="" style="rounded=0;whiteSpace=wrap;html=1;shadow=1;fontSize=13;strokeWidth=1;dashed=1;glass=0;sketch=0;fillColor=#DAE8FC;" parent="1" vertex="1">
          <mxGeometry x="-4180" y="2795" width="310" height="205" as="geometry" />
        </mxCell>
        <mxCell id="NkZDsJRTy9tggjs-Luiu-42" style="edgeStyle=orthogonalEdgeStyle;rounded=0;orthogonalLoop=1;jettySize=auto;html=1;entryX=0.5;entryY=1;entryDx=0;entryDy=0;" parent="1" source="NkZDsJRTy9tggjs-Luiu-20" target="NkZDsJRTy9tggjs-Luiu-16" edge="1">
          <mxGeometry relative="1" as="geometry" />
        </mxCell>
        <mxCell id="NkZDsJRTy9tggjs-Luiu-20" value="" style="rounded=0;whiteSpace=wrap;html=1;shadow=1;fontSize=13;strokeWidth=1;dashed=1;glass=0;sketch=0;fillColor=#DAE8FC;" parent="1" vertex="1">
          <mxGeometry x="-3853.43" y="2795" width="310" height="205" as="geometry" />
        </mxCell>
        <mxCell id="NkZDsJRTy9tggjs-Luiu-44" style="edgeStyle=orthogonalEdgeStyle;rounded=0;orthogonalLoop=1;jettySize=auto;html=1;" parent="1" source="NkZDsJRTy9tggjs-Luiu-21" target="NkZDsJRTy9tggjs-Luiu-17" edge="1">
          <mxGeometry relative="1" as="geometry" />
        </mxCell>
        <mxCell id="NkZDsJRTy9tggjs-Luiu-21" value="" style="rounded=0;whiteSpace=wrap;html=1;shadow=1;fontSize=13;strokeWidth=1;dashed=1;glass=0;sketch=0;fillColor=#DAE8FC;" parent="1" vertex="1">
          <mxGeometry x="-3530" y="2795" width="310" height="205" as="geometry" />
        </mxCell>
        <mxCell id="NkZDsJRTy9tggjs-Luiu-22" value="" style="shape=actor;whiteSpace=wrap;html=1;fontSize=20;fontColor=#3399FF;" parent="1" vertex="1">
          <mxGeometry x="-4150" y="2815" width="30" height="30" as="geometry" />
        </mxCell>
        <mxCell id="NkZDsJRTy9tggjs-Luiu-23" value="&lt;font color=&quot;#000000&quot;&gt;服务管理&lt;/font&gt;" style="text;html=1;strokeColor=none;fillColor=none;align=center;verticalAlign=middle;whiteSpace=wrap;rounded=0;shadow=1;glass=0;dashed=1;sketch=0;fontSize=20;fontColor=#3399FF;" parent="1" vertex="1">
          <mxGeometry x="-4115" y="2815" width="111.57" height="30" as="geometry" />
        </mxCell>
        <mxCell id="NkZDsJRTy9tggjs-Luiu-24" value="" style="shape=actor;whiteSpace=wrap;html=1;fontSize=20;fontColor=#3399FF;" parent="1" vertex="1">
          <mxGeometry x="-3826.43" y="2815" width="30" height="30" as="geometry" />
        </mxCell>
        <mxCell id="NkZDsJRTy9tggjs-Luiu-25" value="&lt;font color=&quot;#000000&quot;&gt;服务管理&lt;/font&gt;" style="text;html=1;strokeColor=none;fillColor=none;align=center;verticalAlign=middle;whiteSpace=wrap;rounded=0;shadow=1;glass=0;dashed=1;sketch=0;fontSize=20;fontColor=#3399FF;" parent="1" vertex="1">
          <mxGeometry x="-3791.43" y="2815" width="111.57" height="30" as="geometry" />
        </mxCell>
        <mxCell id="NkZDsJRTy9tggjs-Luiu-26" value="" style="shape=actor;whiteSpace=wrap;html=1;fontSize=20;fontColor=#3399FF;" parent="1" vertex="1">
          <mxGeometry x="-3500" y="2815" width="24.38" height="30" as="geometry" />
        </mxCell>
        <mxCell id="NkZDsJRTy9tggjs-Luiu-27" value="&lt;span style=&quot;color: rgb(0 , 0 , 0)&quot;&gt;服务管理&lt;/span&gt;" style="text;html=1;strokeColor=none;fillColor=none;align=center;verticalAlign=middle;whiteSpace=wrap;rounded=0;shadow=1;glass=0;dashed=1;sketch=0;fontSize=20;fontColor=#3399FF;" parent="1" vertex="1">
          <mxGeometry x="-3465" y="2815" width="111.57" height="30" as="geometry" />
        </mxCell>
        <mxCell id="NkZDsJRTy9tggjs-Luiu-33" value="userService" style="rounded=1;whiteSpace=wrap;html=1;absoluteArcSize=1;arcSize=14;strokeWidth=0;sketch=0;shadow=1;labelBorderColor=none;fontSize=13;dashed=1;" parent="1" vertex="1">
          <mxGeometry x="-4100" y="2865" width="130" height="50" as="geometry" />
        </mxCell>
        <mxCell id="NkZDsJRTy9tggjs-Luiu-52" style="edgeStyle=orthogonalEdgeStyle;rounded=0;orthogonalLoop=1;jettySize=auto;html=1;entryX=0.5;entryY=1;entryDx=0;entryDy=0;fontSize=22;" parent="1" source="NkZDsJRTy9tggjs-Luiu-34" target="NkZDsJRTy9tggjs-Luiu-33" edge="1">
          <mxGeometry relative="1" as="geometry" />
        </mxCell>
        <mxCell id="NkZDsJRTy9tggjs-Luiu-34" value="Key1" style="rounded=1;whiteSpace=wrap;html=1;absoluteArcSize=1;arcSize=14;strokeWidth=0;sketch=0;shadow=1;labelBorderColor=none;fontSize=13;dashed=1;" parent="1" vertex="1">
          <mxGeometry x="-4100" y="2935" width="130" height="48" as="geometry" />
        </mxCell>
        <mxCell id="NkZDsJRTy9tggjs-Luiu-35" value="productService" style="rounded=1;whiteSpace=wrap;html=1;absoluteArcSize=1;arcSize=14;strokeWidth=0;sketch=0;shadow=1;labelBorderColor=none;fontSize=13;dashed=1;" parent="1" vertex="1">
          <mxGeometry x="-3775.43" y="2865" width="130" height="50" as="geometry" />
        </mxCell>
        <mxCell id="NkZDsJRTy9tggjs-Luiu-55" style="edgeStyle=orthogonalEdgeStyle;rounded=0;orthogonalLoop=1;jettySize=auto;html=1;entryX=0.5;entryY=1;entryDx=0;entryDy=0;fontSize=22;" parent="1" source="NkZDsJRTy9tggjs-Luiu-36" target="NkZDsJRTy9tggjs-Luiu-35" edge="1">
          <mxGeometry relative="1" as="geometry" />
        </mxCell>
        <mxCell id="NkZDsJRTy9tggjs-Luiu-36" value="Key2" style="rounded=1;whiteSpace=wrap;html=1;absoluteArcSize=1;arcSize=14;strokeWidth=0;sketch=0;shadow=1;labelBorderColor=none;fontSize=13;dashed=1;" parent="1" vertex="1">
          <mxGeometry x="-3775.43" y="2933" width="130" height="50" as="geometry" />
        </mxCell>
        <mxCell id="NkZDsJRTy9tggjs-Luiu-37" value="orderService" style="rounded=1;whiteSpace=wrap;html=1;absoluteArcSize=1;arcSize=14;strokeWidth=0;sketch=0;shadow=1;labelBorderColor=none;fontSize=13;dashed=1;" parent="1" vertex="1">
          <mxGeometry x="-3465" y="2865" width="130" height="50" as="geometry" />
        </mxCell>
        <mxCell id="NkZDsJRTy9tggjs-Luiu-56" style="edgeStyle=orthogonalEdgeStyle;rounded=0;orthogonalLoop=1;jettySize=auto;html=1;fontSize=22;" parent="1" source="NkZDsJRTy9tggjs-Luiu-38" target="NkZDsJRTy9tggjs-Luiu-37" edge="1">
          <mxGeometry relative="1" as="geometry" />
        </mxCell>
        <mxCell id="NkZDsJRTy9tggjs-Luiu-38" value="Key3" style="rounded=1;whiteSpace=wrap;html=1;absoluteArcSize=1;arcSize=14;strokeWidth=0;sketch=0;shadow=1;labelBorderColor=none;fontSize=13;dashed=1;" parent="1" vertex="1">
          <mxGeometry x="-3465" y="2935" width="130" height="50" as="geometry" />
        </mxCell>
        <mxCell id="NkZDsJRTy9tggjs-Luiu-76" value="&lt;font style=&quot;font-size: 16px&quot;&gt;web&lt;/font&gt;" style="rounded=1;whiteSpace=wrap;html=1;absoluteArcSize=1;arcSize=14;strokeWidth=0;sketch=0;shadow=1;labelBorderColor=none;fontSize=13;dashed=1;" parent="1" vertex="1">
          <mxGeometry x="-5044.38" y="2480" width="208.76" height="80" as="geometry" />
        </mxCell>
        <mxCell id="NkZDsJRTy9tggjs-Luiu-85" style="edgeStyle=orthogonalEdgeStyle;rounded=0;orthogonalLoop=1;jettySize=auto;html=1;entryX=0.5;entryY=1;entryDx=0;entryDy=0;fontSize=20;" parent="1" source="NkZDsJRTy9tggjs-Luiu-78" target="NkZDsJRTy9tggjs-Luiu-80" edge="1">
          <mxGeometry relative="1" as="geometry" />
        </mxCell>
        <mxCell id="NkZDsJRTy9tggjs-Luiu-93" style="edgeStyle=orthogonalEdgeStyle;rounded=0;orthogonalLoop=1;jettySize=auto;html=1;entryX=0.5;entryY=1;entryDx=0;entryDy=0;fontSize=20;" parent="1" source="NkZDsJRTy9tggjs-Luiu-78" target="NkZDsJRTy9tggjs-Luiu-36" edge="1">
          <mxGeometry relative="1" as="geometry">
            <Array as="points">
              <mxPoint x="-4795" y="3040" />
              <mxPoint x="-3710" y="3040" />
            </Array>
          </mxGeometry>
        </mxCell>
        <mxCell id="NkZDsJRTy9tggjs-Luiu-78" value="&lt;font style=&quot;font-size: 20px&quot;&gt;productService&lt;/font&gt;" style="rounded=1;whiteSpace=wrap;html=1;absoluteArcSize=1;arcSize=14;strokeWidth=0;sketch=0;shadow=1;labelBorderColor=none;fontSize=13;dashed=1;fillColor=#DAE8FC;" parent="1" vertex="1">
          <mxGeometry x="-4899.38" y="2893" width="208.76" height="80" as="geometry" />
        </mxCell>
        <mxCell id="NkZDsJRTy9tggjs-Luiu-87" style="edgeStyle=orthogonalEdgeStyle;rounded=0;orthogonalLoop=1;jettySize=auto;html=1;entryX=0.5;entryY=1;entryDx=0;entryDy=0;fontSize=20;" parent="1" source="NkZDsJRTy9tggjs-Luiu-79" target="NkZDsJRTy9tggjs-Luiu-80" edge="1">
          <mxGeometry relative="1" as="geometry">
            <Array as="points">
              <mxPoint x="-5054" y="2870" />
              <mxPoint x="-4795" y="2870" />
            </Array>
          </mxGeometry>
        </mxCell>
        <mxCell id="NkZDsJRTy9tggjs-Luiu-94" style="edgeStyle=orthogonalEdgeStyle;rounded=0;orthogonalLoop=1;jettySize=auto;html=1;entryX=0.5;entryY=1;entryDx=0;entryDy=0;fontSize=20;" parent="1" source="NkZDsJRTy9tggjs-Luiu-79" target="NkZDsJRTy9tggjs-Luiu-34" edge="1">
          <mxGeometry relative="1" as="geometry">
            <Array as="points">
              <mxPoint x="-5054" y="3040" />
              <mxPoint x="-4035" y="3040" />
            </Array>
          </mxGeometry>
        </mxCell>
        <mxCell id="NkZDsJRTy9tggjs-Luiu-79" value="&lt;font style=&quot;font-size: 20px&quot;&gt;userService&lt;/font&gt;" style="rounded=1;whiteSpace=wrap;html=1;absoluteArcSize=1;arcSize=14;strokeWidth=0;sketch=0;shadow=1;labelBorderColor=none;fontSize=13;dashed=1;fillColor=#DAE8FC;" parent="1" vertex="1">
          <mxGeometry x="-5158.76" y="2898" width="208.76" height="80" as="geometry" />
        </mxCell>
        <mxCell id="NkZDsJRTy9tggjs-Luiu-84" style="edgeStyle=orthogonalEdgeStyle;rounded=0;orthogonalLoop=1;jettySize=auto;html=1;entryX=0.5;entryY=1;entryDx=0;entryDy=0;fontSize=20;" parent="1" source="NkZDsJRTy9tggjs-Luiu-80" target="NkZDsJRTy9tggjs-Luiu-81" edge="1">
          <mxGeometry relative="1" as="geometry" />
        </mxCell>
        <mxCell id="NkZDsJRTy9tggjs-Luiu-80" value="&lt;font style=&quot;font-size: 20px&quot;&gt;web server&lt;/font&gt;" style="rounded=1;whiteSpace=wrap;html=1;absoluteArcSize=1;arcSize=14;strokeWidth=0;sketch=0;shadow=1;labelBorderColor=none;fontSize=13;dashed=1;fillColor=#fa6800;fontColor=#000000;strokeColor=#C73500;" parent="1" vertex="1">
          <mxGeometry x="-4899.38" y="2750" width="208.76" height="80" as="geometry" />
        </mxCell>
        <mxCell id="NkZDsJRTy9tggjs-Luiu-81" value="&lt;font style=&quot;font-size: 20px&quot;&gt;nginx&lt;/font&gt;" style="rounded=1;whiteSpace=wrap;html=1;absoluteArcSize=1;arcSize=14;strokeWidth=0;sketch=0;shadow=1;labelBorderColor=none;fontSize=13;dashed=1;fillColor=#bac8d3;strokeColor=#23445d;" parent="1" vertex="1">
          <mxGeometry x="-4899.38" y="2610" width="208.76" height="80" as="geometry" />
        </mxCell>
        <mxCell id="NkZDsJRTy9tggjs-Luiu-86" style="edgeStyle=orthogonalEdgeStyle;rounded=0;orthogonalLoop=1;jettySize=auto;html=1;entryX=0.5;entryY=1;entryDx=0;entryDy=0;fontSize=20;" parent="1" source="NkZDsJRTy9tggjs-Luiu-82" target="NkZDsJRTy9tggjs-Luiu-80" edge="1">
          <mxGeometry relative="1" as="geometry">
            <Array as="points">
              <mxPoint x="-4536" y="2870" />
              <mxPoint x="-4795" y="2870" />
            </Array>
          </mxGeometry>
        </mxCell>
        <mxCell id="NkZDsJRTy9tggjs-Luiu-92" style="edgeStyle=orthogonalEdgeStyle;rounded=0;orthogonalLoop=1;jettySize=auto;html=1;entryX=0.5;entryY=1;entryDx=0;entryDy=0;fontSize=20;" parent="1" source="NkZDsJRTy9tggjs-Luiu-82" target="NkZDsJRTy9tggjs-Luiu-38" edge="1">
          <mxGeometry relative="1" as="geometry">
            <Array as="points">
              <mxPoint x="-4536" y="3040" />
              <mxPoint x="-3400" y="3040" />
            </Array>
          </mxGeometry>
        </mxCell>
        <mxCell id="NkZDsJRTy9tggjs-Luiu-82" value="&lt;font style=&quot;font-size: 20px&quot;&gt;orderService&lt;/font&gt;" style="rounded=1;whiteSpace=wrap;html=1;absoluteArcSize=1;arcSize=14;strokeWidth=0;sketch=0;shadow=1;labelBorderColor=none;fontSize=13;dashed=1;fillColor=#DAE8FC;" parent="1" vertex="1">
          <mxGeometry x="-4640" y="2890" width="208.76" height="80" as="geometry" />
        </mxCell>
        <mxCell id="NkZDsJRTy9tggjs-Luiu-83" value="&lt;font style=&quot;font-size: 20px&quot;&gt;app&lt;/font&gt;" style="rounded=1;whiteSpace=wrap;html=1;absoluteArcSize=1;arcSize=14;strokeWidth=0;sketch=0;shadow=1;labelBorderColor=none;fontSize=13;dashed=1;" parent="1" vertex="1">
          <mxGeometry x="-4750" y="2480" width="208.76" height="80" as="geometry" />
        </mxCell>
        <mxCell id="PTpXZo3exrWFnnkxVfu9-9" value="&lt;span style=&quot;color: rgba(0 , 0 , 0 , 0) ; font-family: monospace ; font-size: 0px&quot;&gt;%3CmxGraphModel%3E%3Croot%3E%3CmxCell%20id%3D%220%22%2F%3E%3CmxCell%20id%3D%221%22%20parent%3D%220%22%2F%3E%3CmxCell%20id%3D%222%22%20value%3D%22%26lt%3Bdiv%26gt%3B%26lt%3Bdiv%20class%3D%26quot%3Bdocument%26quot%3B%26gt%3B%26lt%3Bp%20class%3D%26quot%3Bparagraph%20text-align-type-center%20pap-line-1.3%20pap-line-rule-auto%20pap-spacing-before-3pt%20pap-spacing-after-3pt%26quot%3B%20style%3D%26quot%3Bline-height%3A%201.3%20%3B%20margin-top%3A%204px%20%3B%20margin-bottom%3A%204px%26quot%3B%26gt%3B%26lt%3Bspan%20style%3D%26quot%3Bfont-size%3A%2011pt%20%3B%20font-family%3A%20%26amp%3B%2334%3Bhelvetica%20neue%26amp%3B%2334%3B%20%2C%20%26amp%3B%2334%3Bhelvetica%26amp%3B%2334%3B%20%2C%20%26amp%3B%2334%3Bpingfang%20sc%26amp%3B%2334%3B%20%2C%20%26amp%3B%2334%3Bmicrosoft%20yahei%26amp%3B%2334%3B%20%2C%20%26amp%3B%2334%3Bsource%20han%20sans%20sc%26amp%3B%2334%3B%20%2C%20%26amp%3B%2334%3Bnoto%20sans%20cjk%20sc%26amp%3B%2334%3B%20%2C%20%26amp%3B%2334%3Bwenquanyi%20micro%20hei%26amp%3B%2334%3B%20%2C%20sans-serif%20%3B%20color%3A%20rgb(51%20%2C%2051%20%2C%2051)%20%3B%20background%3A%20transparent%20%3B%20letter-spacing%3A%200pt%20%3B%20vertical-align%3A%20baseline%26quot%3B%26gt%3Bmdb%26lt%3B%2Fspan%26gt%3B%26lt%3B%2Fp%26gt%3B%26lt%3B%2Fdiv%26gt%3B%26lt%3B%2Fdiv%26gt%3B%22%20style%3D%22rounded%3D1%3BwhiteSpace%3Dwrap%3Bhtml%3D1%3BabsoluteArcSize%3D1%3BarcSize%3D14%3BstrokeWidth%3D0%3Bsketch%3D0%3Bshadow%3D1%3BlabelBorderColor%3Dnone%3BfontSize%3D13%3Bdashed%3D1%3B%22%20vertex%3D%221%22%20parent%3D%221%22%3E%3CmxGeometry%20x%3D%22-4080%22%20y%3D%223507%22%20width%3D%22130%22%20height%3D%2250%22%20as%3D%22geometry%22%2F%3E%3C%2FmxCell%3E%3C%2Froot%3E%3C%2FmxGraphModel%3E&lt;/span&gt;" style="rounded=0;whiteSpace=wrap;html=1;shadow=1;fontSize=13;strokeWidth=1;dashed=1;" vertex="1" parent="1">
          <mxGeometry x="-4120" y="3660" width="400" height="120" as="geometry" />
        </mxCell>
        <mxCell id="PTpXZo3exrWFnnkxVfu9-10" value="&lt;div&gt;&lt;div class=&quot;document&quot;&gt;&lt;p class=&quot;paragraph text-align-type-center pap-line-1.3 pap-line-rule-auto pap-spacing-before-3pt pap-spacing-after-3pt&quot; style=&quot;line-height: 1.3 ; margin-top: 4px ; margin-bottom: 4px&quot;&gt;&lt;span style=&quot;font-size: 11pt ; font-family: &amp;#34;helvetica neue&amp;#34; , &amp;#34;helvetica&amp;#34; , &amp;#34;pingfang sc&amp;#34; , &amp;#34;microsoft yahei&amp;#34; , &amp;#34;source han sans sc&amp;#34; , &amp;#34;noto sans cjk sc&amp;#34; , &amp;#34;wenquanyi micro hei&amp;#34; , sans-serif ; color: rgb(51 , 51 , 51) ; background: transparent ; letter-spacing: 0pt ; vertical-align: baseline&quot;&gt;mdb&lt;/span&gt;&lt;/p&gt;&lt;/div&gt;&lt;/div&gt;" style="rounded=1;whiteSpace=wrap;html=1;absoluteArcSize=1;arcSize=14;strokeWidth=0;sketch=0;shadow=1;labelBorderColor=none;fontSize=13;dashed=1;" vertex="1" parent="1">
          <mxGeometry x="-4100" y="3710" width="80" height="40" as="geometry" />
        </mxCell>
        <mxCell id="PTpXZo3exrWFnnkxVfu9-14" value="腾讯云数据资产" style="text;html=1;strokeColor=none;fillColor=none;align=center;verticalAlign=middle;whiteSpace=wrap;rounded=0;" vertex="1" parent="1">
          <mxGeometry x="-4100" y="3670" width="90" height="30" as="geometry" />
        </mxCell>
        <mxCell id="PTpXZo3exrWFnnkxVfu9-15" value="腾讯云openapi" style="rounded=0;whiteSpace=wrap;html=1;" vertex="1" parent="1">
          <mxGeometry x="-3970" y="3880" width="120" height="60" as="geometry" />
        </mxCell>
        <mxCell id="PTpXZo3exrWFnnkxVfu9-19" value="&lt;div class=&quot;document&quot;&gt;&lt;p class=&quot;paragraph text-align-type-center pap-line-1.3 pap-line-rule-auto pap-spacing-before-3pt pap-spacing-after-3pt&quot; style=&quot;line-height: 1.3 ; margin-top: 4px ; margin-bottom: 4px&quot;&gt;&lt;font color=&quot;#333333&quot; face=&quot;helvetica neue, helvetica, pingfang sc, microsoft yahei, source han sans sc, noto sans cjk sc, wenquanyi micro hei, sans-serif&quot;&gt;&lt;span style=&quot;font-size: 14.6667px&quot;&gt;cdb&lt;/span&gt;&lt;/font&gt;&lt;/p&gt;&lt;/div&gt;" style="rounded=1;whiteSpace=wrap;html=1;absoluteArcSize=1;arcSize=14;strokeWidth=0;sketch=0;shadow=1;labelBorderColor=none;fontSize=13;dashed=1;" vertex="1" parent="1">
          <mxGeometry x="-4003.43" y="3710" width="80" height="40" as="geometry" />
        </mxCell>
        <mxCell id="PTpXZo3exrWFnnkxVfu9-20" value="&lt;div&gt;&lt;div class=&quot;document&quot;&gt;&lt;p class=&quot;paragraph text-align-type-center pap-line-1.3 pap-line-rule-auto pap-spacing-before-3pt pap-spacing-after-3pt&quot; style=&quot;line-height: 1.3 ; margin-top: 4px ; margin-bottom: 4px&quot;&gt;&lt;span style=&quot;font-size: 11pt ; font-family: &amp;#34;helvetica neue&amp;#34; , &amp;#34;helvetica&amp;#34; , &amp;#34;pingfang sc&amp;#34; , &amp;#34;microsoft yahei&amp;#34; , &amp;#34;source han sans sc&amp;#34; , &amp;#34;noto sans cjk sc&amp;#34; , &amp;#34;wenquanyi micro hei&amp;#34; , sans-serif ; color: rgb(51 , 51 , 51) ; background: transparent ; letter-spacing: 0pt ; vertical-align: baseline&quot;&gt;tdsql&lt;/span&gt;&lt;/p&gt;&lt;/div&gt;&lt;/div&gt;" style="rounded=1;whiteSpace=wrap;html=1;absoluteArcSize=1;arcSize=14;strokeWidth=0;sketch=0;shadow=1;labelBorderColor=none;fontSize=13;dashed=1;" vertex="1" parent="1">
          <mxGeometry x="-3911" y="3710" width="80" height="40" as="geometry" />
        </mxCell>
        <mxCell id="PTpXZo3exrWFnnkxVfu9-21" value="&lt;div&gt;&lt;div class=&quot;document&quot;&gt;&lt;p class=&quot;paragraph text-align-type-center pap-line-1.3 pap-line-rule-auto pap-spacing-before-3pt pap-spacing-after-3pt&quot; style=&quot;line-height: 1.3 ; margin-top: 4px ; margin-bottom: 4px&quot;&gt;&lt;span style=&quot;font-size: 11pt ; font-family: &amp;#34;helvetica neue&amp;#34; , &amp;#34;helvetica&amp;#34; , &amp;#34;pingfang sc&amp;#34; , &amp;#34;microsoft yahei&amp;#34; , &amp;#34;source han sans sc&amp;#34; , &amp;#34;noto sans cjk sc&amp;#34; , &amp;#34;wenquanyi micro hei&amp;#34; , sans-serif ; color: rgb(51 , 51 , 51) ; background: transparent ; letter-spacing: 0pt ; vertical-align: baseline&quot;&gt;redis&lt;/span&gt;&lt;/p&gt;&lt;/div&gt;&lt;/div&gt;" style="rounded=1;whiteSpace=wrap;html=1;absoluteArcSize=1;arcSize=14;strokeWidth=0;sketch=0;shadow=1;labelBorderColor=none;fontSize=13;dashed=1;" vertex="1" parent="1">
          <mxGeometry x="-3820" y="3710" width="80" height="40" as="geometry" />
        </mxCell>
        <mxCell id="PTpXZo3exrWFnnkxVfu9-22" value="云账号创建sdk" style="rounded=0;whiteSpace=wrap;html=1;" vertex="1" parent="1">
          <mxGeometry x="-3980" y="3507" width="120" height="60" as="geometry" />
        </mxCell>
        <mxCell id="PTpXZo3exrWFnnkxVfu9-23" value="数据采集sdk" style="rounded=0;whiteSpace=wrap;html=1;" vertex="1" parent="1">
          <mxGeometry x="-3645.43" y="3680" width="120" height="60" as="geometry" />
        </mxCell>
        <mxCell id="PTpXZo3exrWFnnkxVfu9-24" value="数据分类分级引擎" style="rounded=0;whiteSpace=wrap;html=1;" vertex="1" parent="1">
          <mxGeometry x="-3435" y="3680" width="120" height="60" as="geometry" />
        </mxCell>
        <mxCell id="PTpXZo3exrWFnnkxVfu9-25" value="" style="endArrow=classic;html=1;rounded=0;" edge="1" parent="1">
          <mxGeometry width="50" height="50" relative="1" as="geometry">
            <mxPoint x="-3870" y="3870" as="sourcePoint" />
            <mxPoint x="-3870" y="3790" as="targetPoint" />
          </mxGeometry>
        </mxCell>
        <mxCell id="PTpXZo3exrWFnnkxVfu9-26" value="保存实例账户" style="edgeLabel;html=1;align=center;verticalAlign=middle;resizable=0;points=[];" vertex="1" connectable="0" parent="PTpXZo3exrWFnnkxVfu9-25">
          <mxGeometry x="-0.23" y="-1" relative="1" as="geometry">
            <mxPoint x="4" as="offset" />
          </mxGeometry>
        </mxCell>
        <mxCell id="PTpXZo3exrWFnnkxVfu9-29" value="" style="endArrow=classic;html=1;rounded=0;" edge="1" parent="1">
          <mxGeometry width="50" height="50" relative="1" as="geometry">
            <mxPoint x="-3950" y="3870" as="sourcePoint" />
            <mxPoint x="-3950" y="3790" as="targetPoint" />
          </mxGeometry>
        </mxCell>
        <mxCell id="PTpXZo3exrWFnnkxVfu9-30" value="创建实例账户" style="edgeLabel;html=1;align=center;verticalAlign=middle;resizable=0;points=[];" vertex="1" connectable="0" parent="PTpXZo3exrWFnnkxVfu9-29">
          <mxGeometry x="-0.23" y="-1" relative="1" as="geometry">
            <mxPoint as="offset" />
          </mxGeometry>
        </mxCell>
      </root>
    </mxGraphModel>
  </diagram>
</mxfile>
